SplineFontDB: 3.0
FontName: Mipgost
FullName: Mipgost
FamilyName: Mipgost
Weight: Book
Copyright: Vladimir Azarko
Version: 5.20 November 28, 2006
ItalicAngle: 0
UnderlinePosition: -150
UnderlineWidth: 100
Ascent: 1638
Descent: 410
InvalidEm: 0
sfntRevision: 0x00053333
LayerCount: 2
Layer: 0 1 "+BBcEMAQ0BD0EOAQ5 +BD8EOwQwBD0A" 1
Layer: 1 1 "+BB8ENQRABDUENAQ9BDgEOQAA +BD8EOwQwBD0A" 0
XUID: [1021 392 -597348068 30621]
FSType: 0
OS2Version: 1
OS2_WeightWidthSlopeOnly: 0
OS2_UseTypoMetrics: 1
CreationTime: 1086040800
ModificationTime: 1202741671
PfmFamily: 17
TTFWeight: 400
TTFWidth: 5
LineGap: 0
VLineGap: 0
Panose: 2 11 5 0 0 0 0 0 0 0
OS2TypoAscent: 1407
OS2TypoAOffset: 0
OS2TypoDescent: -448
OS2TypoDOffset: 0
OS2TypoLinegap: 0
OS2WinAscent: 1700
OS2WinAOffset: 0
OS2WinDescent: 448
OS2WinDOffset: 0
HheadAscent: 1407
HheadAOffset: 0
HheadDescent: -468
HheadDOffset: 0
OS2SubXSize: 410
OS2SubYSize: 369
OS2SubXOff: 0
OS2SubYOff: -448
OS2SupXSize: 410
OS2SupYSize: 369
OS2SupXOff: 0
OS2SupYOff: 1204
OS2StrikeYSize: 102
OS2StrikeYPos: 530
OS2CapHeight: 0
OS2XHeight: 0
OS2FamilyClass: 2048
OS2Vendor: 'SWAP'
OS2CodePages: 00000005.00000000
OS2UnicodeRanges: 80000227.00000048.00000000.00000000
Lookup: 258 0 0 "'kern' Horizontal Kerning lookup 0" { "'kern' Horizontal Kerning lookup 0 subtable"  } ['kern' ('cyrl' <'dflt' > 'latn' <'dflt' > ) ]
DEI: 91125
TtTable: prep
PUSHW_1
 10
CALL
NPUSHB
 14
 33
 33
 32
 32
 15
 15
 1
 1
 0
 0
 16
 16
 69
 1
SCANTYPE
PUSHW_1
 511
SCANCTRL
SROUND
RCVT
ROUND[Grey]
WCVTP
RTG
PUSHB_4
 2
 0
 70
 0
CALL
PUSHB_4
 3
 15
 70
 0
CALL
PUSHB_4
 4
 1
 70
 0
CALL
PUSHB_4
 5
 0
 70
 0
CALL
PUSHB_4
 6
 0
 70
 0
CALL
PUSHB_4
 7
 1
 70
 0
CALL
PUSHB_4
 8
 15
 70
 0
CALL
PUSHB_4
 9
 1
 70
 0
CALL
PUSHB_4
 10
 1
 70
 0
CALL
PUSHB_4
 11
 15
 70
 0
CALL
PUSHB_4
 12
 1
 70
 0
CALL
PUSHB_4
 13
 1
 70
 0
CALL
PUSHB_4
 14
 0
 70
 0
CALL
PUSHB_4
 17
 16
 70
 0
CALL
PUSHB_4
 18
 15
 70
 0
CALL
PUSHB_4
 19
 15
 70
 0
CALL
PUSHB_4
 20
 15
 70
 0
CALL
PUSHB_4
 21
 1
 70
 0

StartChar: .notdef
Encoding: 65536 -1 0
Width: 800
Flags: W
LayerCount: 2
Back
Fore
SplineSet
481 0 m 1,0,-1
 372 -245 l 2,1,2
 361 -269 361 -269 341.5 -274 c 128,-1,3
 322 -279 322 -279 304.5 -271 c 128,-1,4
 287 -263 287 -263 278 -245 c 128,-1,5
 269 -227 269 -227 280 -203 c 2,6,-1
 373 0 l 1,7,8
 272 11 272 11 192 87 c 0,9,10
 100 175 100 175 100 300 c 2,11,-1
 100 1100 l 2,12,13
 100 1220 100 1220 187 1310 c 128,-1,14
 274 1400 274 1400 401 1400 c 2,15,-1
 650 1400 l 2,16,17
 668 1400 668 1400 684 1384 c 128,-1,18
 700 1368 700 1368 700 1350 c 256,19,20
 700 1332 700 1332 687 1316 c 128,-1,21
 674 1300 674 1300 650 1300 c 2,22,-1
 401 1300 l 2,23,24
 318 1300 318 1300 259 1242.5 c 128,-1,25
 200 1185 200 1185 200 1100 c 2,26,-1
 200 300 l 2,27,28
 200 218 200 218 259 159 c 128,-1,29
 318 100 318 100 401 100 c 2,30,-1
 650 100 l 2,31,32
 668 100 668 100 684 84 c 128,-1,33
 700 68 700 68 700 50 c 256,34,35
 700 32 700 32 687 16 c 128,-1,36
 674 0 674 0 650 0 c 2,37,-1
 481 0 l 1,0,-1
EndSplineSet
EndChar

StartChar: glyph11
Encoding: 231 231 11
Width: 800
Flags: W
LayerCount: 2
Back
Fore
SplineSet
434 33 m 2,0,-1
 282 -261 l 2,1,2
 270 -284 270 -284 277.5 -302.5 c 128,-1,3
 285 -321 285 -321 301.5 -329.5 c 128,-1,4
 318 -338 318 -338 338 -334 c 128,-1,5
 358 -330 358 -330 370 -307 c 2,6,-1
 522 -13 l 2,7,8
 534 10 534 10 526 28.5 c 128,-1,9
 518 47 518 47 501.5 55.5 c 128,-1,10
 485 64 485 64 465.5 60 c 128,-1,11
 446 56 446 56 434 33 c 2,0,-1
650 0 m 2,12,-1
 300 0 l 2,13,14
 216 0 216 0 158 58 c 128,-1,15
 100 116 100 116 100 200 c 2,16,-1
 100 800 l 2,17,18
 100 875 100 875 157 937.5 c 128,-1,19
 214 1000 214 1000 300 1000 c 2,20,-1
 650 1000 l 2,21,22
 668 1000 668 1000 684 984 c 128,-1,23
 700 968 700 968 700 950 c 256,24,25
 700 932 700 932 687 916 c 128,-1,26
 674 900 674 900 650 900 c 2,27,-1
 300 900 l 2,28,29
 258 900 258 900 229 871 c 128,-1,30
 200 842 200 842 200 800 c 2,31,-1
 200 200 l 2,32,33
 200 158 200 158 229 129 c 128,-1,34
 258 100 258 100 300 100 c 2,35,-1
 650 100 l 2,36,37
 668 100 668 100 684 84 c 128,-1,38
 700 68 700 68 700 50 c 256,39,40
 700 32 700 32 687 16 c 128,-1,41
 674 0 674 0 650 0 c 2,12,-1
EndSplineSet
EndChar

StartChar: glyph16
Encoding: 237 237 16
Width: 509
Flags: W
LayerCount: 2
Back
Fore
SplineSet
302 951 m 2,0,-1
 302 50 l 2,1,2
 302 34 302 34 287 13 c 1,3,4
 271 0 271 0 253 0 c 0,5,6
 244 0 244 0 218 12 c 1,7,8
 203 24 203 24 203 50 c 2,9,-1
 203 951 l 2,10,11
 203 964 203 964 218 982 c 128,-1,12
 233 1000 233 1000 253 1000 c 0,13,14
 271 1000 271 1000 286.5 987.5 c 128,-1,15
 302 975 302 975 302 951 c 2,0,-1
134 1222 m 2,16,-1
 318 1390 l 2,17,18
 337 1408 337 1408 357 1405 c 128,-1,19
 377 1402 377 1402 390 1388 c 128,-1,20
 403 1374 403 1374 404 1354 c 128,-1,21
 405 1334 405 1334 386 1316 c 2,22,-1
 202 1148 l 2,23,24
 183 1130 183 1130 162.5 1133 c 128,-1,25
 142 1136 142 1136 129.5 1150 c 128,-1,26
 117 1164 117 1164 116 1184 c 128,-1,27
 115 1204 115 1204 134 1222 c 2,16,-1
EndSplineSet
EndChar

StartChar: glyph17
Encoding: 236 236 17
Width: 527
Flags: W
LayerCount: 2
Back
Fore
SplineSet
302 951 m 2,0,-1
 302 50 l 2,1,2
 302 34 302 34 287 13 c 1,3,4
 271 0 271 0 253 0 c 0,5,6
 244 0 244 0 218 12 c 1,7,8
 203 24 203 24 203 50 c 2,9,-1
 203 951 l 2,10,11
 203 964 203 964 218 982 c 128,-1,12
 233 1000 233 1000 253 1000 c 0,13,14
 271 1000 271 1000 286.5 987.5 c 128,-1,15
 302 975 302 975 302 951 c 2,0,-1
219 1383 m 2,16,-1
 387 1199 l 2,17,18
 405 1180 405 1180 402 1159.5 c 128,-1,19
 399 1139 399 1139 385 1126.5 c 128,-1,20
 371 1114 371 1114 351 1113 c 128,-1,21
 331 1112 331 1112 313 1131 c 2,22,-1
 145 1315 l 2,23,24
 127 1334 127 1334 130 1354 c 128,-1,25
 133 1374 133 1374 147 1387 c 128,-1,26
 161 1400 161 1400 181 1401 c 128,-1,27
 201 1402 201 1402 219 1383 c 2,16,-1
EndSplineSet
EndChar

StartChar: glyph18
Encoding: 238 238 18
Width: 657
Flags: W
LayerCount: 2
Back
Fore
SplineSet
394 951 m 2,0,-1
 394 50 l 2,1,2
 394 34 394 34 379 13 c 1,3,4
 363 0 363 0 345 0 c 0,5,6
 336 0 336 0 310 12 c 1,7,8
 295 24 295 24 295 50 c 2,9,-1
 295 951 l 2,10,11
 295 964 295 964 310 982 c 128,-1,12
 325 1000 325 1000 345 1000 c 0,13,14
 363 1000 363 1000 378.5 987.5 c 128,-1,15
 394 975 394 975 394 951 c 2,0,-1
584 1246 m 1,16,17
 595 1232 595 1232 595 1215 c 0,18,19
 595 1197 595 1197 579 1181 c 128,-1,20
 563 1165 563 1165 543 1165 c 0,21,22
 519 1165 519 1165 347 1287 c 1,23,24
 169 1165 169 1165 145 1165 c 0,25,26
 127 1165 127 1165 109 1180 c 0,27,28
 93 1196 93 1196 93 1216 c 0,29,30
 93 1232 93 1232 104 1246 c 1,31,-1
 325 1397 l 2,32,33
 345 1409 345 1409 362 1397 c 2,34,-1
 584 1246 l 1,16,17
EndSplineSet
EndChar

StartChar: glyph19
Encoding: 239 239 19
Width: 564
Flags: W
LayerCount: 2
Back
Fore
SplineSet
319 956 m 2,0,-1
 319 55 l 2,1,2
 319 39 319 39 304 18 c 1,3,4
 288 5 288 5 270 5 c 0,5,6
 261 5 261 5 235 17 c 1,7,8
 220 29 220 29 220 55 c 2,9,-1
 220 956 l 2,10,11
 220 969 220 969 235 987 c 128,-1,12
 250 1005 250 1005 270 1005 c 0,13,14
 288 1005 288 1005 303.5 992.5 c 128,-1,15
 319 980 319 980 319 956 c 2,0,-1
126 1397 m 1,16,17
 151 1397 151 1397 161.5 1386 c 128,-1,18
 172 1375 172 1375 176 1346 c 0,19,20
 176 1328 176 1328 163.5 1312.5 c 128,-1,21
 151 1297 151 1297 126 1297 c 0,22,23
 102 1297 102 1297 89.5 1311 c 128,-1,24
 77 1325 77 1325 77 1346 c 0,25,26
 79 1368 79 1368 91.5 1382.5 c 128,-1,27
 104 1397 104 1397 126 1397 c 1,28,-1
 126 1397 l 1,16,17
445 1398 m 1,29,30
 470 1398 470 1398 480.5 1387 c 128,-1,31
 491 1376 491 1376 495 1347 c 0,32,33
 495 1329 495 1329 482.5 1313.5 c 128,-1,34
 470 1298 470 1298 445 1298 c 0,35,36
 421 1298 421 1298 408.5 1312 c 128,-1,37
 396 1326 396 1326 396 1347 c 0,38,39
 398 1369 398 1369 410.5 1383.5 c 128,-1,40
 423 1398 423 1398 445 1398 c 1,41,-1
 445 1398 l 1,29,30
126 1397 m 1,42,43
 151 1397 151 1397 161.5 1386 c 128,-1,44
 172 1375 172 1375 176 1346 c 0,45,46
 176 1328 176 1328 163.5 1312.5 c 128,-1,47
 151 1297 151 1297 126 1297 c 0,48,49
 102 1297 102 1297 89.5 1311 c 128,-1,50
 77 1325 77 1325 77 1346 c 0,51,52
 79 1368 79 1368 91.5 1382.5 c 128,-1,53
 104 1397 104 1397 126 1397 c 1,54,-1
 126 1397 l 1,42,43
445 1398 m 1,55,56
 470 1398 470 1398 480.5 1387 c 128,-1,57
 491 1376 491 1376 495 1347 c 0,58,59
 495 1329 495 1329 482.5 1313.5 c 128,-1,60
 470 1298 470 1298 445 1298 c 0,61,62
 421 1298 421 1298 408.5 1312 c 128,-1,63
 396 1326 396 1326 396 1347 c 0,64,65
 398 1369 398 1369 410.5 1383.5 c 128,-1,66
 423 1398 423 1398 445 1398 c 1,67,-1
 445 1398 l 1,55,56
EndSplineSet
EndChar

StartChar: dieresis
Encoding: 168 168 30
Width: 607
Flags: W
LayerCount: 2
Back
Fore
SplineSet
134 1530 m 1,0,1
 159 1530 159 1530 169.5 1519 c 128,-1,2
 180 1508 180 1508 184 1479 c 0,3,4
 184 1461 184 1461 171.5 1445.5 c 128,-1,5
 159 1430 159 1430 134 1430 c 0,6,7
 110 1430 110 1430 97.5 1444 c 128,-1,8
 85 1458 85 1458 85 1479 c 0,9,10
 87 1501 87 1501 99.5 1515.5 c 128,-1,11
 112 1530 112 1530 134 1530 c 1,12,-1
 134 1530 l 1,0,1
453 1531 m 1,13,14
 478 1531 478 1531 488.5 1520 c 128,-1,15
 499 1509 499 1509 503 1480 c 0,16,17
 503 1462 503 1462 490.5 1446.5 c 128,-1,18
 478 1431 478 1431 453 1431 c 0,19,20
 429 1431 429 1431 416.5 1445 c 128,-1,21
 404 1459 404 1459 404 1480 c 0,22,23
 406 1502 406 1502 418.5 1516.5 c 128,-1,24
 431 1531 431 1531 453 1531 c 1,25,-1
 453 1531 l 1,13,14
134 1530 m 1,26,27
 159 1530 159 1530 169.5 1519 c 128,-1,28
 180 1508 180 1508 184 1479 c 0,29,30
 184 1461 184 1461 171.5 1445.5 c 128,-1,31
 159 1430 159 1430 134 1430 c 0,32,33
 110 1430 110 1430 97.5 1444 c 128,-1,34
 85 1458 85 1458 85 1479 c 0,35,36
 87 1501 87 1501 99.5 1515.5 c 128,-1,37
 112 1530 112 1530 134 1530 c 1,38,-1
 134 1530 l 1,26,27
453 1531 m 1,39,40
 478 1531 478 1531 488.5 1520 c 128,-1,41
 499 1509 499 1509 503 1480 c 0,42,43
 503 1462 503 1462 490.5 1446.5 c 128,-1,44
 478 1431 478 1431 453 1431 c 0,45,46
 429 1431 429 1431 416.5 1445 c 128,-1,47
 404 1459 404 1459 404 1480 c 0,48,49
 406 1502 406 1502 418.5 1516.5 c 128,-1,50
 431 1531 431 1531 453 1531 c 1,51,-1
 453 1531 l 1,39,40
EndSplineSet
EndChar

StartChar: glyph31
Encoding: 65537 -1 31
Width: 1407
Flags: W
LayerCount: 2
Back
Fore
SplineSet
87 0 m 1,0,-1
 87 1407 l 1,1,-1
 1320 1407 l 1,2,-1
 1320 0 l 1,3,-1
 87 0 l 1,0,-1
1233 87 m 1,4,-1
 1233 1320 l 1,5,-1
 174 1320 l 1,6,-1
 174 87 l 1,7,-1
 1233 87 l 1,4,-1
EndSplineSet
EndChar

StartChar: glyph32
Encoding: 198 198 32
Width: 1212
Flags: W
LayerCount: 2
Back
Fore
SplineSet
610 700 m 1,0,-1
 610 101 l 1,1,-1
 1060 101 l 2,2,3
 1078 101 1078 101 1094 85 c 128,-1,4
 1110 69 1110 69 1110 51 c 256,5,6
 1110 33 1110 33 1097 17 c 128,-1,7
 1084 1 1084 1 1060 1 c 2,8,-1
 560 1 l 2,9,10
 556 1 556 1 552 1 c 256,11,12
 548 1 548 1 543 1 c 0,13,14
 527 1 527 1 514.5 9.5 c 128,-1,15
 502 18 502 18 484 34 c 1,16,-1
 484 397 l 1,17,-1
 280 397 l 1,18,-1
 182 34 l 2,19,20
 179 17 179 17 165.5 7 c 128,-1,21
 152 -3 152 -3 135 -3 c 0,22,23
 115 -3 115 -3 99.5 10.5 c 128,-1,24
 84 24 84 24 84 46 c 2,25,-1
 86 60 l 1,26,-1
 436 1350 l 2,27,28
 448 1395 448 1395 513 1401 c 0,29,30
 526 1401 526 1401 536.5 1401 c 128,-1,31
 547 1401 547 1401 560 1401 c 2,32,-1
 1060 1401 l 2,33,34
 1078 1401 1078 1401 1094 1385 c 128,-1,35
 1110 1369 1110 1369 1110 1351 c 256,36,37
 1110 1333 1110 1333 1097 1317 c 128,-1,38
 1084 1301 1084 1301 1060 1301 c 2,39,-1
 610 1301 l 1,40,-1
 610 800 l 1,41,-1
 860 800 l 2,42,43
 878 800 878 800 894 784 c 128,-1,44
 910 768 910 768 910 750 c 256,45,46
 910 732 910 732 897 716 c 128,-1,47
 884 700 884 700 860 700 c 2,48,-1
 610 700 l 1,0,-1
484 492 m 1,49,-1
 484 1156 l 1,50,-1
 307 497 l 1,51,-1
 484 492 l 1,49,-1
EndSplineSet
EndChar

StartChar: glyph33
Encoding: 216 216 33
Width: 1200
Flags: W
LayerCount: 2
Back
Fore
SplineSet
100 700 m 256,0,1
 100 769 100 769 118 833 c 128,-1,2
 136 897 136 897 168.5 952.5 c 128,-1,3
 201 1008 201 1008 246.5 1053.5 c 128,-1,4
 292 1099 292 1099 347.5 1131.5 c 128,-1,5
 403 1164 403 1164 467 1182 c 128,-1,6
 531 1200 531 1200 600 1200 c 0,7,8
 703 1200 703 1200 794.5 1160.5 c 128,-1,9
 886 1121 886 1121 953.5 1053.5 c 128,-1,10
 1021 986 1021 986 1060.5 894.5 c 128,-1,11
 1100 803 1100 803 1100 700 c 0,12,13
 1100 631 1100 631 1082 567 c 128,-1,14
 1064 503 1064 503 1031.5 447.5 c 128,-1,15
 999 392 999 392 953.5 346.5 c 128,-1,16
 908 301 908 301 852.5 268.5 c 128,-1,17
 797 236 797 236 733 218 c 128,-1,18
 669 200 669 200 600 200 c 256,19,20
 531 200 531 200 467 218 c 128,-1,21
 403 236 403 236 347.5 268.5 c 128,-1,22
 292 301 292 301 246.5 346.5 c 128,-1,23
 201 392 201 392 168.5 447.5 c 128,-1,24
 136 503 136 503 118 567 c 128,-1,25
 100 631 100 631 100 700 c 256,0,1
200 700 m 256,26,27
 200 617 200 617 231.5 544 c 128,-1,28
 263 471 263 471 317 417 c 128,-1,29
 371 363 371 363 444 331.5 c 128,-1,30
 517 300 517 300 600 300 c 256,31,32
 683 300 683 300 756 331.5 c 128,-1,33
 829 363 829 363 883 417 c 128,-1,34
 937 471 937 471 968.5 544 c 128,-1,35
 1000 617 1000 617 1000 700 c 256,36,37
 1000 783 1000 783 968.5 856 c 128,-1,38
 937 929 937 929 883 983 c 128,-1,39
 829 1037 829 1037 756 1068.5 c 128,-1,40
 683 1100 683 1100 600 1100 c 256,41,42
 517 1100 517 1100 444 1068.5 c 128,-1,43
 371 1037 371 1037 317 983 c 128,-1,44
 263 929 263 929 231.5 856 c 128,-1,45
 200 783 200 783 200 700 c 256,26,27
175 56 m 1,46,-1
 955 1406 l 1,47,-1
 1065 1350 l 1,48,-1
 283 0 l 1,49,-1
 175 56 l 1,46,-1
EndSplineSet
EndChar

StartChar: glyph34
Encoding: 230 230 34
Width: 1382
Flags: W
LayerCount: 2
Back
Fore
SplineSet
265 903 m 1,0,1
 189 893 189 893 194.5 950.5 c 128,-1,2
 200 1008 200 1008 265 1003 c 1,3,-1
 617 1008 l 1,4,5
 721 1000 721 1000 709 930 c 1,6,7
 777 1001 777 1001 842 1001 c 2,8,-1
 1043 1001 l 2,9,10
 1127 1001 1127 1001 1185 943 c 128,-1,11
 1243 885 1243 885 1243 801 c 2,12,-1
 1243 502 l 2,13,14
 1243 452 1243 452 1192 452 c 2,15,-1
 743 452 l 1,16,-1
 743 202 l 2,17,18
 743 160 743 160 772 131 c 128,-1,19
 801 102 801 102 842 102 c 2,20,-1
 1192 102 l 2,21,22
 1210 102 1210 102 1226 86 c 128,-1,23
 1242 70 1242 70 1242 52 c 256,24,25
 1242 34 1242 34 1229 18 c 128,-1,26
 1216 2 1216 2 1192 2 c 2,27,-1
 842 2 l 2,28,29
 823 2 823 2 805 5 c 0,30,31
 799 5 799 5 793 7 c 2,32,-1
 776 12 l 2,33,34
 774 12 774 12 772 13 c 0,35,36
 764 17 764 17 754.5 21 c 128,-1,37
 745 25 745 25 738 30 c 0,38,39
 727 35 727 35 710 51 c 0,40,41
 705 55 705 55 701 60 c 0,42,43
 694 66 694 66 689 73 c 0,44,45
 688 75 688 75 687 76 c 1,46,47
 620 0 620 0 529 0 c 2,48,-1
 329 0 l 2,49,50
 245 0 245 0 187 58 c 128,-1,51
 129 116 129 116 129 200 c 2,52,-1
 129 334 l 2,53,54
 130 375 130 375 152 414.5 c 128,-1,55
 174 454 174 454 214.5 484.5 c 128,-1,56
 255 515 255 515 313 533 c 128,-1,57
 371 551 371 551 444 550 c 0,58,59
 459 550 459 550 479 550 c 0,60,61
 500 550 500 550 524 550 c 0,62,63
 549 550 549 550 575 550.5 c 128,-1,64
 601 551 601 551 627 551 c 1,65,66
 627 601 627 601 627 625 c 256,67,68
 627 649 627 649 627 660 c 256,69,70
 627 671 627 671 627.5 675.5 c 128,-1,71
 628 680 628 680 628 691 c 256,72,73
 628 702 628 702 628 726 c 256,74,75
 628 750 628 750 628 800 c 1,76,77
 623 834 623 834 610 853 c 128,-1,78
 597 872 597 872 580 882 c 128,-1,79
 563 892 563 892 542.5 895 c 128,-1,80
 522 898 522 898 501 900 c 2,81,-1
 265 903 l 1,82,-1
 265 903 l 1,0,1
743 551 m 1,83,-1
 1143 551 l 1,84,-1
 1143 801 l 2,85,86
 1143 843 1143 843 1114 872 c 128,-1,87
 1085 901 1085 901 1043 901 c 2,88,-1
 842 901 l 2,89,90
 801 901 801 901 772 872 c 128,-1,91
 743 843 743 843 743 801 c 2,92,-1
 743 551 l 1,83,-1
624 452 m 1,93,94
 578 451 578 451 534.5 451.5 c 128,-1,95
 491 452 491 452 446 452 c 0,96,97
 404 452 404 452 366 444 c 128,-1,98
 328 436 328 436 298.5 419.5 c 128,-1,99
 269 403 269 403 250.5 377.5 c 128,-1,100
 232 352 232 352 228 316 c 1,101,-1
 229 200 l 2,102,103
 229 158 229 158 258 129 c 128,-1,104
 287 100 287 100 329 100 c 2,105,-1
 529 100 l 2,106,107
 571 100 571 100 600 129 c 128,-1,108
 629 158 629 158 625 190 c 2,109,-1
 624 452 l 1,93,94
EndSplineSet
EndChar

StartChar: glyph35
Encoding: 248 248 35
Width: 1200
Flags: W
LayerCount: 2
Back
Fore
SplineSet
100 700 m 256,0,1
 100 769 100 769 118 833 c 128,-1,2
 136 897 136 897 168.5 952.5 c 128,-1,3
 201 1008 201 1008 246.5 1053.5 c 128,-1,4
 292 1099 292 1099 347.5 1131.5 c 128,-1,5
 403 1164 403 1164 467 1182 c 128,-1,6
 531 1200 531 1200 600 1200 c 0,7,8
 703 1200 703 1200 794.5 1160.5 c 128,-1,9
 886 1121 886 1121 953.5 1053.5 c 128,-1,10
 1021 986 1021 986 1060.5 894.5 c 128,-1,11
 1100 803 1100 803 1100 700 c 0,12,13
 1100 631 1100 631 1082 567 c 128,-1,14
 1064 503 1064 503 1031.5 447.5 c 128,-1,15
 999 392 999 392 953.5 346.5 c 128,-1,16
 908 301 908 301 852.5 268.5 c 128,-1,17
 797 236 797 236 733 218 c 128,-1,18
 669 200 669 200 600 200 c 256,19,20
 531 200 531 200 467 218 c 128,-1,21
 403 236 403 236 347.5 268.5 c 128,-1,22
 292 301 292 301 246.5 346.5 c 128,-1,23
 201 392 201 392 168.5 447.5 c 128,-1,24
 136 503 136 503 118 567 c 128,-1,25
 100 631 100 631 100 700 c 256,0,1
200 700 m 256,26,27
 200 617 200 617 231.5 544 c 128,-1,28
 263 471 263 471 317 417 c 128,-1,29
 371 363 371 363 444 331.5 c 128,-1,30
 517 300 517 300 600 300 c 256,31,32
 683 300 683 300 756 331.5 c 128,-1,33
 829 363 829 363 883 417 c 128,-1,34
 937 471 937 471 968.5 544 c 128,-1,35
 1000 617 1000 617 1000 700 c 256,36,37
 1000 783 1000 783 968.5 856 c 128,-1,38
 937 929 937 929 883 983 c 128,-1,39
 829 1037 829 1037 756 1068.5 c 128,-1,40
 683 1100 683 1100 600 1100 c 256,41,42
 517 1100 517 1100 444 1068.5 c 128,-1,43
 371 1037 371 1037 317 983 c 128,-1,44
 263 929 263 929 231.5 856 c 128,-1,45
 200 783 200 783 200 700 c 256,26,27
175 56 m 1,46,-1
 955 1406 l 1,47,-1
 1065 1350 l 1,48,-1
 283 0 l 1,49,-1
 175 56 l 1,46,-1
EndSplineSet
EndChar

StartChar: glyph38
Encoding: 247 247 38
Width: 1093
Flags: W
LayerCount: 2
Back
Fore
SplineSet
550 1102 m 0,0,1
 573 1102 573 1102 594 1081.5 c 128,-1,2
 615 1061 615 1061 615 1038 c 0,3,4
 615 1016 615 1016 598 995.5 c 128,-1,5
 581 975 581 975 550 975 c 0,6,7
 520 975 520 975 502 993 c 0,8,9
 485 1013 485 1013 485 1038 c 0,10,11
 485 1055 485 1055 501 1078.5 c 128,-1,12
 517 1102 517 1102 550 1102 c 0,0,1
550 404 m 0,13,14
 573 404 573 404 594 383.5 c 128,-1,15
 615 363 615 363 615 340 c 256,16,17
 615 317 615 317 598 296.5 c 128,-1,18
 581 276 581 276 550 276 c 0,19,20
 520 276 520 276 502 294 c 0,21,22
 485 314 485 314 485 340 c 0,23,24
 485 357 485 357 501 380.5 c 128,-1,25
 517 404 517 404 550 404 c 0,13,14
961 661 m 2,26,-1
 154 667 l 2,27,28
 128 667 128 667 112 682 c 0,29,30
 98 699 98 699 98 721 c 0,31,32
 98 732 98 732 112 753 c 128,-1,33
 126 774 126 774 154 774 c 2,34,-1
 961 768 l 2,35,36
 982 768 982 768 1000 750.5 c 128,-1,37
 1018 733 1018 733 1018 714 c 256,38,39
 1018 695 1018 695 1003 678 c 128,-1,40
 988 661 988 661 961 661 c 2,26,-1
EndSplineSet
EndChar

StartChar: cedilla
Encoding: 184 184 54
Width: 574
Flags: W
LayerCount: 2
Back
Fore
SplineSet
364 164 m 1,0,1
 377 186 377 186 396.5 189.5 c 128,-1,2
 416 193 416 193 432.5 184 c 128,-1,3
 449 175 449 175 456 155.5 c 128,-1,4
 463 136 463 136 450 114 c 2,5,-1
 247 -238 l 2,6,7
 234 -261 234 -261 214.5 -264 c 128,-1,8
 195 -267 195 -267 178.5 -258 c 128,-1,9
 162 -249 162 -249 155 -230 c 128,-1,10
 148 -211 148 -211 161 -188 c 2,11,-1
 364 164 l 1,12,-1
 364 164 l 1,0,1
EndSplineSet
EndChar

StartChar: glyph55
Encoding: 208 208 55
Width: 974
Flags: W
LayerCount: 2
Back
Fore
SplineSet
875 300 m 2,0,1
 875 177 875 177 787 88.5 c 128,-1,2
 699 0 699 0 574 0 c 2,3,-1
 224 0 l 2,4,5
 174 0 174 0 174 50 c 2,6,-1
 174 656 l 1,7,-1
 107 656 l 2,8,9
 92 656 92 656 83 667 c 0,10,11
 74 680 74 680 74 695 c 0,12,13
 74 703 74 703 80 717.5 c 128,-1,14
 86 732 86 732 99 734 c 2,15,-1
 174 734 l 1,16,-1
 174 1350 l 2,17,18
 174 1400 174 1400 224 1400 c 2,19,-1
 574 1400 l 2,20,21
 697 1400 697 1400 786 1312.5 c 128,-1,22
 875 1225 875 1225 875 1100 c 2,23,-1
 875 300 l 2,0,1
495 656 m 2,24,-1
 274 656 l 1,25,-1
 274 100 l 1,26,-1
 574 100 l 2,27,28
 655 100 655 100 715 157 c 128,-1,29
 775 214 775 214 775 300 c 2,30,-1
 775 1100 l 2,31,32
 775 1182 775 1182 716 1241 c 128,-1,33
 657 1300 657 1300 574 1300 c 2,34,-1
 274 1300 l 1,35,-1
 274 734 l 1,36,-1
 497 734 l 2,37,38
 507 733 507 733 517 721 c 128,-1,39
 527 709 527 709 527 695 c 256,40,41
 527 681 527 681 519 668.5 c 128,-1,42
 511 656 511 656 495 656 c 2,24,-1
EndSplineSet
EndChar

StartChar: glyph56
Encoding: 240 240 56
Width: 827
Flags: W
LayerCount: 2
Back
Fore
SplineSet
712 191 m 2,0,1
 712 107 712 107 654 49 c 128,-1,2
 596 -9 596 -9 512 -9 c 2,3,-1
 312 -9 l 2,4,5
 228 -9 228 -9 170 49 c 128,-1,6
 112 107 112 107 112 191 c 2,7,-1
 118 717 l 2,8,9
 118 792 118 792 175 854.5 c 128,-1,10
 232 917 232 917 318 917 c 2,11,-1
 493 917 l 1,12,-1
 508 914 l 1,13,-1
 332 1130 l 1,14,-1
 211 1049 l 2,15,16
 190 1034 190 1034 170.5 1039.5 c 128,-1,17
 151 1045 151 1045 140.5 1060.5 c 128,-1,18
 130 1076 130 1076 132 1096 c 128,-1,19
 134 1116 134 1116 155 1131 c 2,20,-1
 273 1210 l 1,21,-1
 178 1325 l 2,22,23
 163 1346 163 1346 168 1365.5 c 128,-1,24
 173 1385 173 1385 188 1396 c 128,-1,25
 203 1407 203 1407 223 1405.5 c 128,-1,26
 243 1404 243 1404 258 1383 c 2,27,-1
 355 1266 l 1,28,-1
 474 1348 l 2,29,30
 495 1363 495 1363 514.5 1357.5 c 128,-1,31
 534 1352 534 1352 544.5 1336.5 c 128,-1,32
 555 1321 555 1321 553 1301 c 128,-1,33
 551 1281 551 1281 530 1266 c 2,34,-1
 414 1186 l 1,35,36
 441 1150 441 1150 473 1112 c 128,-1,37
 505 1074 505 1074 538 1036.5 c 128,-1,38
 571 999 571 999 601.5 963 c 128,-1,39
 632 927 632 927 656.5 896.5 c 128,-1,40
 681 866 681 866 695.5 842 c 128,-1,41
 710 818 710 818 711 804 c 1,42,43
 718 787 718 787 717.5 765.5 c 128,-1,44
 717 744 717 744 718 717 c 2,45,-1
 712 191 l 2,0,1
612 191 m 2,46,-1
 618 717 l 2,47,48
 618 759 618 759 589 788 c 128,-1,49
 560 817 560 817 518 817 c 2,50,-1
 318 817 l 2,51,52
 276 817 276 817 247 788 c 128,-1,53
 218 759 218 759 218 717 c 2,54,-1
 212 191 l 2,55,56
 212 149 212 149 241 120 c 128,-1,57
 270 91 270 91 312 91 c 2,58,-1
 512 91 l 2,59,60
 554 91 554 91 583 120 c 128,-1,61
 612 149 612 149 612 191 c 2,46,-1
EndSplineSet
EndChar

StartChar: glyph59
Encoding: 222 222 59
Width: 900
Flags: W
LayerCount: 2
Back
Fore
SplineSet
200 441 m 1,0,-1
 500 441 l 2,1,2
 581 441 581 441 641 498 c 128,-1,3
 701 555 701 555 701 639 c 2,4,-1
 701 840 l 2,5,6
 701 921 701 921 642 980 c 128,-1,7
 583 1039 583 1039 500 1039 c 2,8,-1
 200 1039 l 1,9,-1
 200 441 l 1,0,-1
200 341 m 1,10,-1
 200 51 l 2,11,12
 200 27 200 27 186 13 c 0,13,14
 172 1 172 1 150 1 c 0,15,16
 141 1 141 1 115 13 c 1,17,18
 100 25 100 25 100 51 c 2,19,-1
 98 1077 l 2,20,21
 98 1189 98 1189 97.5 1301 c 128,-1,22
 97 1413 97 1413 97 1525 c 1,23,24
 104 1542 104 1542 117.5 1550.5 c 128,-1,25
 131 1559 131 1559 146 1559.5 c 128,-1,26
 161 1560 161 1560 174.5 1551.5 c 128,-1,27
 188 1543 188 1543 196 1525 c 1,28,-1
 198 1142 l 1,29,-1
 500 1139 l 2,30,31
 623 1139 623 1139 713 1052 c 0,32,33
 757 1010 757 1010 779 956 c 1,34,-1
 794 903 l 1,35,-1
 799 871 l 1,36,-1
 801 840 l 1,37,-1
 801 639 l 2,38,39
 801 516 801 516 713.5 428.5 c 128,-1,40
 626 341 626 341 500 341 c 2,41,-1
 200 341 l 1,10,-1
EndSplineSet
EndChar

StartChar: glyph60
Encoding: 254 254 60
Width: 800
Flags: W
LayerCount: 2
Back
Fore
SplineSet
200 99 m 1,0,-1
 501 99 l 2,1,2
 540 99 540 99 570 129 c 128,-1,3
 600 159 600 159 600 200 c 2,4,-1
 600 801 l 2,5,6
 600 842 600 842 571 871 c 128,-1,7
 542 900 542 900 501 900 c 2,8,-1
 200 900 l 1,9,-1
 200 99 l 1,0,-1
200 -1 m 1,10,-1
 200 -350 l 2,11,12
 200 -368 200 -368 184 -384 c 128,-1,13
 168 -400 168 -400 150 -400 c 256,14,15
 132 -400 132 -400 116 -387 c 128,-1,16
 100 -374 100 -374 100 -350 c 2,17,-1
 100 951 l 2,18,19
 100 1021 100 1021 100 1060 c 256,20,21
 100 1099 100 1099 100.5 1122 c 128,-1,22
 101 1145 101 1145 101 1160 c 256,23,24
 101 1175 101 1175 101.5 1198 c 128,-1,25
 102 1221 102 1221 102 1259 c 0,26,27
 102 1298 102 1298 102 1369 c 1,28,29
 115 1389 115 1389 131 1395.5 c 128,-1,30
 147 1402 147 1402 162 1400 c 128,-1,31
 177 1398 177 1398 189.5 1389 c 128,-1,32
 202 1380 202 1380 207 1369 c 1,33,-1
 198 998 l 1,34,-1
 501 1000 l 2,35,36
 582 1000 582 1000 641 942.5 c 128,-1,37
 700 885 700 885 700 801 c 2,38,-1
 700 200 l 2,39,40
 700 117 700 117 642.5 58 c 128,-1,41
 585 -1 585 -1 501 -1 c 2,42,-1
 200 -1 l 1,10,-1
EndSplineSet
EndChar

StartChar: glyph61
Encoding: 215 215 61
Width: 951
Flags: W
LayerCount: 2
Back
Fore
SplineSet
553 710 m 1,0,-1
 830 419 l 1,1,2
 847 409 847 409 846.5 386.5 c 128,-1,3
 846 364 846 364 833 351 c 0,4,5
 820 339 820 339 799.5 337 c 128,-1,6
 779 335 779 335 762 352 c 2,7,-1
 480 638 l 1,8,-1
 197 359 l 1,9,10
 175 346 175 346 156 347 c 256,11,12
 137 348 137 348 122 364 c 0,13,14
 116 370 116 370 106 397 c 1,15,16
 104 417 104 417 123 435 c 2,17,-1
 412 709 l 1,18,-1
 140 995 l 2,19,20
 122 1010 122 1010 122 1030 c 0,21,22
 125 1051 125 1051 139 1065 c 0,23,24
 147 1072 147 1072 169.5 1077 c 128,-1,25
 192 1082 192 1082 210 1064 c 2,26,-1
 487 778 l 1,27,-1
 774 1056 l 2,28,29
 784 1068 784 1068 807 1069.5 c 128,-1,30
 830 1071 830 1071 843 1056 c 0,31,32
 856 1043 856 1043 858 1022.5 c 128,-1,33
 860 1002 860 1002 842 986 c 2,34,-1
 553 710 l 1,0,-1
EndSplineSet
EndChar

StartChar: angle
Encoding: 8736 8736 62
AltUni2: 00e707.ffffffff.0
Width: 2740
Flags: W
LayerCount: 2
Back
Fore
SplineSet
2300 100 m 1,0,-1
 2300 0 l 1,1,-1
 133 0 l 1,2,-1
 100 122 l 1,3,-1
 2219 1400 l 1,4,-1
 2300 1323 l 1,5,-1
 271 100 l 1,6,-1
 2300 100 l 1,0,-1
EndSplineSet
EndChar

StartChar: uni2330
Encoding: 9008 9008 63
AltUni2: 00e70d.ffffffff.0
Width: 4450
Flags: W
LayerCount: 2
Back
Fore
SplineSet
2259 -203 m 1,0,-1
 3439 971 l 1,1,-1
 3168 1030 l 1,2,-1
 4180 1636 l 1,3,-1
 3548 650 l 1,4,-1
 3502 904 l 1,5,-1
 2284 -303 l 1,6,-1
 221 -303 l 1,7,-1
 179 -216 l 1,8,-1
 1351 956 l 1,9,-1
 1080 1015 l 1,10,-1
 2092 1621 l 1,11,-1
 1460 635 l 1,12,-1
 1414 889 l 1,13,-1
 327 -203 l 1,14,-1
 2259 -203 l 1,0,-1
EndSplineSet
EndChar

StartChar: uniE700
Encoding: 59136 59136 64
Width: 2400
Flags: W
LayerCount: 2
Back
Fore
SplineSet
100 750 m 1,0,-1
 2300 750 l 1,1,-1
 2300 650 l 1,2,-1
 100 650 l 1,3,-1
 100 750 l 1,0,-1
EndSplineSet
EndChar

StartChar: uniE701
Encoding: 59137 59137 65
Width: 3109
Flags: W
LayerCount: 2
Back
Fore
SplineSet
2128 100 m 1,0,-1
 2819 1300 l 1,1,-1
 979 1300 l 1,2,-1
 285 100 l 1,3,-1
 2128 100 l 1,0,-1
100 0 m 1,4,-1
 907 1400 l 1,5,-1
 3009 1400 l 1,6,-1
 2199 0 l 1,7,-1
 100 0 l 1,4,-1
EndSplineSet
EndChar

StartChar: uniE702
Encoding: 59138 59138 66
Width: 3138
Flags: W
LayerCount: 2
Back
Fore
SplineSet
100 700 m 256,0,1
 100 852 100 852 139.5 992.5 c 128,-1,2
 179 1133 179 1133 250.5 1255 c 128,-1,3
 322 1377 322 1377 422.5 1477.5 c 128,-1,4
 523 1578 523 1578 645 1649.5 c 128,-1,5
 767 1721 767 1721 907.5 1760.5 c 128,-1,6
 1048 1800 1048 1800 1200 1800 c 256,7,8
 1352 1800 1352 1800 1492.5 1760.5 c 128,-1,9
 1633 1721 1633 1721 1755 1649.5 c 128,-1,10
 1877 1578 1877 1578 1977.5 1477.5 c 128,-1,11
 2078 1377 2078 1377 2149.5 1255 c 128,-1,12
 2221 1133 2221 1133 2260.5 992.5 c 128,-1,13
 2300 852 2300 852 2300 700 c 256,14,15
 2300 548 2300 548 2260.5 407.5 c 128,-1,16
 2221 267 2221 267 2149.5 145 c 128,-1,17
 2078 23 2078 23 1977.5 -77.5 c 128,-1,18
 1877 -178 1877 -178 1755 -249.5 c 128,-1,19
 1633 -321 1633 -321 1492.5 -360.5 c 128,-1,20
 1352 -400 1352 -400 1200 -400 c 256,21,22
 1048 -400 1048 -400 907.5 -360.5 c 128,-1,23
 767 -321 767 -321 645 -249.5 c 128,-1,24
 523 -178 523 -178 422.5 -77.5 c 128,-1,25
 322 23 322 23 250.5 145 c 128,-1,26
 179 267 179 267 139.5 407.5 c 128,-1,27
 100 548 100 548 100 700 c 256,0,1
200 700 m 256,28,29
 200 562 200 562 235.5 434.5 c 128,-1,30
 271 307 271 307 336.5 195.5 c 128,-1,31
 402 84 402 84 493 -7 c 128,-1,32
 584 -98 584 -98 695.5 -163.5 c 128,-1,33
 807 -229 807 -229 934.5 -264.5 c 128,-1,34
 1062 -300 1062 -300 1200 -300 c 256,35,36
 1338 -300 1338 -300 1465.5 -264.5 c 128,-1,37
 1593 -229 1593 -229 1704.5 -163.5 c 128,-1,38
 1816 -98 1816 -98 1907 -7 c 128,-1,39
 1998 84 1998 84 2063.5 195.5 c 128,-1,40
 2129 307 2129 307 2164.5 434.5 c 128,-1,41
 2200 562 2200 562 2200 700 c 256,42,43
 2200 838 2200 838 2164.5 965.5 c 128,-1,44
 2129 1093 2129 1093 2063.5 1204.5 c 128,-1,45
 1998 1316 1998 1316 1907 1407 c 128,-1,46
 1816 1498 1816 1498 1704.5 1563.5 c 128,-1,47
 1593 1629 1593 1629 1465.5 1664.5 c 128,-1,48
 1338 1700 1338 1700 1200 1700 c 256,49,50
 1062 1700 1062 1700 934.5 1664.5 c 128,-1,51
 807 1629 807 1629 695.5 1563.5 c 128,-1,52
 584 1498 584 1498 493 1407 c 128,-1,53
 402 1316 402 1316 336.5 1204.5 c 128,-1,54
 271 1093 271 1093 235.5 965.5 c 128,-1,55
 200 838 200 838 200 700 c 256,28,29
EndSplineSet
EndChar

StartChar: uniE703
Encoding: 59139 59139 67
Width: 3249
Flags: W
LayerCount: 2
Back
Fore
SplineSet
173 -400 m 1,0,-1
 75 -338 l 1,1,-1
 1305 1800 l 1,2,-1
 1404 1738 l 1,3,-1
 173 -400 l 1,0,-1
1021 702 m 256,4,5
 1021 578 1021 578 1068 468.5 c 128,-1,6
 1115 359 1115 359 1196.5 277.5 c 128,-1,7
 1278 196 1278 196 1387.5 149 c 128,-1,8
 1497 102 1497 102 1621 102 c 256,9,10
 1745 102 1745 102 1854.5 149 c 128,-1,11
 1964 196 1964 196 2045.5 277.5 c 128,-1,12
 2127 359 2127 359 2174 468.5 c 128,-1,13
 2221 578 2221 578 2221 702 c 256,14,15
 2221 826 2221 826 2174 935.5 c 128,-1,16
 2127 1045 2127 1045 2045.5 1126.5 c 128,-1,17
 1964 1208 1964 1208 1854.5 1255 c 128,-1,18
 1745 1302 1745 1302 1621 1302 c 256,19,20
 1497 1302 1497 1302 1387.5 1255 c 128,-1,21
 1278 1208 1278 1208 1196.5 1126.5 c 128,-1,22
 1115 1045 1115 1045 1068 935.5 c 128,-1,23
 1021 826 1021 826 1021 702 c 256,4,5
921 702 m 256,24,25
 921 798 921 798 946 887.5 c 128,-1,26
 971 977 971 977 1016.5 1055 c 128,-1,27
 1062 1133 1062 1133 1126 1197 c 128,-1,28
 1190 1261 1190 1261 1268 1306.5 c 128,-1,29
 1346 1352 1346 1352 1435 1377 c 128,-1,30
 1524 1402 1524 1402 1621 1402 c 0,31,32
 1717 1402 1717 1402 1806.5 1377 c 128,-1,33
 1896 1352 1896 1352 1974 1306.5 c 128,-1,34
 2052 1261 2052 1261 2116 1197 c 128,-1,35
 2180 1133 2180 1133 2225.5 1055 c 128,-1,36
 2271 977 2271 977 2296 887.5 c 128,-1,37
 2321 798 2321 798 2321 702 c 0,38,39
 2321 605 2321 605 2296 516 c 128,-1,40
 2271 427 2271 427 2225.5 349 c 128,-1,41
 2180 271 2180 271 2116 207 c 128,-1,42
 2052 143 2052 143 1974 97.5 c 128,-1,43
 1896 52 1896 52 1806.5 27 c 128,-1,44
 1717 2 1717 2 1621 2 c 0,45,46
 1524 2 1524 2 1435 27 c 128,-1,47
 1346 52 1346 52 1268 97.5 c 128,-1,48
 1190 143 1190 143 1126 207 c 128,-1,49
 1062 271 1062 271 1016.5 349 c 128,-1,50
 971 427 971 427 946 516.5 c 128,-1,51
 921 606 921 606 921 702 c 256,24,25
1934 -398 m 1,52,-1
 1836 -336 l 1,53,-1
 3066 1802 l 1,54,-1
 3165 1740 l 1,55,-1
 1934 -398 l 1,52,-1
EndSplineSet
EndChar

StartChar: uniE704
Encoding: 59140 59140 68
Width: 2400
Flags: W
LayerCount: 2
Back
Fore
SplineSet
100 1200 m 1,0,-1
 2300 1200 l 1,1,-1
 2300 1100 l 1,2,-1
 100 1100 l 1,3,-1
 100 1200 l 1,0,-1
100 300 m 1,4,-1
 2300 300 l 1,5,-1
 2300 200 l 1,6,-1
 100 200 l 1,7,-1
 100 300 l 1,4,-1
EndSplineSet
EndChar

StartChar: uniE705
Encoding: 59141 59141 69
Width: 2601
Flags: W
LayerCount: 2
Back
Fore
SplineSet
173 -400 m 1,0,-1
 75 -338 l 1,1,-1
 1305 1800 l 1,2,-1
 1404 1738 l 1,3,-1
 173 -400 l 1,0,-1
1387 -398 m 1,4,-1
 1289 -336 l 1,5,-1
 2519 1802 l 1,6,-1
 2618 1740 l 1,7,-1
 1387 -398 l 1,4,-1
EndSplineSet
EndChar

StartChar: uniE706
Encoding: 59142 59142 70
Width: 2400
Flags: W
LayerCount: 2
Back
Fore
SplineSet
1250 1800 m 1,0,-1
 1250 -300 l 1,1,-1
 2300 -300 l 1,2,-1
 2300 -400 l 1,3,-1
 100 -400 l 1,4,-1
 100 -300 l 1,5,-1
 1150 -300 l 1,6,-1
 1150 1800 l 1,7,-1
 1250 1800 l 1,0,-1
EndSplineSet
EndChar

StartChar: uniE708
Encoding: 59144 59144 71
Width: 2400
Flags: W
LayerCount: 2
Back
Fore
SplineSet
100 700 m 256,0,1
 100 852 100 852 139.5 992.5 c 128,-1,2
 179 1133 179 1133 250.5 1255 c 128,-1,3
 322 1377 322 1377 422.5 1477.5 c 128,-1,4
 523 1578 523 1578 645 1649.5 c 128,-1,5
 767 1721 767 1721 907.5 1760.5 c 128,-1,6
 1048 1800 1048 1800 1200 1800 c 256,7,8
 1352 1800 1352 1800 1492.5 1760.5 c 128,-1,9
 1633 1721 1633 1721 1755 1649.5 c 128,-1,10
 1877 1578 1877 1578 1977.5 1477.5 c 128,-1,11
 2078 1377 2078 1377 2149.5 1255 c 128,-1,12
 2221 1133 2221 1133 2260.5 992.5 c 128,-1,13
 2300 852 2300 852 2300 700 c 256,14,15
 2300 548 2300 548 2260.5 407.5 c 128,-1,16
 2221 267 2221 267 2149.5 145 c 128,-1,17
 2078 23 2078 23 1977.5 -77.5 c 128,-1,18
 1877 -178 1877 -178 1755 -249.5 c 128,-1,19
 1633 -321 1633 -321 1492.5 -360.5 c 128,-1,20
 1352 -400 1352 -400 1200 -400 c 256,21,22
 1048 -400 1048 -400 907.5 -360.5 c 128,-1,23
 767 -321 767 -321 645 -249.5 c 128,-1,24
 523 -178 523 -178 422.5 -77.5 c 128,-1,25
 322 23 322 23 250.5 145 c 128,-1,26
 179 267 179 267 139.5 407.5 c 128,-1,27
 100 548 100 548 100 700 c 256,0,1
200 700 m 256,28,29
 200 562 200 562 235.5 434.5 c 128,-1,30
 271 307 271 307 336.5 195.5 c 128,-1,31
 402 84 402 84 493 -7 c 128,-1,32
 584 -98 584 -98 695.5 -163.5 c 128,-1,33
 807 -229 807 -229 934.5 -264.5 c 128,-1,34
 1062 -300 1062 -300 1200 -300 c 256,35,36
 1338 -300 1338 -300 1465.5 -264.5 c 128,-1,37
 1593 -229 1593 -229 1704.5 -163.5 c 128,-1,38
 1816 -98 1816 -98 1907 -7 c 128,-1,39
 1998 84 1998 84 2063.5 195.5 c 128,-1,40
 2129 307 2129 307 2164.5 434.5 c 128,-1,41
 2200 562 2200 562 2200 700 c 256,42,43
 2200 838 2200 838 2164.5 965.5 c 128,-1,44
 2129 1093 2129 1093 2063.5 1204.5 c 128,-1,45
 1998 1316 1998 1316 1907 1407 c 128,-1,46
 1816 1498 1816 1498 1704.5 1563.5 c 128,-1,47
 1593 1629 1593 1629 1465.5 1664.5 c 128,-1,48
 1338 1700 1338 1700 1200 1700 c 256,49,50
 1062 1700 1062 1700 934.5 1664.5 c 128,-1,51
 807 1629 807 1629 695.5 1563.5 c 128,-1,52
 584 1498 584 1498 493 1407 c 128,-1,53
 402 1316 402 1316 336.5 1204.5 c 128,-1,54
 271 1093 271 1093 235.5 965.5 c 128,-1,55
 200 838 200 838 200 700 c 256,28,29
500 700 m 256,56,57
 500 796 500 796 525 885.5 c 128,-1,58
 550 975 550 975 595.5 1053 c 128,-1,59
 641 1131 641 1131 705 1195 c 128,-1,60
 769 1259 769 1259 847 1304.5 c 128,-1,61
 925 1350 925 1350 1014 1375 c 128,-1,62
 1103 1400 1103 1400 1200 1400 c 0,63,64
 1296 1400 1296 1400 1385.5 1375 c 128,-1,65
 1475 1350 1475 1350 1553 1304.5 c 128,-1,66
 1631 1259 1631 1259 1695 1195 c 128,-1,67
 1759 1131 1759 1131 1804.5 1053 c 128,-1,68
 1850 975 1850 975 1875 885.5 c 128,-1,69
 1900 796 1900 796 1900 700 c 0,70,71
 1900 603 1900 603 1875 514 c 128,-1,72
 1850 425 1850 425 1804.5 347 c 128,-1,73
 1759 269 1759 269 1695 205 c 128,-1,74
 1631 141 1631 141 1553 95.5 c 128,-1,75
 1475 50 1475 50 1386 25 c 128,-1,76
 1297 0 1297 0 1200 0 c 256,77,78
 1103 0 1103 0 1014 25 c 128,-1,79
 925 50 925 50 847 95.5 c 128,-1,80
 769 141 769 141 705 205 c 128,-1,81
 641 269 641 269 595.5 347 c 128,-1,82
 550 425 550 425 525 514.5 c 128,-1,83
 500 604 500 604 500 700 c 256,56,57
600 700 m 256,84,85
 600 576 600 576 647 466.5 c 128,-1,86
 694 357 694 357 775.5 275.5 c 128,-1,87
 857 194 857 194 966.5 147 c 128,-1,88
 1076 100 1076 100 1200 100 c 256,89,90
 1324 100 1324 100 1433.5 147 c 128,-1,91
 1543 194 1543 194 1624.5 275.5 c 128,-1,92
 1706 357 1706 357 1753 466.5 c 128,-1,93
 1800 576 1800 576 1800 700 c 256,94,95
 1800 824 1800 824 1753 933.5 c 128,-1,96
 1706 1043 1706 1043 1624.5 1124.5 c 128,-1,97
 1543 1206 1543 1206 1433.5 1253 c 128,-1,98
 1324 1300 1324 1300 1200 1300 c 256,99,100
 1076 1300 1076 1300 966.5 1253 c 128,-1,101
 857 1206 857 1206 775.5 1124.5 c 128,-1,102
 694 1043 694 1043 647 933.5 c 128,-1,103
 600 824 600 824 600 700 c 256,84,85
EndSplineSet
EndChar

StartChar: uniE709
Encoding: 59145 59145 72
Width: 2400
Flags: W
LayerCount: 2
Back
Fore
SplineSet
100 750 m 1,0,-1
 2300 750 l 1,1,-1
 2300 650 l 1,2,-1
 100 650 l 1,3,-1
 100 750 l 1,0,-1
500 1200 m 1,4,-1
 1900 1200 l 1,5,-1
 1900 1100 l 1,6,-1
 500 1100 l 1,7,-1
 500 1200 l 1,4,-1
500 299 m 1,8,-1
 1900 299 l 1,9,-1
 1900 200 l 1,10,-1
 500 200 l 1,11,-1
 500 299 l 1,8,-1
EndSplineSet
EndChar

StartChar: uniE70A
Encoding: 59146 59146 73
Width: 2400
Flags: W
LayerCount: 2
Back
Fore
SplineSet
1250 1800 m 1,0,-1
 1250 750 l 1,1,-1
 2300 750 l 1,2,-1
 2300 650 l 1,3,-1
 1250 650 l 1,4,-1
 1250 -400 l 1,5,-1
 1150 -400 l 1,6,-1
 1150 650 l 1,7,-1
 100 650 l 1,8,-1
 100 750 l 1,9,-1
 1150 750 l 1,10,-1
 1150 1800 l 1,11,-1
 1250 1800 l 1,0,-1
500 700 m 256,12,13
 500 796 500 796 525 885.5 c 128,-1,14
 550 975 550 975 595.5 1053 c 128,-1,15
 641 1131 641 1131 705 1195 c 128,-1,16
 769 1259 769 1259 847 1304.5 c 128,-1,17
 925 1350 925 1350 1014 1375 c 128,-1,18
 1103 1400 1103 1400 1200 1400 c 0,19,20
 1296 1400 1296 1400 1385.5 1375 c 128,-1,21
 1475 1350 1475 1350 1553 1304.5 c 128,-1,22
 1631 1259 1631 1259 1695 1195 c 128,-1,23
 1759 1131 1759 1131 1804.5 1053 c 128,-1,24
 1850 975 1850 975 1875 885.5 c 128,-1,25
 1900 796 1900 796 1900 700 c 0,26,27
 1900 603 1900 603 1875 514 c 128,-1,28
 1850 425 1850 425 1804.5 347 c 128,-1,29
 1759 269 1759 269 1695 205 c 128,-1,30
 1631 141 1631 141 1553 95.5 c 128,-1,31
 1475 50 1475 50 1386 25 c 128,-1,32
 1297 0 1297 0 1200 0 c 256,33,34
 1103 0 1103 0 1014 25 c 128,-1,35
 925 50 925 50 847 95.5 c 128,-1,36
 769 141 769 141 705 205 c 128,-1,37
 641 269 641 269 595.5 347 c 128,-1,38
 550 425 550 425 525 514.5 c 128,-1,39
 500 604 500 604 500 700 c 256,12,13
600 700 m 256,40,41
 600 576 600 576 647 466.5 c 128,-1,42
 694 357 694 357 775.5 275.5 c 128,-1,43
 857 194 857 194 966.5 147 c 128,-1,44
 1076 100 1076 100 1200 100 c 256,45,46
 1324 100 1324 100 1433.5 147 c 128,-1,47
 1543 194 1543 194 1624.5 275.5 c 128,-1,48
 1706 357 1706 357 1753 466.5 c 128,-1,49
 1800 576 1800 576 1800 700 c 256,50,51
 1800 824 1800 824 1753 933.5 c 128,-1,52
 1706 1043 1706 1043 1624.5 1124.5 c 128,-1,53
 1543 1206 1543 1206 1433.5 1253 c 128,-1,54
 1324 1300 1324 1300 1200 1300 c 256,55,56
 1076 1300 1076 1300 966.5 1253 c 128,-1,57
 857 1206 857 1206 775.5 1124.5 c 128,-1,58
 694 1043 694 1043 647 933.5 c 128,-1,59
 600 824 600 824 600 700 c 256,40,41
EndSplineSet
EndChar

StartChar: uniE70B
Encoding: 59147 59147 74
Width: 1730
Flags: W
LayerCount: 2
Back
Fore
SplineSet
800 700 m 1,0,-1
 100 1400 l 1,1,-1
 228 1400 l 1,2,-1
 865 765 l 1,3,-1
 1499 1400 l 1,4,-1
 1631 1400 l 1,5,-1
 930 700 l 1,6,-1
 1632 0 l 1,7,-1
 1501 0 l 1,8,-1
 865 635 l 1,9,-1
 230 0 l 1,10,-1
 100 0 l 1,11,-1
 800 700 l 1,0,-1
EndSplineSet
EndChar

StartChar: uniE70C
Encoding: 59148 59148 75
Width: 2383
Flags: W
LayerCount: 2
Back
Fore
SplineSet
209 -322 m 1,0,-1
 146 -254 l 1,1,-1
 1356 953 l 1,2,-1
 1085 1012 l 1,3,-1
 2097 1618 l 1,4,-1
 1465 632 l 1,5,-1
 1419 886 l 1,6,-1
 209 -322 l 1,0,-1
EndSplineSet
EndChar

StartChar: uniE70E
Encoding: 59150 59150 76
Width: 3000
Flags: W
LayerCount: 2
Back
Fore
SplineSet
2800 96 m 2,0,1
 2800 231 2800 231 2755 372.5 c 128,-1,2
 2710 514 2710 514 2627.5 648 c 128,-1,3
 2545 782 2545 782 2428 900.5 c 128,-1,4
 2311 1019 2311 1019 2166.5 1108 c 128,-1,5
 2022 1197 2022 1197 1853.5 1248.5 c 128,-1,6
 1685 1300 1685 1300 1500 1300 c 0,7,8
 1326 1300 1326 1300 1162.5 1248.5 c 128,-1,9
 999 1197 999 1197 854.5 1108 c 128,-1,10
 710 1019 710 1019 589.5 900.5 c 128,-1,11
 469 782 469 782 382.5 648 c 128,-1,12
 296 514 296 514 248 372.5 c 128,-1,13
 200 231 200 231 200 96 c 2,14,-1
 200 0 l 1,15,-1
 100 0 l 1,16,-1
 100 96 l 2,17,18
 97 272 97 272 149.5 437.5 c 128,-1,19
 202 603 202 603 297 747.5 c 128,-1,20
 392 892 392 892 523.5 1012 c 128,-1,21
 655 1132 655 1132 811.5 1218.5 c 128,-1,22
 968 1305 968 1305 1143 1352.5 c 128,-1,23
 1318 1400 1318 1400 1500 1400 c 0,24,25
 1706 1400 1706 1400 1890.5 1347.5 c 128,-1,26
 2075 1295 2075 1295 2230.5 1202.5 c 128,-1,27
 2386 1110 2386 1110 2510 985 c 128,-1,28
 2634 860 2634 860 2720.5 715 c 128,-1,29
 2807 570 2807 570 2853.5 412 c 128,-1,30
 2900 254 2900 254 2900 96 c 2,31,-1
 2900 0 l 1,32,-1
 2800 0 l 1,33,-1
 2800 96 l 2,0,1
EndSplineSet
EndChar

StartChar: uniE70F
Encoding: 59151 59151 77
Width: 3000
Flags: W
LayerCount: 2
Back
Fore
SplineSet
100 100 m 2,0,1
 100 276 100 276 153 441 c 128,-1,2
 206 606 206 606 301 750.5 c 128,-1,3
 396 895 396 895 527 1014.5 c 128,-1,4
 658 1134 658 1134 813.5 1219.5 c 128,-1,5
 969 1305 969 1305 1143.5 1352.5 c 128,-1,6
 1318 1400 1318 1400 1500 1400 c 0,7,8
 1706 1400 1706 1400 1890.5 1347.5 c 128,-1,9
 2075 1295 2075 1295 2230.5 1203.5 c 128,-1,10
 2386 1112 2386 1112 2510 987 c 128,-1,11
 2634 862 2634 862 2720.5 717.5 c 128,-1,12
 2807 573 2807 573 2853.5 415.5 c 128,-1,13
 2900 258 2900 258 2900 100 c 2,14,-1
 2900 0 l 1,15,-1
 100 0 l 1,16,-1
 100 100 l 2,0,1
2800 96 m 1,17,18
 2800 231 2800 231 2755 372.5 c 128,-1,19
 2710 514 2710 514 2627.5 648 c 128,-1,20
 2545 782 2545 782 2428 900.5 c 128,-1,21
 2311 1019 2311 1019 2166.5 1108 c 128,-1,22
 2022 1197 2022 1197 1853.5 1248.5 c 128,-1,23
 1685 1300 1685 1300 1500 1300 c 0,24,25
 1326 1300 1326 1300 1162.5 1248.5 c 128,-1,26
 999 1197 999 1197 854.5 1108 c 128,-1,27
 710 1019 710 1019 589.5 900.5 c 128,-1,28
 469 782 469 782 382.5 648 c 128,-1,29
 296 514 296 514 248 372.5 c 128,-1,30
 200 231 200 231 200 96 c 1,31,-1
 2800 96 l 1,17,18
EndSplineSet
EndChar

StartChar: uniE710
Encoding: 59152 59152 78
Width: 2400
Flags: W
LayerCount: 2
Back
Fore
SplineSet
1651 53 m 2,0,1
 1651 29 1651 29 1637 15 c 0,2,3
 1623 3 1623 3 1601 3 c 0,4,5
 1592 3 1592 3 1566 15 c 1,6,7
 1551 27 1551 27 1551 53 c 2,8,-1
 1551 1176 l 1,9,-1
 1243 677 l 2,10,11
 1224 646 1224 646 1200 646 c 256,12,13
 1176 646 1176 646 1157 677 c 2,14,-1
 851 1175 l 1,15,-1
 851 53 l 2,16,17
 851 29 851 29 837 15 c 0,18,19
 823 3 823 3 801 3 c 0,20,21
 792 3 792 3 766 15 c 1,22,23
 751 27 751 27 751 53 c 2,24,-1
 751 1353 l 2,25,26
 751 1381 751 1381 764.5 1396 c 128,-1,27
 778 1411 778 1411 797 1411 c 0,28,29
 810 1411 810 1411 821 1404 c 0,30,31
 825 1403 825 1403 844 1379 c 2,32,-1
 1200 799 l 1,33,-1
 1558 1379 l 2,34,35
 1576 1411 1576 1411 1606 1411 c 0,36,37
 1624 1411 1624 1411 1637.5 1395 c 128,-1,38
 1651 1379 1651 1379 1651 1353 c 2,39,-1
 1651 53 l 2,0,1
100 700 m 256,40,41
 100 852 100 852 139.5 992.5 c 128,-1,42
 179 1133 179 1133 250.5 1255 c 128,-1,43
 322 1377 322 1377 422.5 1477.5 c 128,-1,44
 523 1578 523 1578 645 1649.5 c 128,-1,45
 767 1721 767 1721 907.5 1760.5 c 128,-1,46
 1048 1800 1048 1800 1200 1800 c 256,47,48
 1352 1800 1352 1800 1492.5 1760.5 c 128,-1,49
 1633 1721 1633 1721 1755 1649.5 c 128,-1,50
 1877 1578 1877 1578 1977.5 1477.5 c 128,-1,51
 2078 1377 2078 1377 2149.5 1255 c 128,-1,52
 2221 1133 2221 1133 2260.5 992.5 c 128,-1,53
 2300 852 2300 852 2300 700 c 256,54,55
 2300 548 2300 548 2260.5 407.5 c 128,-1,56
 2221 267 2221 267 2149.5 145 c 128,-1,57
 2078 23 2078 23 1977.5 -77.5 c 128,-1,58
 1877 -178 1877 -178 1755 -249.5 c 128,-1,59
 1633 -321 1633 -321 1492.5 -360.5 c 128,-1,60
 1352 -400 1352 -400 1200 -400 c 256,61,62
 1048 -400 1048 -400 907.5 -360.5 c 128,-1,63
 767 -321 767 -321 645 -249.5 c 128,-1,64
 523 -178 523 -178 422.5 -77.5 c 128,-1,65
 322 23 322 23 250.5 145 c 128,-1,66
 179 267 179 267 139.5 407.5 c 128,-1,67
 100 548 100 548 100 700 c 256,40,41
200 700 m 256,68,69
 200 562 200 562 235.5 434.5 c 128,-1,70
 271 307 271 307 336.5 195.5 c 128,-1,71
 402 84 402 84 493 -7 c 128,-1,72
 584 -98 584 -98 695.5 -163.5 c 128,-1,73
 807 -229 807 -229 934.5 -264.5 c 128,-1,74
 1062 -300 1062 -300 1200 -300 c 256,75,76
 1338 -300 1338 -300 1465.5 -264.5 c 128,-1,77
 1593 -229 1593 -229 1704.5 -163.5 c 128,-1,78
 1816 -98 1816 -98 1907 -7 c 128,-1,79
 1998 84 1998 84 2063.5 195.5 c 128,-1,80
 2129 307 2129 307 2164.5 434.5 c 128,-1,81
 2200 562 2200 562 2200 700 c 256,82,83
 2200 838 2200 838 2164.5 965.5 c 128,-1,84
 2129 1093 2129 1093 2063.5 1204.5 c 128,-1,85
 1998 1316 1998 1316 1907 1407 c 128,-1,86
 1816 1498 1816 1498 1704.5 1563.5 c 128,-1,87
 1593 1629 1593 1629 1465.5 1664.5 c 128,-1,88
 1338 1700 1338 1700 1200 1700 c 256,89,90
 1062 1700 1062 1700 934.5 1664.5 c 128,-1,91
 807 1629 807 1629 695.5 1563.5 c 128,-1,92
 584 1498 584 1498 493 1407 c 128,-1,93
 402 1316 402 1316 336.5 1204.5 c 128,-1,94
 271 1093 271 1093 235.5 965.5 c 128,-1,95
 200 838 200 838 200 700 c 256,68,69
EndSplineSet
EndChar

StartChar: uniE711
Encoding: 59153 59153 79
Width: 2400
Flags: W
LayerCount: 2
Back
Fore
SplineSet
1008 704 m 1,0,-1
 1308 704 l 2,1,2
 1389 704 1389 704 1449 761 c 128,-1,3
 1509 818 1509 818 1509 903 c 2,4,-1
 1509 1103 l 2,5,6
 1509 1185 1509 1185 1450 1244 c 128,-1,7
 1391 1303 1391 1303 1308 1303 c 2,8,-1
 1008 1303 l 1,9,-1
 1008 704 l 1,0,-1
1008 604 m 1,10,-1
 1008 53 l 2,11,12
 1008 29 1008 29 994 15 c 0,13,14
 980 3 980 3 958 3 c 0,15,16
 949 3 949 3 923 15 c 1,17,18
 908 27 908 27 908 53 c 2,19,-1
 908 1353 l 2,20,21
 908 1403 908 1403 958 1403 c 2,22,-1
 1308 1403 l 2,23,24
 1431 1403 1431 1403 1520 1315.5 c 128,-1,25
 1609 1228 1609 1228 1609 1103 c 2,26,-1
 1609 903 l 2,27,28
 1609 780 1609 780 1521 692 c 128,-1,29
 1433 604 1433 604 1308 604 c 2,30,-1
 1008 604 l 1,10,-1
200 700 m 256,31,32
 200 562 200 562 235.5 434.5 c 128,-1,33
 271 307 271 307 336.5 195.5 c 128,-1,34
 402 84 402 84 493 -7 c 128,-1,35
 584 -98 584 -98 695.5 -163.5 c 128,-1,36
 807 -229 807 -229 934.5 -264.5 c 128,-1,37
 1062 -300 1062 -300 1200 -300 c 256,38,39
 1338 -300 1338 -300 1465.5 -264.5 c 128,-1,40
 1593 -229 1593 -229 1704.5 -163.5 c 128,-1,41
 1816 -98 1816 -98 1907 -7 c 128,-1,42
 1998 84 1998 84 2063.5 195.5 c 128,-1,43
 2129 307 2129 307 2164.5 434.5 c 128,-1,44
 2200 562 2200 562 2200 700 c 256,45,46
 2200 838 2200 838 2164.5 965.5 c 128,-1,47
 2129 1093 2129 1093 2063.5 1204.5 c 128,-1,48
 1998 1316 1998 1316 1907 1407 c 128,-1,49
 1816 1498 1816 1498 1704.5 1563.5 c 128,-1,50
 1593 1629 1593 1629 1465.5 1664.5 c 128,-1,51
 1338 1700 1338 1700 1200 1700 c 256,52,53
 1062 1700 1062 1700 934.5 1664.5 c 128,-1,54
 807 1629 807 1629 695.5 1563.5 c 128,-1,55
 584 1498 584 1498 493 1407 c 128,-1,56
 402 1316 402 1316 336.5 1204.5 c 128,-1,57
 271 1093 271 1093 235.5 965.5 c 128,-1,58
 200 838 200 838 200 700 c 256,31,32
100 700 m 256,59,60
 100 852 100 852 139.5 992.5 c 128,-1,61
 179 1133 179 1133 250.5 1255 c 128,-1,62
 322 1377 322 1377 422.5 1477.5 c 128,-1,63
 523 1578 523 1578 645 1649.5 c 128,-1,64
 767 1721 767 1721 907.5 1760.5 c 128,-1,65
 1048 1800 1048 1800 1200 1800 c 256,66,67
 1352 1800 1352 1800 1492.5 1760.5 c 128,-1,68
 1633 1721 1633 1721 1755 1649.5 c 128,-1,69
 1877 1578 1877 1578 1977.5 1477.5 c 128,-1,70
 2078 1377 2078 1377 2149.5 1255 c 128,-1,71
 2221 1133 2221 1133 2260.5 992.5 c 128,-1,72
 2300 852 2300 852 2300 700 c 256,73,74
 2300 548 2300 548 2260.5 407.5 c 128,-1,75
 2221 267 2221 267 2149.5 145 c 128,-1,76
 2078 23 2078 23 1977.5 -77.5 c 128,-1,77
 1877 -178 1877 -178 1755 -249.5 c 128,-1,78
 1633 -321 1633 -321 1492.5 -360.5 c 128,-1,79
 1352 -400 1352 -400 1200 -400 c 256,80,81
 1048 -400 1048 -400 907.5 -360.5 c 128,-1,82
 767 -321 767 -321 645 -249.5 c 128,-1,83
 523 -178 523 -178 422.5 -77.5 c 128,-1,84
 322 23 322 23 250.5 145 c 128,-1,85
 179 267 179 267 139.5 407.5 c 128,-1,86
 100 548 100 548 100 700 c 256,59,60
EndSplineSet
EndChar

StartChar: infinity
Encoding: 8734 8734 80
AltUni2: 00e713.ffffffff.0
Width: 1553
Flags: W
LayerCount: 2
Back
Fore
SplineSet
786 770 m 1,0,1
 894 897 894 897 954 937 c 0,2,3
 1037 993 1037 993 1128 993 c 0,4,5
 1236 993 1236 993 1329.5 920 c 128,-1,6
 1423 847 1423 847 1423 682 c 0,7,8
 1423 569 1423 569 1386.5 503 c 128,-1,9
 1350 437 1350 437 1278 398 c 128,-1,10
 1206 359 1206 359 1128 359 c 0,11,12
 1037 359 1037 359 954 414 c 0,13,14
 894 456 894 456 786 584 c 1,15,16
 688 384 688 384 485 361 c 1,17,18
 400 356 400 356 329 387.5 c 128,-1,19
 258 419 258 419 202 483 c 128,-1,20
 146 547 146 547 146 663 c 0,21,22
 146 812 146 812 245 898.5 c 128,-1,23
 344 985 344 985 460 985 c 1,24,25
 564 990 564 990 663 923 c 0,26,27
 748 870 748 870 786 770 c 1,28,-1
 786 770 l 1,0,1
856 677 m 1,29,30
 947 547 947 547 1020 498 c 0,31,32
 1068 466 1068 466 1126 466 c 0,33,34
 1204 466 1204 466 1256.5 520.5 c 128,-1,35
 1309 575 1309 575 1309 674 c 0,36,37
 1309 776 1309 776 1255 830 c 128,-1,38
 1201 884 1201 884 1122 884 c 0,39,40
 1071 884 1071 884 1027 857 c 0,41,42
 967 820 967 820 856 677 c 1,43,-1
 856 677 l 1,29,30
716 676 m 1,44,45
 650 783 650 783 584 826.5 c 128,-1,46
 518 870 518 870 472 870 c 0,47,48
 374 876 374 876 319.5 806.5 c 128,-1,49
 265 737 265 737 265 668 c 256,50,51
 265 599 265 599 325.5 532.5 c 128,-1,52
 386 466 386 466 479 466 c 1,53,54
 619 494 619 494 716 676 c 1,55,-1
 716 676 l 1,44,45
EndSplineSet
EndChar

StartChar: uniE714
Encoding: 59156 59156 81
Width: 1894
Flags: W
LayerCount: 2
Back
Fore
SplineSet
1754 0 m 1,0,-1
 136 0 l 1,1,-1
 100 100 l 1,2,-1
 1695 996 l 1,3,-1
 1754 898 l 1,4,-1
 325 100 l 1,5,-1
 1754 100 l 1,6,-1
 1754 0 l 1,0,-1
EndSplineSet
EndChar

StartChar: uniE715
Encoding: 59157 59157 82
Width: 1845
Flags: W
LayerCount: 2
Back
Fore
SplineSet
100 100 m 1,0,-1
 1529 100 l 1,1,-1
 100 898 l 1,2,-1
 159 996 l 1,3,-1
 1754 100 l 1,4,-1
 1718 0 l 1,5,-1
 100 0 l 1,6,-1
 100 100 l 1,0,-1
EndSplineSet
EndChar

StartChar: uniE716
Encoding: 59158 59158 83
Width: 1800
Flags: W
LayerCount: 2
Back
Fore
SplineSet
1600 1401 m 1,0,-1
 1701 1332 l 1,1,-1
 1700 75 l 1,2,-1
 1600 0 l 1,3,-1
 100 620 l 1,4,-1
 100 792 l 1,5,-1
 1600 1401 l 1,0,-1
1600 128 m 1,6,-1
 1600 1273 l 1,7,-1
 193 700 l 1,8,-1
 1600 128 l 1,6,-1
EndSplineSet
EndChar

StartChar: uniE717
Encoding: 59159 59159 84
Width: 1800
Flags: W
LayerCount: 2
Back
Fore
SplineSet
1700 792 m 1,0,-1
 1700 620 l 1,1,-1
 200 0 l 1,2,-1
 100 75 l 1,3,-1
 99 1332 l 1,4,-1
 200 1401 l 1,5,-1
 1700 792 l 1,0,-1
1607 700 m 1,6,-1
 200 1273 l 1,7,-1
 200 128 l 1,8,-1
 1607 700 l 1,6,-1
EndSplineSet
EndChar

StartChar: uniE718
Encoding: 59160 59160 85
Width: 603
Flags: W
LayerCount: 2
Back
Fore
SplineSet
442 938 m 1,0,-1
 143 938 l 2,1,2
 134 938 134 938 125 946 c 0,3,4
 118 954 118 954 118 965 c 0,5,6
 118 972 118 972 122 977 c 2,7,-1
 396 1392 l 1,8,-1
 407 1412 l 1,9,-1
 414 1429 l 2,10,11
 420 1447 420 1447 420 1466 c 0,12,13
 420 1517 420 1517 379 1552 c 0,14,15
 361 1568 361 1568 336.5 1577.5 c 128,-1,16
 312 1587 312 1587 287 1587 c 0,17,18
 253 1587 253 1587 223 1568 c 128,-1,19
 193 1549 193 1549 175 1502 c 0,20,21
 172 1494 172 1494 166 1490 c 0,22,23
 161 1487 161 1487 152 1486 c 0,24,25
 142 1486 142 1486 134 1492.5 c 128,-1,26
 126 1499 126 1499 126 1510 c 2,27,-1
 128 1519 l 1,28,29
 149 1580 149 1580 193 1611 c 0,30,31
 233 1638 233 1638 285 1638 c 0,32,33
 356 1638 356 1638 413 1589 c 0,34,35
 472 1538 472 1538 472 1466 c 0,36,37
 472 1442 472 1442 464.5 1418.5 c 128,-1,38
 457 1395 457 1395 438 1364 c 2,39,-1
 190 988 l 1,40,-1
 442 988 l 2,41,42
 451 988 451 988 459 980 c 128,-1,43
 467 972 467 972 467 963 c 256,44,45
 467 954 467 954 460.5 946 c 128,-1,46
 454 938 454 938 442 938 c 1,47,-1
 442 938 l 1,0,-1
EndSplineSet
EndChar

StartChar: uniE719
Encoding: 59161 59161 86
Width: 529
Flags: W
LayerCount: 2
Back
Fore
SplineSet
330 1326 m 1,0,1
 364 1309 364 1309 387.5 1272 c 128,-1,2
 411 1235 411 1235 411 1193 c 2,3,-1
 411 1093 l 2,4,5
 411 1030 411 1030 367 986.5 c 128,-1,6
 323 943 323 943 261 943 c 2,7,-1
 136 943 l 2,8,9
 124 943 124 943 117 950 c 0,10,11
 111 958 111 958 111 968 c 0,12,13
 111 973 111 973 117 983 c 128,-1,14
 123 993 123 993 136 993 c 2,15,-1
 261 993 l 2,16,17
 303 993 303 993 332 1022 c 128,-1,18
 361 1051 361 1051 361 1093 c 2,19,-1
 361 1193 l 2,20,21
 361 1234 361 1234 332 1263.5 c 128,-1,22
 303 1293 303 1293 261 1293 c 2,23,-1
 236 1293 l 2,24,25
 224 1293 224 1293 217 1300 c 0,26,27
 211 1308 211 1308 211 1318 c 0,28,29
 211 1323 211 1323 217 1333 c 128,-1,30
 223 1343 223 1343 236 1343 c 0,31,32
 278 1343 278 1343 307 1372 c 128,-1,33
 336 1401 336 1401 336 1443 c 2,34,-1
 336 1493 l 2,35,36
 336 1534 336 1534 307 1563.5 c 128,-1,37
 278 1593 278 1593 236 1593 c 2,38,-1
 136 1593 l 2,39,40
 124 1593 124 1593 117 1600 c 0,41,42
 111 1608 111 1608 111 1618 c 0,43,44
 111 1623 111 1623 117 1633 c 128,-1,45
 123 1643 123 1643 136 1643 c 2,46,-1
 236 1643 l 2,47,48
 299 1643 299 1643 342.5 1599.5 c 128,-1,49
 386 1556 386 1556 386 1493 c 2,50,-1
 386 1443 l 1,51,-1
 385 1426 l 1,52,-1
 385 1416 l 1,53,-1
 382 1406 l 2,54,55
 380 1393 380 1393 371 1378 c 0,56,57
 358 1351 358 1351 330 1326 c 1,58,-1
 330 1326 l 1,0,1
EndSplineSet
EndChar

StartChar: uniE71A
Encoding: 59162 59162 87
AltUni2: 00e72f.ffffffff.0
Width: 1600
Flags: W
LayerCount: 2
Back
Fore
SplineSet
1500 0 m 1,0,-1
 100 0 l 1,1,-1
 100 1400 l 1,2,-1
 1500 0 l 1,0,-1
200 1169 m 1,3,-1
 200 100 l 1,4,-1
 1271 100 l 1,5,-1
 200 1169 l 1,3,-1
EndSplineSet
EndChar

StartChar: uniE71B
Encoding: 59163 59163 88
Width: 2100
Flags: W
LayerCount: 2
Back
Fore
SplineSet
100 0 m 1,0,-1
 2000 0 l 1,1,-1
 2000 100 l 1,2,-1
 100 100 l 1,3,-1
 100 0 l 1,0,-1
400 750 m 256,4,5
 400 885 400 885 451 1003 c 128,-1,6
 502 1121 502 1121 590.5 1209.5 c 128,-1,7
 679 1298 679 1298 797 1349 c 128,-1,8
 915 1400 915 1400 1050 1400 c 256,9,10
 1185 1400 1185 1400 1303 1349 c 128,-1,11
 1421 1298 1421 1298 1509.5 1209.5 c 128,-1,12
 1598 1121 1598 1121 1649 1003 c 128,-1,13
 1700 885 1700 885 1700 750 c 256,14,15
 1700 615 1700 615 1649 497 c 128,-1,16
 1598 379 1598 379 1509.5 290.5 c 128,-1,17
 1421 202 1421 202 1303 151 c 128,-1,18
 1185 100 1185 100 1050 100 c 256,19,20
 915 100 915 100 797 151 c 128,-1,21
 679 202 679 202 590.5 290.5 c 128,-1,22
 502 379 502 379 451 497 c 128,-1,23
 400 615 400 615 400 750 c 256,4,5
500 750 m 256,24,25
 500 636 500 636 543 536 c 128,-1,26
 586 436 586 436 661 361 c 128,-1,27
 736 286 736 286 836 243 c 128,-1,28
 936 200 936 200 1050 200 c 256,29,30
 1164 200 1164 200 1264 243 c 128,-1,31
 1364 286 1364 286 1439 361 c 128,-1,32
 1514 436 1514 436 1557 536 c 128,-1,33
 1600 636 1600 636 1600 750 c 256,34,35
 1600 864 1600 864 1557 964 c 128,-1,36
 1514 1064 1514 1064 1439 1139 c 128,-1,37
 1364 1214 1364 1214 1264 1257 c 128,-1,38
 1164 1300 1164 1300 1050 1300 c 256,39,40
 936 1300 936 1300 836 1257 c 128,-1,41
 736 1214 736 1214 661 1139 c 128,-1,42
 586 1064 586 1064 543 964 c 128,-1,43
 500 864 500 864 500 750 c 256,24,25
EndSplineSet
EndChar

StartChar: uniE71C
Encoding: 59164 59164 89
Width: 2100
Flags: W
LayerCount: 2
Back
Fore
SplineSet
100 1400 m 1,0,-1
 2000 1400 l 1,1,-1
 2000 1300 l 1,2,-1
 100 1300 l 1,3,-1
 100 1400 l 1,0,-1
400 650 m 256,4,5
 400 785 400 785 451 903 c 128,-1,6
 502 1021 502 1021 590.5 1109.5 c 128,-1,7
 679 1198 679 1198 797 1249 c 128,-1,8
 915 1300 915 1300 1050 1300 c 256,9,10
 1185 1300 1185 1300 1303 1249 c 128,-1,11
 1421 1198 1421 1198 1509.5 1109.5 c 128,-1,12
 1598 1021 1598 1021 1649 903 c 128,-1,13
 1700 785 1700 785 1700 650 c 256,14,15
 1700 515 1700 515 1649 397 c 128,-1,16
 1598 279 1598 279 1509.5 190.5 c 128,-1,17
 1421 102 1421 102 1303 51 c 128,-1,18
 1185 0 1185 0 1050 0 c 256,19,20
 915 0 915 0 797 51 c 128,-1,21
 679 102 679 102 590.5 190.5 c 128,-1,22
 502 279 502 279 451 397 c 128,-1,23
 400 515 400 515 400 650 c 256,4,5
500 650 m 256,24,25
 500 536 500 536 543 436 c 128,-1,26
 586 336 586 336 661 261 c 128,-1,27
 736 186 736 186 836 143 c 128,-1,28
 936 100 936 100 1050 100 c 256,29,30
 1164 100 1164 100 1264 143 c 128,-1,31
 1364 186 1364 186 1439 261 c 128,-1,32
 1514 336 1514 336 1557 436 c 128,-1,33
 1600 536 1600 536 1600 650 c 256,34,35
 1600 764 1600 764 1557 864 c 128,-1,36
 1514 964 1514 964 1439 1039 c 128,-1,37
 1364 1114 1364 1114 1264 1157 c 128,-1,38
 1164 1200 1164 1200 1050 1200 c 256,39,40
 936 1200 936 1200 836 1157 c 128,-1,41
 736 1114 736 1114 661 1039 c 128,-1,42
 586 964 586 964 543 864 c 128,-1,43
 500 764 500 764 500 650 c 256,24,25
EndSplineSet
EndChar

StartChar: uniE71D
Encoding: 59165 59165 90
Width: 3300
Flags: W
LayerCount: 2
Back
Fore
SplineSet
1045 100 m 2,0,1
 910 100 910 100 792.5 151 c 128,-1,2
 675 202 675 202 588 290.5 c 128,-1,3
 501 379 501 379 450.5 497 c 128,-1,4
 400 615 400 615 400 750 c 1,5,-1
 500 750 l 1,6,7
 500 636 500 636 543 536 c 128,-1,8
 586 436 586 436 661 361 c 128,-1,9
 736 286 736 286 836 243 c 128,-1,10
 936 200 936 200 1050 200 c 256,11,12
 1164 200 1164 200 1264.5 243 c 128,-1,13
 1365 286 1365 286 1440 361 c 128,-1,14
 1515 436 1515 436 1558.5 536 c 128,-1,15
 1602 636 1602 636 1602 750 c 1,16,-1
 1702 750 l 1,17,18
 1702 636 1702 636 1745 536 c 128,-1,19
 1788 436 1788 436 1863 361 c 128,-1,20
 1938 286 1938 286 2038 243 c 128,-1,21
 2138 200 2138 200 2252 200 c 256,22,23
 2366 200 2366 200 2466 243 c 128,-1,24
 2566 286 2566 286 2641 361 c 128,-1,25
 2716 436 2716 436 2759 536 c 128,-1,26
 2802 636 2802 636 2802 750 c 1,27,-1
 2902 750 l 1,28,29
 2902 615 2902 615 2851 497 c 128,-1,30
 2800 379 2800 379 2711.5 290.5 c 128,-1,31
 2623 202 2623 202 2505 151 c 128,-1,32
 2387 100 2387 100 2252 100 c 0,33,34
 2146 100 2146 100 2054.5 127.5 c 128,-1,35
 1963 155 1963 155 1887 207 c 128,-1,36
 1811 259 1811 259 1752 334.5 c 128,-1,37
 1693 410 1693 410 1652 505 c 1,38,39
 1616 416 1616 416 1556 341.5 c 128,-1,40
 1496 267 1496 267 1418.5 213.5 c 128,-1,41
 1341 160 1341 160 1248.5 130 c 128,-1,42
 1156 100 1156 100 1054 100 c 2,43,-1
 3200 100 l 1,44,-1
 3200 0 l 1,45,-1
 100 0 l 1,46,-1
 100 100 l 1,47,-1
 1045 100 l 2,0,1
EndSplineSet
EndChar

StartChar: uniE71E
Encoding: 59166 59166 91
Width: 3300
Flags: W
LayerCount: 2
Back
Fore
SplineSet
101 1398 m 1,0,-1
 3201 1398 l 1,1,-1
 3201 1298 l 1,2,-1
 101 1298 l 1,3,-1
 101 1398 l 1,0,-1
1603 648 m 1,4,5
 1603 762 1603 762 1559.5 862 c 128,-1,6
 1516 962 1516 962 1441 1037 c 128,-1,7
 1366 1112 1366 1112 1265.5 1155 c 128,-1,8
 1165 1198 1165 1198 1051 1198 c 256,9,10
 937 1198 937 1198 837 1155 c 128,-1,11
 737 1112 737 1112 662 1037 c 128,-1,12
 587 962 587 962 544 862 c 128,-1,13
 501 762 501 762 501 648 c 1,14,-1
 401 648 l 1,15,16
 401 783 401 783 452 901 c 128,-1,17
 503 1019 503 1019 591.5 1107.5 c 128,-1,18
 680 1196 680 1196 798 1247 c 128,-1,19
 916 1298 916 1298 1051 1298 c 0,20,21
 1153 1298 1153 1298 1246 1268 c 128,-1,22
 1339 1238 1339 1238 1417.5 1184.5 c 128,-1,23
 1496 1131 1496 1131 1556.5 1056.5 c 128,-1,24
 1617 982 1617 982 1653 893 c 1,25,26
 1694 988 1694 988 1753 1063.5 c 128,-1,27
 1812 1139 1812 1139 1888 1191 c 128,-1,28
 1964 1243 1964 1243 2055.5 1270.5 c 128,-1,29
 2147 1298 2147 1298 2253 1298 c 0,30,31
 2388 1298 2388 1298 2506 1247 c 128,-1,32
 2624 1196 2624 1196 2712.5 1107.5 c 128,-1,33
 2801 1019 2801 1019 2852 901 c 128,-1,34
 2903 783 2903 783 2903 648 c 1,35,-1
 2803 648 l 1,36,37
 2803 762 2803 762 2760 862 c 128,-1,38
 2717 962 2717 962 2642 1037 c 128,-1,39
 2567 1112 2567 1112 2467 1155 c 128,-1,40
 2367 1198 2367 1198 2253 1198 c 256,41,42
 2139 1198 2139 1198 2039 1155 c 128,-1,43
 1939 1112 1939 1112 1864 1037 c 128,-1,44
 1789 962 1789 962 1746 862 c 128,-1,45
 1703 762 1703 762 1703 648 c 1,46,-1
 1603 648 l 1,4,5
EndSplineSet
EndChar

StartChar: uniE71F
Encoding: 59167 59167 92
Width: 2100
Flags: W
LayerCount: 2
Back
Fore
SplineSet
2000 1400 m 1,0,-1
 2000 0 l 1,1,-1
 100 0 l 1,2,-1
 100 100 l 1,3,-1
 1900 100 l 1,4,-1
 1900 1300 l 1,5,-1
 100 1300 l 1,6,-1
 100 1400 l 1,7,-1
 2000 1400 l 1,0,-1
EndSplineSet
EndChar

StartChar: uniE72B
Encoding: 59179 59179 93
AltUni2: 00e731.ffffffff.0
Width: 1600
Flags: W
LayerCount: 2
Back
Fore
SplineSet
850 1400 m 1,0,-1
 850 100 l 1,1,-1
 1500 100 l 1,2,-1
 1500 0 l 1,3,-1
 100 0 l 1,4,-1
 100 100 l 1,5,-1
 750 100 l 1,6,-1
 750 1400 l 1,7,-1
 850 1400 l 1,0,-1
EndSplineSet
EndChar

StartChar: uniE730
Encoding: 59184 59184 94
Width: 1600
Flags: W
LayerCount: 2
Back
Fore
SplineSet
100 1100 m 1,0,-1
 1500 1100 l 1,1,-1
 1500 1000 l 1,2,-1
 100 1000 l 1,3,-1
 100 1100 l 1,0,-1
100 400 m 1,4,-1
 1500 400 l 1,5,-1
 1500 300 l 1,6,-1
 100 300 l 1,7,-1
 100 400 l 1,4,-1
EndSplineSet
EndChar

StartChar: uniE732
Encoding: 59186 59186 95
Width: 1730
Flags: W
LayerCount: 2
Back
Fore
SplineSet
800 700 m 1,0,-1
 100 1400 l 1,1,-1
 228 1400 l 1,2,-1
 865 765 l 1,3,-1
 1499 1400 l 1,4,-1
 1631 1400 l 1,5,-1
 930 700 l 1,6,-1
 1632 0 l 1,7,-1
 1501 0 l 1,8,-1
 865 635 l 1,9,-1
 230 0 l 1,10,-1
 100 0 l 1,11,-1
 800 700 l 1,0,-1
EndSplineSet
EndChar

StartChar: exclam
Encoding: 33 33 99
Width: 300
Flags: W
LayerCount: 2
Back
Fore
SplineSet
149 0 m 0,0,1
 126 0 126 0 112 14 c 0,2,3
 99 30 99 30 99 49 c 0,4,5
 99 60 99 60 111.5 79.5 c 128,-1,6
 124 99 124 99 149 99 c 0,7,8
 167 99 167 99 183 83 c 128,-1,9
 199 67 199 67 199 49 c 256,10,11
 199 31 199 31 186.5 15.5 c 128,-1,12
 174 0 174 0 149 0 c 0,0,1
100 1350 m 2,13,14
 100 1366 100 1366 115 1383 c 128,-1,15
 130 1400 130 1400 150 1400 c 256,16,17
 170 1400 170 1400 184.5 1387.5 c 128,-1,18
 199 1375 199 1375 199 1350 c 2,19,-1
 199 350 l 2,20,21
 199 334 199 334 184 313 c 1,22,23
 168 300 168 300 150 300 c 0,24,25
 141 300 141 300 115 312 c 1,26,27
 100 324 100 324 100 350 c 2,28,-1
 100 1350 l 2,13,14
EndSplineSet
EndChar

StartChar: quotedbl
Encoding: 34 34 100
Width: 500
Flags: W
LayerCount: 2
Back
Fore
SplineSet
198 1337 m 1,0,-1
 200 1352 l 2,1,2
 200 1373 200 1373 184 1386.5 c 128,-1,3
 168 1400 168 1400 148 1400 c 0,4,5
 131 1400 131 1400 118.5 1390.5 c 128,-1,6
 106 1381 106 1381 100 1361 c 2,7,-1
 50 1163 l 1,8,-1
 48 1148 l 2,9,10
 48 1137 48 1137 63 1113 c 1,11,12
 79 1100 79 1100 100 1100 c 0,13,14
 116 1100 116 1100 127.5 1108.5 c 128,-1,15
 139 1117 139 1117 148 1139 c 2,16,-1
 198 1337 l 1,0,-1
398 1337 m 1,17,-1
 400 1352 l 2,18,19
 400 1373 400 1373 384 1386.5 c 128,-1,20
 368 1400 368 1400 348 1400 c 0,21,22
 331 1400 331 1400 318.5 1390.5 c 128,-1,23
 306 1381 306 1381 300 1361 c 2,24,-1
 250 1163 l 1,25,-1
 248 1148 l 2,26,27
 248 1137 248 1137 263 1113 c 1,28,29
 279 1100 279 1100 300 1100 c 0,30,31
 316 1100 316 1100 327.5 1108.5 c 128,-1,32
 339 1117 339 1117 348 1139 c 2,33,-1
 398 1337 l 1,17,-1
EndSplineSet
EndChar

StartChar: numbersign
Encoding: 35 35 101
Width: 1150
Flags: W
LayerCount: 2
Back
Fore
SplineSet
1004 929 m 2,0,-1
 858 929 l 1,1,-1
 760 471 l 1,2,-1
 884 471 l 2,3,4
 902 471 902 471 918 455 c 128,-1,5
 934 439 934 439 934 421 c 256,6,7
 934 403 934 403 921 387 c 128,-1,8
 908 371 908 371 884 371 c 2,9,-1
 739 371 l 1,10,-1
 668 40 l 2,11,12
 665 22 665 22 650 10 c 1,13,-1
 619 0 l 2,14,15
 610 0 610 0 584 12 c 1,16,17
 569 24 569 24 569 48 c 2,18,-1
 570 60 l 1,19,-1
 636 371 l 1,20,-1
 367 371 l 1,21,-1
 296 40 l 2,22,23
 293 22 293 22 278 10 c 1,24,-1
 247 0 l 2,25,26
 238 0 238 0 212 12 c 1,27,28
 197 24 197 24 197 48 c 2,29,-1
 198 60 l 1,30,-1
 264 371 l 1,31,-1
 140 371 l 2,32,33
 117 371 117 371 103 385 c 0,34,35
 90 401 90 401 90 421 c 0,36,37
 90 432 90 432 102.5 451.5 c 128,-1,38
 115 471 115 471 140 471 c 2,39,-1
 285 471 l 1,40,-1
 383 929 l 1,41,-1
 260 929 l 2,42,43
 237 929 237 929 223 943 c 0,44,45
 210 959 210 959 210 979 c 0,46,47
 210 990 210 990 222.5 1009.5 c 128,-1,48
 235 1029 235 1029 260 1029 c 2,49,-1
 405 1029 l 1,50,-1
 476 1360 l 2,51,52
 479 1380 479 1380 493 1390 c 0,53,54
 509 1399 509 1399 525 1400 c 0,55,56
 543 1400 543 1400 559 1387 c 128,-1,57
 575 1374 575 1374 575 1352 c 2,58,-1
 574 1340 l 1,59,-1
 507 1029 l 1,60,-1
 777 1029 l 1,61,-1
 848 1360 l 2,62,63
 851 1380 851 1380 865 1390 c 0,64,65
 881 1399 881 1399 897 1400 c 0,66,67
 915 1400 915 1400 931 1387 c 128,-1,68
 947 1374 947 1374 947 1352 c 2,69,-1
 946 1340 l 1,70,-1
 879 1029 l 1,71,-1
 1004 1029 l 2,72,73
 1022 1029 1022 1029 1038 1013 c 128,-1,74
 1054 997 1054 997 1054 979 c 256,75,76
 1054 961 1054 961 1041 945 c 128,-1,77
 1028 929 1028 929 1004 929 c 2,0,-1
755 929 m 1,78,-1
 486 929 l 1,79,-1
 388 471 l 1,80,-1
 657 471 l 1,81,-1
 755 929 l 1,78,-1
EndSplineSet
EndChar

StartChar: dollar
Encoding: 36 36 102
Width: 900
Flags: W
LayerCount: 2
Back
Fore
SplineSet
500 1400 m 1,0,-1
 550 1400 l 2,1,2
 601 1400 601 1400 665 1382 c 128,-1,3
 729 1364 729 1364 779 1330 c 0,4,5
 785 1327 785 1327 791 1318 c 128,-1,6
 797 1309 797 1309 802 1289 c 1,7,8
 802 1267 802 1267 788 1251.5 c 128,-1,9
 774 1236 774 1236 752 1236 c 0,10,11
 737 1236 737 1236 723 1246 c 0,12,13
 645 1300 645 1300 550 1300 c 2,14,-1
 500 1300 l 1,15,-1
 500 720 l 1,16,-1
 708 511 l 2,17,18
 752 468 752 468 774 413 c 2,19,-1
 782 390 l 1,20,-1
 792 352 l 1,21,-1
 796 329 l 1,22,-1
 797 300 l 1,23,24
 797 180 797 180 716 93 c 0,25,26
 630 0 630 0 500 0 c 1,27,-1
 500 -140 l 2,28,29
 500 -158 500 -158 481 -177 c 128,-1,30
 462 -196 462 -196 444 -196 c 0,31,32
 429 -196 429 -196 414.5 -184.5 c 128,-1,33
 400 -173 400 -173 400 -150 c 2,34,-1
 400 0 l 1,35,-1
 350 0 l 2,36,37
 223 0 223 0 122 71 c 1,38,-1
 105 89 l 1,39,-1
 100 111 l 2,40,41
 100 126 100 126 115 144 c 128,-1,42
 130 162 130 162 149 162 c 1,43,-1
 178 153 l 1,44,45
 257 100 257 100 350 100 c 2,46,-1
 400 100 l 1,47,-1
 400 680 l 1,48,-1
 192 889 l 2,49,50
 157 924 157 924 124 987 c 1,51,52
 103 1041 103 1041 103 1100 c 0,53,54
 103 1220 103 1220 184 1307 c 0,55,56
 270 1400 270 1400 400 1400 c 1,57,-1
 400 1550 l 2,58,59
 400 1566 400 1566 415 1583 c 128,-1,60
 430 1600 430 1600 450 1600 c 0,61,62
 468 1600 468 1600 484 1587 c 128,-1,63
 500 1574 500 1574 500 1550 c 2,64,-1
 500 1400 l 1,0,-1
500 100 m 1,65,66
 584 100 584 100 643 162 c 0,67,68
 697 219 697 219 697 301 c 0,69,70
 697 334 697 334 682 373 c 0,71,72
 670 412 670 412 638 441 c 2,73,-1
 500 579 l 1,74,-1
 500 100 l 1,65,66
400 1300 m 1,75,76
 316 1300 316 1300 259.5 1239 c 128,-1,77
 203 1178 203 1178 203 1099 c 0,78,79
 203 1060 203 1060 215 1025 c 0,80,81
 228 992 228 992 262 959 c 2,82,-1
 400 820 l 1,83,-1
 400 1300 l 1,75,76
EndSplineSet
EndChar

StartChar: percent
Encoding: 37 37 103
Width: 1700
Flags: W
LayerCount: 2
Back
Fore
SplineSet
1600 300 m 0,0,1
 1600 167 1600 167 1507 74 c 1,2,3
 1423 -1 1423 -1 1300 -1 c 0,4,5
 1190 -1 1190 -1 1094 74 c 1,6,7
 1000 157 1000 157 1000 300 c 0,8,9
 1000 441 1000 441 1093 525 c 0,10,11
 1178 601 1178 601 1300 601 c 0,12,13
 1411 601 1411 601 1506 526 c 1,14,15
 1600 441 1600 441 1600 300 c 0,0,1
1293 1324 m 2,16,-1
 494 24 l 2,17,18
 478 -1 478 -1 452 -1 c 0,19,20
 430 -1 430 -1 415 13.5 c 128,-1,21
 400 28 400 28 400 49 c 0,22,23
 400 65 400 65 408 76 c 2,24,-1
 1207 1376 l 2,25,26
 1223 1401 1223 1401 1249 1401 c 0,27,28
 1270 1401 1270 1401 1285.5 1386.5 c 128,-1,29
 1301 1372 1301 1372 1301 1351 c 0,30,31
 1301 1335 1301 1335 1293 1324 c 2,16,-1
699 1100 m 0,32,33
 699 959 699 959 606 875 c 0,34,35
 522 800 522 800 400 800 c 0,36,37
 290 800 290 800 194 875 c 1,38,39
 100 958 100 958 100 1100 c 0,40,41
 100 1241 100 1241 193 1325 c 0,42,43
 277 1400 277 1400 400 1400 c 0,44,45
 510 1400 510 1400 605 1325 c 1,46,47
 699 1240 699 1240 699 1100 c 0,32,33
1500 300 m 0,48,49
 1500 393 1500 393 1438 449 c 0,50,51
 1380 499 1380 499 1300 499 c 0,52,53
 1219 499 1219 499 1163 450 c 0,54,55
 1100 396 1100 396 1100 300 c 0,56,57
 1100 205 1100 205 1162 150 c 0,58,59
 1218 100 1218 100 1300 100 c 0,60,61
 1381 100 1381 100 1437 150 c 0,62,63
 1500 206 1500 206 1500 300 c 0,48,49
599 1100 m 0,64,65
 599 1194 599 1194 537 1250 c 0,66,67
 481 1300 481 1300 400 1300 c 256,68,69
 319 1300 319 1300 263 1250 c 0,70,71
 200 1194 200 1194 200 1100 c 0,72,73
 200 1005 200 1005 262 950 c 0,74,75
 318 900 318 900 400 900 c 0,76,77
 481 900 481 900 537 949 c 0,78,79
 599 1003 599 1003 599 1100 c 0,64,65
EndSplineSet
EndChar

StartChar: ampersand
Encoding: 38 38 104
Width: 1100
Flags: W
LayerCount: 2
Back
Fore
SplineSet
435 967 m 1,0,-1
 536 1125 l 1,1,-1
 548 1152 l 1,2,-1
 552 1181 l 1,3,4
 552 1226 552 1226 515 1263 c 128,-1,5
 478 1300 478 1300 425 1300 c 0,6,7
 383 1300 383 1300 348 1266 c 0,8,9
 317 1232 317 1232 317 1186 c 0,10,11
 317 1153 317 1153 336 1122 c 2,12,-1
 435 967 l 1,0,-1
745 295 m 1,13,-1
 435 781 l 1,14,-1
 248 488 l 2,15,16
 206 422 206 422 206 348 c 0,17,18
 206 249 206 249 284.5 174.5 c 128,-1,19
 363 100 363 100 462 100 c 0,20,21
 501 100 501 100 550 121 c 128,-1,22
 599 142 599 142 645 185 c 1,23,-1
 745 295 l 1,13,-1
376 874 m 1,24,-1
 252 1068 l 2,25,26
 217 1123 217 1123 217 1186 c 0,27,28
 217 1262 217 1262 277 1331 c 128,-1,29
 337 1400 337 1400 425 1400 c 0,30,31
 517 1400 517 1400 584.5 1333.5 c 128,-1,32
 652 1267 652 1267 652 1178 c 0,33,34
 652 1122 652 1122 620 1071 c 2,35,-1
 494 874 l 1,36,-1
 814 371 l 1,37,-1
 920 488 l 2,38,39
 935 505 935 505 956 505 c 0,40,41
 974 505 974 505 991 489.5 c 128,-1,42
 1008 474 1008 474 1008 454 c 0,43,44
 1008 435 1008 435 994 420 c 2,45,-1
 870 283 l 1,46,-1
 999 81 l 1,47,-1
 1007 53 l 1,48,49
 1007 35 1007 35 991 18 c 0,50,51
 975 4 975 4 955 4 c 0,52,53
 942 4 942 4 933 9 c 128,-1,54
 924 14 924 14 915 27 c 2,55,-1
 801 207 l 1,56,-1
 719 117 l 2,57,58
 668 60 668 60 601.5 29.5 c 128,-1,59
 535 -1 535 -1 465 -1 c 0,60,61
 324 -1 324 -1 214.5 103 c 128,-1,62
 105 207 105 207 105 350 c 1,63,-1
 108 400 l 2,64,65
 108 410 108 410 112 422 c 2,66,-1
 119 447 l 2,67,68
 127 478 127 478 164 542 c 2,69,-1
 376 874 l 1,24,-1
EndSplineSet
EndChar

StartChar: quotesingle
Encoding: 39 39 105
Width: 300
Flags: W
LayerCount: 2
Back
Fore
SplineSet
198 1337 m 1,0,-1
 200 1352 l 2,1,2
 200 1373 200 1373 184 1386.5 c 128,-1,3
 168 1400 168 1400 148 1400 c 0,4,5
 131 1400 131 1400 118.5 1390.5 c 128,-1,6
 106 1381 106 1381 100 1361 c 2,7,-1
 50 1063 l 1,8,-1
 48 1048 l 2,9,10
 48 1037 48 1037 63 1013 c 1,11,12
 79 1000 79 1000 100 1000 c 0,13,14
 116 1000 116 1000 127.5 1008.5 c 128,-1,15
 139 1017 139 1017 148 1039 c 1,16,-1
 198 1337 l 1,0,-1
EndSplineSet
EndChar

StartChar: parenleft
Encoding: 40 40 106
Width: 400
Flags: W
LayerCount: 2
Back
Fore
SplineSet
308 -37 m 1,0,-1
 310 -52 l 2,1,2
 310 -73 310 -73 294 -86.5 c 128,-1,3
 278 -100 278 -100 259 -100 c 0,4,5
 245 -100 245 -100 233 -92 c 0,6,7
 221 -86 221 -86 212 -63 c 0,8,9
 167 116 167 116 137 312 c 2,10,-1
 123 414 l 1,11,-1
 118 464 l 1,12,-1
 116 508 l 1,13,-1
 115 548 l 1,14,-1
 114 578 l 1,15,-1
 109 700 l 1,16,17
 109 1088 109 1088 212 1463 c 0,18,19
 215 1476 215 1476 227 1488 c 0,20,21
 239 1497 239 1497 259 1500 c 0,22,23
 279 1500 279 1500 294.5 1486.5 c 128,-1,24
 310 1473 310 1473 310 1451 c 2,25,-1
 308 1437 l 1,26,27
 286 1355 286 1355 268.5 1265.5 c 128,-1,28
 251 1176 251 1176 235 1071 c 2,29,-1
 223 975 l 2,30,31
 217 924 217 924 217 886 c 2,32,-1
 213 794 l 1,33,-1
 210 700 l 1,34,35
 210 511 210 511 234 328 c 0,36,37
 243 251 243 251 264 146 c 2,38,-1
 284 51 l 1,39,-1
 308 -37 l 1,0,-1
EndSplineSet
EndChar

StartChar: parenright
Encoding: 41 41 107
Width: 400
Flags: W
LayerCount: 2
Back
Fore
SplineSet
196 -63 m 0,0,1
 193 -80 193 -80 179.5 -90 c 128,-1,2
 166 -100 166 -100 149 -100 c 0,3,4
 127 -100 127 -100 113 -86 c 0,5,6
 98 -74 98 -74 98 -51 c 2,7,-1
 100 -37 l 1,8,9
 122 46 122 46 139.5 135 c 128,-1,10
 157 224 157 224 173 329 c 2,11,-1
 184 424 l 1,12,-1
 189 472 l 1,13,-1
 191 514 l 1,14,-1
 193 565 l 1,15,-1
 196 633 l 1,16,-1
 198 700 l 1,17,18
 198 882 198 882 174 1071 c 0,19,20
 162 1166 162 1166 144 1254 c 2,21,-1
 124 1348 l 1,22,-1
 100 1437 l 1,23,-1
 98 1452 l 2,24,25
 98 1470 98 1470 113 1485 c 128,-1,26
 128 1500 128 1500 149 1500 c 0,27,28
 161 1500 161 1500 172 1492 c 0,29,30
 185 1486 185 1486 196 1463 c 1,31,32
 298 1089 298 1089 298 700 c 0,33,34
 298 321 298 321 196 -63 c 0,0,1
EndSplineSet
EndChar

StartChar: asterisk
Encoding: 42 42 108
Width: 900
Flags: W
LayerCount: 2
Back
Fore
SplineSet
535 1200 m 1,0,-1
 654 1200 l 2,1,2
 672 1200 672 1200 688 1184 c 128,-1,3
 704 1168 704 1168 704 1150 c 256,4,5
 704 1132 704 1132 691 1116 c 128,-1,6
 678 1100 678 1100 654 1100 c 2,7,-1
 535 1100 l 1,8,-1
 599 972 l 2,9,10
 605 958 605 958 605 948 c 0,11,12
 605 930 605 930 589 914 c 0,13,14
 573 900 573 900 553 900 c 256,15,16
 533 900 533 900 509 928 c 1,17,-1
 454 1038 l 1,18,-1
 399 928 l 2,19,20
 384 899 384 899 355 899 c 0,21,22
 333 899 333 899 318 913 c 128,-1,23
 303 927 303 927 303 948 c 0,24,25
 303 960 303 960 309 972 c 2,26,-1
 373 1100 l 1,27,-1
 254 1100 l 2,28,29
 231 1100 231 1100 217 1114 c 0,30,31
 204 1130 204 1130 204 1150 c 0,32,33
 204 1161 204 1161 216.5 1180.5 c 128,-1,34
 229 1200 229 1200 254 1200 c 2,35,-1
 373 1200 l 1,36,-1
 309 1328 l 2,37,38
 303 1342 303 1342 303 1352 c 0,39,40
 303 1370 303 1370 318 1385 c 128,-1,41
 333 1400 333 1400 355 1400 c 0,42,43
 375 1400 375 1400 399 1372 c 1,44,-1
 454 1262 l 1,45,-1
 509 1372 l 2,46,47
 524 1401 524 1401 553 1401 c 0,48,49
 575 1401 575 1401 590 1387 c 128,-1,50
 605 1373 605 1373 605 1352 c 0,51,52
 605 1340 605 1340 599 1328 c 2,53,-1
 535 1200 l 1,0,-1
EndSplineSet
EndChar

StartChar: plus
Encoding: 43 43 109
Width: 700
Flags: W
LayerCount: 2
Back
Fore
SplineSet
405 550 m 1,0,-1
 605 550 l 2,1,2
 623 550 623 550 639 534 c 128,-1,3
 655 518 655 518 655 500 c 256,4,5
 655 482 655 482 642 466 c 128,-1,6
 629 450 629 450 605 450 c 2,7,-1
 405 450 l 1,8,-1
 405 250 l 2,9,10
 405 226 405 226 391 212 c 0,11,12
 377 200 377 200 355 200 c 0,13,14
 346 200 346 200 320 212 c 1,15,16
 305 224 305 224 305 250 c 2,17,-1
 305 450 l 1,18,-1
 105 450 l 2,19,20
 82 450 82 450 68 464 c 0,21,22
 55 480 55 480 55 500 c 0,23,24
 55 511 55 511 67.5 530.5 c 128,-1,25
 80 550 80 550 105 550 c 2,26,-1
 305 550 l 1,27,-1
 305 750 l 2,28,29
 305 766 305 766 320 783 c 128,-1,30
 335 800 335 800 355 800 c 0,31,32
 373 800 373 800 389 787 c 128,-1,33
 405 774 405 774 405 750 c 2,34,-1
 405 550 l 1,0,-1
EndSplineSet
EndChar

StartChar: comma
Encoding: 44 44 110
Width: 400
Flags: W
LayerCount: 2
Back
Fore
SplineSet
224 -171 m 2,0,1
 215 -192 215 -192 203 -201 c 128,-1,2
 191 -210 191 -210 176 -210 c 0,3,4
 154 -210 154 -210 139 -195 c 128,-1,5
 124 -180 124 -180 124 -162 c 2,6,-1
 126 -147 l 1,7,-1
 176 51 l 2,8,9
 182 71 182 71 194.5 80.5 c 128,-1,10
 207 90 207 90 224 90 c 0,11,12
 244 90 244 90 260 76.5 c 128,-1,13
 276 63 276 63 276 42 c 2,14,-1
 274 27 l 1,15,-1
 224 -171 l 2,0,1
EndSplineSet
EndChar

StartChar: hyphen
Encoding: 45 45 111
Width: 800
Flags: W
LayerCount: 2
Back
Fore
SplineSet
700 450 m 2,0,-1
 100 450 l 2,1,2
 77 450 77 450 63 464 c 0,3,4
 50 480 50 480 50 500 c 0,5,6
 50 511 50 511 62.5 530.5 c 128,-1,7
 75 550 75 550 100 550 c 2,8,-1
 700 550 l 2,9,10
 718 550 718 550 734 534 c 128,-1,11
 750 518 750 518 750 500 c 256,12,13
 750 482 750 482 737 466 c 128,-1,14
 724 450 724 450 700 450 c 2,0,-1
EndSplineSet
EndChar

StartChar: period
Encoding: 46 46 112
Width: 335
Flags: W
LayerCount: 2
Back
Fore
SplineSet
161 100 m 0,0,1
 179 100 179 100 195 84 c 128,-1,2
 211 68 211 68 211 50 c 256,3,4
 211 32 211 32 198 16 c 128,-1,5
 185 0 185 0 161 0 c 0,6,7
 138 0 138 0 124 14 c 0,8,9
 111 30 111 30 111 50 c 0,10,11
 111 61 111 61 123.5 80.5 c 128,-1,12
 136 100 136 100 161 100 c 0,0,1
EndSplineSet
EndChar

StartChar: slash
Encoding: 47 47 113
Width: 1100
Flags: W
LayerCount: 2
Back
Fore
SplineSet
999 1520 m 2,0,-1
 197 -180 l 2,1,2
 191 -196 191 -196 180 -201.5 c 128,-1,3
 169 -207 169 -207 152 -210 c 0,4,5
 130 -210 130 -210 115 -196 c 0,6,7
 100 -184 100 -184 100 -161 c 0,8,9
 100 -148 100 -148 105 -139 c 2,10,-1
 908 1560 l 1,11,-1
 921 1577 l 1,12,-1
 952 1590 l 1,13,14
 974 1590 974 1590 988 1576 c 0,15,16
 1004 1563 1004 1563 1004 1542 c 0,17,18
 1004 1529 1004 1529 999 1520 c 2,0,-1
EndSplineSet
EndChar

StartChar: zero
Encoding: 48 48 114
Width: 900
Flags: W
LayerCount: 2
Back
Fore
SplineSet
801 300 m 2,0,1
 801 177 801 177 713 88.5 c 128,-1,2
 625 0 625 0 500 0 c 2,3,-1
 400 0 l 2,4,5
 285 0 285 0 192.5 87 c 128,-1,6
 100 174 100 174 100 300 c 2,7,-1
 100 1100 l 2,8,9
 100 1220 100 1220 187 1310 c 128,-1,10
 274 1400 274 1400 400 1400 c 2,11,-1
 500 1400 l 2,12,13
 623 1400 623 1400 712 1312.5 c 128,-1,14
 801 1225 801 1225 801 1100 c 2,15,-1
 801 300 l 2,0,1
701 300 m 2,16,-1
 701 1100 l 2,17,18
 701 1182 701 1182 642 1241 c 128,-1,19
 583 1300 583 1300 500 1300 c 2,20,-1
 400 1300 l 2,21,22
 317 1300 317 1300 258.5 1241.5 c 128,-1,23
 200 1183 200 1183 200 1100 c 2,24,-1
 200 300 l 2,25,26
 200 219 200 219 260.5 159.5 c 128,-1,27
 321 100 321 100 400 100 c 2,28,-1
 500 100 l 2,29,30
 581 100 581 100 641 157 c 128,-1,31
 701 214 701 214 701 300 c 2,16,-1
EndSplineSet
EndChar

StartChar: one
Encoding: 49 49 115
Width: 600
Flags: W
LayerCount: 2
Back
Fore
SplineSet
500 50 m 2,0,1
 500 26 500 26 486 12 c 0,2,3
 472 0 472 0 450 0 c 0,4,5
 441 0 441 0 415 12 c 1,6,7
 400 24 400 24 400 50 c 2,8,-1
 400 1230 l 1,9,-1
 186 1015 l 2,10,11
 171 1000 171 1000 152 1000 c 0,12,13
 131 1000 131 1000 116 1015 c 128,-1,14
 101 1030 101 1030 101 1051 c 0,15,16
 101 1059 101 1059 116 1085 c 1,17,-1
 415 1385 l 2,18,19
 429 1399 429 1399 449 1399 c 256,20,21
 469 1399 469 1399 484.5 1385.5 c 128,-1,22
 500 1372 500 1372 500 1350 c 2,23,-1
 500 50 l 2,0,1
EndSplineSet
EndChar

StartChar: two
Encoding: 50 50 116
Width: 900
Flags: W
LayerCount: 2
Back
Fore
SplineSet
748 0 m 2,0,-1
 150 0 l 2,1,2
 132 0 132 0 115 16 c 0,3,4
 101 33 101 33 101 54 c 0,5,6
 101 68 101 68 108 78 c 2,7,-1
 657 909 l 1,8,-1
 678 948 l 1,9,-1
 693 983 l 2,10,11
 705 1019 705 1019 705 1057 c 0,12,13
 705 1158 705 1158 623 1228 c 0,14,15
 587 1260 587 1260 538 1279.5 c 128,-1,16
 489 1299 489 1299 439 1299 c 0,17,18
 370 1299 370 1299 310.5 1260.5 c 128,-1,19
 251 1222 251 1222 214 1129 c 0,20,21
 208 1113 208 1113 197 1105 c 0,22,23
 186 1099 186 1099 169 1096 c 0,24,25
 148 1096 148 1096 132.5 1109.5 c 128,-1,26
 117 1123 117 1123 117 1145 c 2,27,-1
 120 1163 l 1,28,29
 162 1285 162 1285 251 1346 c 0,30,31
 330 1401 330 1401 434 1401 c 0,32,33
 577 1401 577 1401 690 1303 c 0,34,35
 808 1200 808 1200 808 1057 c 0,36,37
 808 1008 808 1008 793 961 c 128,-1,38
 778 914 778 914 741 853 c 2,39,-1
 244 100 l 1,40,-1
 748 100 l 2,41,42
 766 100 766 100 782 84 c 128,-1,43
 798 68 798 68 798 50 c 256,44,45
 798 32 798 32 785 16 c 128,-1,46
 772 0 772 0 748 0 c 2,0,-1
EndSplineSet
EndChar

StartChar: three
Encoding: 51 51 117
Width: 800
Flags: W
LayerCount: 2
Back
Fore
SplineSet
539 766 m 1,0,1
 607 733 607 733 653.5 658.5 c 128,-1,2
 700 584 700 584 700 500 c 2,3,-1
 700 300 l 2,4,5
 700 175 700 175 612.5 87.5 c 128,-1,6
 525 0 525 0 400 0 c 2,7,-1
 150 0 l 2,8,9
 127 0 127 0 113 14 c 0,10,11
 100 30 100 30 100 50 c 0,12,13
 100 61 100 61 112.5 80.5 c 128,-1,14
 125 100 125 100 150 100 c 2,15,-1
 400 100 l 2,16,17
 484 100 484 100 542 158 c 128,-1,18
 600 216 600 216 600 300 c 2,19,-1
 600 500 l 2,20,21
 600 583 600 583 542.5 641.5 c 128,-1,22
 485 700 485 700 400 700 c 2,23,-1
 350 700 l 2,24,25
 327 700 327 700 313 714 c 0,26,27
 300 730 300 730 300 750 c 0,28,29
 300 761 300 761 312.5 780.5 c 128,-1,30
 325 800 325 800 350 800 c 0,31,32
 434 800 434 800 492 858 c 128,-1,33
 550 916 550 916 550 1000 c 2,34,-1
 550 1100 l 2,35,36
 550 1183 550 1183 492.5 1241.5 c 128,-1,37
 435 1300 435 1300 350 1300 c 2,38,-1
 150 1300 l 2,39,40
 127 1300 127 1300 113 1314 c 0,41,42
 100 1330 100 1330 100 1350 c 0,43,44
 100 1361 100 1361 112.5 1380.5 c 128,-1,45
 125 1400 125 1400 150 1400 c 2,46,-1
 350 1400 l 2,47,48
 476 1400 476 1400 563 1313 c 128,-1,49
 650 1226 650 1226 650 1100 c 2,50,-1
 650 1000 l 1,51,-1
 649 967 l 1,52,-1
 648 947 l 1,53,-1
 642 927 l 1,54,55
 639 900 639 900 621 870 c 0,56,57
 595 817 595 817 539 766 c 1,0,1
EndSplineSet
EndChar

StartChar: four
Encoding: 52 52 118
Width: 900
Flags: W
LayerCount: 2
Back
Fore
SplineSet
600 400 m 1,0,-1
 751 400 l 2,1,2
 769 400 769 400 785 384 c 128,-1,3
 801 368 801 368 801 350 c 256,4,5
 801 332 801 332 788 316 c 128,-1,6
 775 300 775 300 751 300 c 2,7,-1
 600 300 l 1,8,-1
 600 50 l 2,9,10
 600 26 600 26 586 12 c 0,11,12
 572 0 572 0 550 0 c 0,13,14
 541 0 541 0 515 12 c 1,15,16
 500 24 500 24 500 50 c 2,17,-1
 500 300 l 1,18,-1
 150 300 l 2,19,20
 128 300 128 300 114 314 c 128,-1,21
 100 328 100 328 100 348 c 2,22,-1
 101 360 l 1,23,-1
 301 1360 l 2,24,25
 304 1380 304 1380 318 1390 c 1,26,-1
 349 1400 l 1,27,28
 369 1400 369 1400 384.5 1386.5 c 128,-1,29
 400 1373 400 1373 400 1351 c 2,30,-1
 399 1340 l 1,31,-1
 211 400 l 1,32,-1
 500 400 l 1,33,-1
 500 651 l 2,34,35
 500 667 500 667 515 684 c 128,-1,36
 530 701 530 701 550 701 c 0,37,38
 568 701 568 701 584 688 c 128,-1,39
 600 675 600 675 600 651 c 2,40,-1
 600 400 l 1,0,-1
EndSplineSet
EndChar

StartChar: five
Encoding: 53 53 119
Width: 800
Flags: W
LayerCount: 2
Back
Fore
SplineSet
700 300 m 2,0,1
 700 177 700 177 612 88.5 c 128,-1,2
 524 0 524 0 401 0 c 2,3,-1
 150 0 l 2,4,5
 127 0 127 0 113 14 c 0,6,7
 100 30 100 30 100 50 c 0,8,9
 100 61 100 61 112.5 80.5 c 128,-1,10
 125 100 125 100 150 100 c 2,11,-1
 401 100 l 2,12,13
 484 100 484 100 542 158 c 128,-1,14
 600 216 600 216 600 300 c 2,15,-1
 600 500 l 2,16,17
 600 583 600 583 542 641 c 128,-1,18
 484 699 484 699 401 699 c 2,19,-1
 150 699 l 2,20,21
 100 699 100 699 100 749 c 2,22,-1
 100 1350 l 2,23,24
 100 1400 100 1400 150 1400 c 2,25,-1
 650 1400 l 2,26,27
 668 1400 668 1400 684 1384 c 128,-1,28
 700 1368 700 1368 700 1350 c 256,29,30
 700 1332 700 1332 687 1316 c 128,-1,31
 674 1300 674 1300 650 1300 c 2,32,-1
 200 1300 l 1,33,-1
 200 799 l 1,34,-1
 401 799 l 2,35,36
 524 799 524 799 612 711 c 128,-1,37
 700 623 700 623 700 500 c 2,38,-1
 700 300 l 2,0,1
EndSplineSet
EndChar

StartChar: six
Encoding: 54 54 120
Width: 900
Flags: W
LayerCount: 2
Back
Fore
SplineSet
200 700 m 1,0,-1
 200 300 l 2,1,2
 200 219 200 219 260.5 159.5 c 128,-1,3
 321 100 321 100 400 100 c 2,4,-1
 500 100 l 2,5,6
 584 100 584 100 642 158 c 128,-1,7
 700 216 700 216 700 300 c 2,8,-1
 700 500 l 2,9,10
 700 583 700 583 642.5 641.5 c 128,-1,11
 585 700 585 700 500 700 c 2,12,-1
 200 700 l 1,0,-1
100 745 m 2,13,14
 100 953 100 953 207 1127 c 0,15,16
 324 1315 324 1315 532 1397 c 1,17,-1
 553 1401 l 2,18,19
 573 1401 573 1401 586.5 1385 c 128,-1,20
 600 1369 600 1369 600 1349 c 0,21,22
 600 1335 600 1335 593.5 1324.5 c 128,-1,23
 587 1314 587 1314 568 1303 c 2,24,-1
 549 1296 l 1,25,-1
 527 1286 l 1,26,-1
 485 1264 l 2,27,28
 446 1241 446 1241 411 1211 c 0,29,30
 350 1162 350 1162 292 1074 c 0,31,32
 256 1014 256 1014 229 939.5 c 128,-1,33
 202 865 202 865 202 800 c 1,34,-1
 500 800 l 2,35,36
 626 800 626 800 713 713 c 128,-1,37
 800 626 800 626 800 500 c 2,38,-1
 800 300 l 2,39,40
 800 175 800 175 712.5 87.5 c 128,-1,41
 625 0 625 0 500 0 c 2,42,-1
 400 0 l 2,43,44
 285 0 285 0 192.5 87 c 128,-1,45
 100 174 100 174 100 300 c 2,46,-1
 100 745 l 2,13,14
EndSplineSet
EndChar

StartChar: seven
Encoding: 55 55 121
Width: 900
Flags: W
LayerCount: 2
Back
Fore
SplineSet
800 1339 m 1,0,-1
 499 39 l 2,1,2
 497 32 497 32 481 10 c 1,3,-1
 451 0 l 1,4,5
 433 0 433 0 415 12 c 0,6,7
 399 25 399 25 399 48 c 2,8,-1
 401 61 l 1,9,-1
 688 1300 l 1,10,-1
 200 1300 l 1,11,-1
 200 1201 l 2,12,13
 200 1177 200 1177 186 1163 c 0,14,15
 172 1151 172 1151 150 1151 c 0,16,17
 141 1151 141 1151 115 1163 c 1,18,19
 100 1175 100 1175 100 1201 c 2,20,-1
 100 1350 l 2,21,22
 100 1400 100 1400 150 1400 c 2,23,-1
 751 1400 l 2,24,25
 774 1400 774 1400 788 1387.5 c 128,-1,26
 802 1375 802 1375 802 1354 c 2,27,-1
 800 1339 l 1,0,-1
EndSplineSet
EndChar

StartChar: eight
Encoding: 56 56 122
Width: 900
Flags: W
LayerCount: 2
Back
Fore
SplineSet
800 300 m 2,0,1
 800 175 800 175 712.5 87.5 c 128,-1,2
 625 0 625 0 500 0 c 2,3,-1
 400 0 l 2,4,5
 285 0 285 0 192.5 87 c 128,-1,6
 100 174 100 174 100 300 c 2,7,-1
 100 500 l 2,8,9
 100 577 100 577 142 647 c 128,-1,10
 184 717 184 717 261 766 c 1,11,12
 210 808 210 808 180 868 c 128,-1,13
 150 928 150 928 150 999 c 2,14,-1
 150 1101 l 2,15,16
 150 1216 150 1216 237 1312 c 0,17,18
 281 1356 281 1356 333 1378 c 1,19,-1
 386 1393 l 1,20,-1
 418 1398 l 1,21,-1
 449 1400 l 1,22,23
 572 1400 572 1400 662 1313 c 0,24,25
 706 1271 706 1271 728 1217 c 1,26,-1
 743 1164 l 1,27,-1
 748 1132 l 1,28,-1
 750 1101 l 1,29,-1
 750 999 l 2,30,31
 750 926 750 926 722.5 869.5 c 128,-1,32
 695 813 695 813 639 766 c 1,33,34
 707 733 707 733 753.5 658.5 c 128,-1,35
 800 584 800 584 800 500 c 2,36,-1
 800 300 l 2,0,1
650 999 m 2,37,-1
 650 1101 l 2,38,39
 650 1184 650 1184 592 1242 c 128,-1,40
 534 1300 534 1300 451 1300 c 256,41,42
 368 1300 368 1300 309 1242.5 c 128,-1,43
 250 1185 250 1185 250 1101 c 2,44,-1
 250 999 l 2,45,46
 250 916 250 916 308 858 c 128,-1,47
 366 800 366 800 449 800 c 0,48,49
 530 800 530 800 590 857 c 128,-1,50
 650 914 650 914 650 999 c 2,37,-1
700 300 m 2,51,-1
 700 500 l 2,52,53
 700 583 700 583 642.5 641.5 c 128,-1,54
 585 700 585 700 500 700 c 2,55,-1
 400 700 l 2,56,57
 317 700 317 700 258.5 641.5 c 128,-1,58
 200 583 200 583 200 500 c 2,59,-1
 200 300 l 2,60,61
 200 219 200 219 260.5 159.5 c 128,-1,62
 321 100 321 100 400 100 c 2,63,-1
 500 100 l 2,64,65
 584 100 584 100 642 158 c 128,-1,66
 700 216 700 216 700 300 c 2,51,-1
EndSplineSet
EndChar

StartChar: nine
Encoding: 57 57 123
Width: 900
Flags: W
LayerCount: 2
Back
Fore
SplineSet
700 700 m 1,0,-1
 700 1100 l 2,1,2
 700 1183 700 1183 642.5 1241.5 c 128,-1,3
 585 1300 585 1300 500 1300 c 2,4,-1
 400 1300 l 2,5,6
 316 1300 316 1300 258 1242 c 128,-1,7
 200 1184 200 1184 200 1100 c 2,8,-1
 200 900 l 2,9,10
 200 819 200 819 260.5 759.5 c 128,-1,11
 321 700 321 700 400 700 c 2,12,-1
 700 700 l 1,0,-1
800 655 m 2,13,14
 800 447 800 447 693 273 c 0,15,16
 576 85 576 85 368 3 c 1,17,-1
 347 -1 l 2,18,19
 337 -1 337 -1 313 14 c 1,20,21
 300 30 300 30 300 51 c 0,22,23
 300 66 300 66 306 78 c 128,-1,24
 312 90 312 90 332 97 c 0,25,26
 367 109 367 109 414 136 c 2,27,-1
 452 160 l 1,28,-1
 465 169 l 1,29,-1
 489 189 l 2,30,31
 550 238 550 238 608 326 c 1,32,33
 644 388 644 388 671 461.5 c 128,-1,34
 698 535 698 535 698 600 c 1,35,-1
 400 600 l 2,36,37
 274 600 274 600 187 687 c 128,-1,38
 100 774 100 774 100 900 c 2,39,-1
 100 1100 l 2,40,41
 100 1220 100 1220 187 1310 c 128,-1,42
 274 1400 274 1400 400 1400 c 2,43,-1
 500 1400 l 2,44,45
 623 1400 623 1400 712 1312 c 0,46,47
 756 1270 756 1270 778 1216 c 1,48,-1
 793 1163 l 1,49,-1
 798 1131 l 1,50,-1
 800 1100 l 1,51,-1
 800 655 l 2,13,14
EndSplineSet
EndChar

StartChar: colon
Encoding: 58 58 124
Width: 294
Flags: W
LayerCount: 2
Back
Fore
SplineSet
149 950 m 0,0,1
 124 950 124 950 111.5 931.5 c 128,-1,2
 99 913 99 913 99 900 c 0,3,4
 99 880 99 880 112 864 c 0,5,6
 126 850 126 850 149 850 c 0,7,8
 173 850 173 850 186 866 c 128,-1,9
 199 882 199 882 199 900 c 256,10,11
 199 918 199 918 183 934 c 128,-1,12
 167 950 167 950 149 950 c 0,0,1
149 450 m 0,13,14
 124 450 124 450 111.5 431.5 c 128,-1,15
 99 413 99 413 99 400 c 0,16,17
 99 380 99 380 112 364 c 0,18,19
 126 350 126 350 149 350 c 0,20,21
 173 350 173 350 186 366 c 128,-1,22
 199 382 199 382 199 400 c 256,23,24
 199 418 199 418 183 434 c 128,-1,25
 167 450 167 450 149 450 c 0,13,14
EndSplineSet
EndChar

StartChar: semicolon
Encoding: 59 59 125
Width: 450
Flags: W
LayerCount: 2
Back
Fore
SplineSet
278 38 m 1,0,-1
 280 53 l 2,1,2
 280 73 280 73 264 86.5 c 128,-1,3
 248 100 248 100 229 100 c 0,4,5
 213 100 213 100 201 92 c 0,6,7
 189 86 189 86 180 62 c 2,8,-1
 130 -137 l 1,9,-1
 128 -151 l 2,10,11
 128 -162 128 -162 143 -181 c 128,-1,12
 158 -200 158 -200 181 -200 c 0,13,14
 194 -200 194 -200 206 -192 c 0,15,16
 218 -186 218 -186 228 -161 c 2,17,-1
 278 38 l 1,0,-1
239 610 m 0,18,19
 214 610 214 610 201.5 591.5 c 128,-1,20
 189 573 189 573 189 560 c 0,21,22
 189 540 189 540 202 524 c 0,23,24
 216 510 216 510 239 510 c 0,25,26
 263 510 263 510 276 526 c 128,-1,27
 289 542 289 542 289 560 c 256,28,29
 289 578 289 578 273 594 c 128,-1,30
 257 610 257 610 239 610 c 0,18,19
EndSplineSet
EndChar

StartChar: less
Encoding: 60 60 126
Width: 800
Flags: W
LayerCount: 2
Back
Fore
SplineSet
681 295 m 2,0,1
 710 280 710 280 710 251 c 0,2,3
 710 229 710 229 696 214 c 128,-1,4
 682 199 682 199 661 199 c 0,5,6
 649 199 649 199 637 205 c 2,7,-1
 137 455 l 2,8,9
 125 461 125 461 116 473 c 1,10,-1
 109 500 l 1,11,12
 109 530 109 530 137 545 c 2,13,-1
 637 795 l 2,14,15
 651 801 651 801 661 801 c 0,16,17
 679 801 679 801 694 785.5 c 128,-1,18
 709 770 709 770 709 749 c 0,19,20
 709 729 709 729 681 705 c 1,21,-1
 271 500 l 1,22,-1
 681 295 l 2,0,1
EndSplineSet
EndChar

StartChar: equal
Encoding: 61 61 127
Width: 700
Flags: W
LayerCount: 2
Back
Fore
SplineSet
605 600 m 2,0,-1
 105 600 l 2,1,2
 82 600 82 600 68 614 c 0,3,4
 55 630 55 630 55 650 c 0,5,6
 55 661 55 661 67.5 680.5 c 128,-1,7
 80 700 80 700 105 700 c 2,8,-1
 605 700 l 2,9,10
 623 700 623 700 639 684 c 128,-1,11
 655 668 655 668 655 650 c 256,12,13
 655 632 655 632 642 616 c 128,-1,14
 629 600 629 600 605 600 c 2,0,-1
605 300 m 2,15,-1
 105 300 l 2,16,17
 82 300 82 300 68 314 c 0,18,19
 55 330 55 330 55 350 c 0,20,21
 55 361 55 361 67.5 380.5 c 128,-1,22
 80 400 80 400 105 400 c 2,23,-1
 605 400 l 2,24,25
 623 400 623 400 639 384 c 128,-1,26
 655 368 655 368 655 350 c 256,27,28
 655 332 655 332 642 316 c 128,-1,29
 629 300 629 300 605 300 c 2,15,-1
EndSplineSet
EndChar

StartChar: greater
Encoding: 62 62 128
Width: 800
Flags: W
LayerCount: 2
Back
Fore
SplineSet
673 455 m 2,0,-1
 173 205 l 2,1,2
 159 199 159 199 149 199 c 0,3,4
 131 199 131 199 115 215 c 0,5,6
 101 231 101 231 101 251 c 256,7,8
 101 271 101 271 129 295 c 1,9,-1
 539 500 l 1,10,-1
 129 705 l 2,11,12
 100 720 100 720 100 749 c 0,13,14
 100 771 100 771 114 786 c 128,-1,15
 128 801 128 801 149 801 c 0,16,17
 161 801 161 801 173 795 c 2,18,-1
 673 545 l 2,19,20
 702 530 702 530 702 500 c 0,21,22
 702 491 702 491 696 477 c 128,-1,23
 690 463 690 463 673 455 c 2,0,-1
EndSplineSet
EndChar

StartChar: question
Encoding: 63 63 129
Width: 850
Flags: W
LayerCount: 2
Back
Fore
SplineSet
750 1050 m 2,0,1
 750 948 750 948 686 867 c 128,-1,2
 622 786 622 786 512 753 c 0,3,4
 493 747 493 747 466 720 c 1,5,-1
 454 692 l 1,6,-1
 450 664 l 1,7,-1
 450 350 l 2,8,9
 450 326 450 326 436 312 c 0,10,11
 422 300 422 300 400 300 c 0,12,13
 391 300 391 300 365 312 c 1,14,15
 350 324 350 324 350 350 c 2,16,-1
 350 661 l 2,17,18
 350 726 350 726 387.5 778.5 c 128,-1,19
 425 831 425 831 487 850 c 1,20,21
 552 865 552 865 601 922.5 c 128,-1,22
 650 980 650 980 650 1051 c 2,23,-1
 650 1100 l 2,24,25
 650 1183 650 1183 592.5 1241.5 c 128,-1,26
 535 1300 535 1300 450 1300 c 2,27,-1
 350 1300 l 2,28,29
 304 1300 304 1300 261 1280 c 0,30,31
 219 1262 219 1262 189 1220 c 0,32,33
 174 1199 174 1199 149 1199 c 0,34,35
 141 1199 141 1199 114 1214 c 1,36,37
 98 1230 98 1230 98 1250 c 0,38,39
 98 1266 98 1266 109 1280 c 0,40,41
 148 1334 148 1334 214 1367 c 128,-1,42
 280 1400 280 1400 350 1400 c 2,43,-1
 450 1400 l 2,44,45
 573 1400 573 1400 662 1312 c 0,46,47
 706 1270 706 1270 728 1216 c 1,48,-1
 743 1163 l 1,49,-1
 748 1131 l 1,50,-1
 750 1100 l 1,51,-1
 750 1050 l 2,0,1
400 0 m 256,52,53
 376 0 376 0 363.5 14.5 c 128,-1,54
 351 29 351 29 351 50 c 0,55,56
 351 61 351 61 363.5 80.5 c 128,-1,57
 376 100 376 100 400 100 c 0,58,59
 415 100 415 100 432.5 85.5 c 128,-1,60
 450 71 450 71 450 50 c 0,61,62
 450 32 450 32 437 16 c 128,-1,63
 424 0 424 0 400 0 c 256,52,53
EndSplineSet
EndChar

StartChar: at
Encoding: 64 64 130
Width: 1600
Flags: W
LayerCount: 2
Back
Fore
SplineSet
1500 700 m 0,0,1
 1500 529 1500 529 1410 412 c 0,2,3
 1317 290 1317 290 1166 290 c 2,4,-1
 1101 290 l 2,5,6
 1071 290 1071 290 1038.5 302 c 128,-1,7
 1006 314 1006 314 981 339 c 1,8,9
 967 325 967 325 927 302 c 1,10,11
 897 290 897 290 861 290 c 2,12,-1
 701 290 l 2,13,14
 632 290 632 290 581.5 341.5 c 128,-1,15
 531 393 531 393 531 460 c 2,16,-1
 531 940 l 2,17,18
 531 1011 531 1011 580.5 1060.5 c 128,-1,19
 630 1110 630 1110 701 1110 c 2,20,-1
 981 1110 l 2,21,22
 1031 1110 1031 1110 1031 1060 c 2,23,-1
 1031 460 l 2,24,25
 1031 431 1031 431 1051 410 c 0,26,27
 1073 390 1073 390 1101 390 c 2,28,-1
 1166 390 l 2,29,30
 1264 390 1264 390 1339 484 c 1,31,32
 1400 572 1400 572 1400 700 c 0,33,34
 1400 948 1400 948 1224 1124 c 128,-1,35
 1048 1300 1048 1300 800 1300 c 256,36,37
 552 1300 552 1300 376 1124 c 128,-1,38
 200 948 200 948 200 700 c 0,39,40
 200 462 200 462 371 281 c 128,-1,41
 542 100 542 100 780 100 c 0,42,43
 902 100 902 100 982.5 115 c 128,-1,44
 1063 130 1063 130 1145 170 c 1,45,-1
 1157 173 l 2,46,47
 1164 173 1164 173 1168 175 c 0,48,49
 1186 175 1186 175 1201 159.5 c 128,-1,50
 1216 144 1216 144 1216 124 c 0,51,52
 1216 97 1216 97 1187 80 c 0,53,54
 1120 49 1120 49 1009 19 c 1,55,-1
 954 11 l 1,56,-1
 906 5 l 1,57,-1
 838 2 l 1,58,-1
 780 0 l 1,59,60
 501 0 501 0 300.5 205.5 c 128,-1,61
 100 411 100 411 100 700 c 0,62,63
 100 990 100 990 305 1195 c 128,-1,64
 510 1400 510 1400 800 1400 c 256,65,66
 1090 1400 1090 1400 1295 1195 c 128,-1,67
 1500 990 1500 990 1500 700 c 0,0,1
931 460 m 2,68,-1
 931 1010 l 1,69,-1
 701 1010 l 2,70,71
 681 1010 681 1010 656 989.5 c 128,-1,72
 631 969 631 969 631 940 c 2,73,-1
 631 460 l 2,74,75
 631 431 631 431 651 410 c 0,76,77
 673 390 673 390 701 390 c 2,78,-1
 861 390 l 2,79,80
 891 390 891 390 911 410 c 128,-1,81
 931 430 931 430 931 460 c 2,68,-1
EndSplineSet
EndChar

StartChar: A
Encoding: 65 65 131
Width: 1000
Flags: W
LayerCount: 2
Back
Fore
SplineSet
294 401 m 1,0,-1
 196 38 l 2,1,2
 193 21 193 21 179.5 11 c 128,-1,3
 166 1 166 1 149 1 c 0,4,5
 129 1 129 1 113.5 14.5 c 128,-1,6
 98 28 98 28 98 50 c 2,7,-1
 100 64 l 1,8,-1
 450 1354 l 2,9,10
 462 1399 462 1399 498 1399 c 256,11,12
 534 1399 534 1399 546 1354 c 2,13,-1
 896 64 l 1,14,-1
 898 49 l 2,15,16
 898 31 898 31 882 14 c 0,17,18
 866 1 866 1 847 1 c 0,19,20
 831 1 831 1 818.5 9.5 c 128,-1,21
 806 18 806 18 800 38 c 2,22,-1
 702 401 l 1,23,-1
 698 401 l 1,24,-1
 298 401 l 1,25,-1
 294 401 l 1,0,-1
675 501 m 1,26,-1
 498 1160 l 1,27,-1
 321 501 l 1,28,-1
 675 501 l 1,26,-1
EndSplineSet
EndChar

StartChar: B
Encoding: 66 66 132
Width: 900
Flags: W
LayerCount: 2
Back
Fore
SplineSet
200 799 m 1,0,-1
 450 799 l 2,1,2
 532 799 532 799 591 858 c 128,-1,3
 650 917 650 917 650 1000 c 2,4,-1
 650 1100 l 2,5,6
 650 1183 650 1183 592.5 1241.5 c 128,-1,7
 535 1300 535 1300 450 1300 c 2,8,-1
 200 1300 l 1,9,-1
 200 799 l 1,0,-1
200 100 m 1,10,-1
 500 100 l 2,11,12
 581 100 581 100 641 157 c 128,-1,13
 701 214 701 214 701 300 c 2,14,-1
 701 500 l 2,15,16
 701 578 701 578 640 638.5 c 128,-1,17
 579 699 579 699 500 699 c 2,18,-1
 200 699 l 1,19,-1
 200 100 l 1,10,-1
150 0 m 2,20,21
 100 0 100 0 100 50 c 2,22,-1
 100 1350 l 2,23,24
 100 1400 100 1400 150 1400 c 2,25,-1
 450 1400 l 2,26,27
 573 1400 573 1400 662 1312 c 0,28,29
 706 1270 706 1270 728 1216 c 1,30,-1
 743 1163 l 1,31,-1
 748 1131 l 1,32,-1
 750 1100 l 1,33,-1
 750 1000 l 2,34,35
 750 927 750 927 723 871 c 128,-1,36
 696 815 696 815 638 766 c 1,37,38
 709 730 709 730 755 655 c 128,-1,39
 801 580 801 580 801 500 c 2,40,-1
 801 300 l 2,41,42
 801 180 801 180 707.5 90 c 128,-1,43
 614 0 614 0 500 0 c 2,44,-1
 150 0 l 2,20,21
EndSplineSet
EndChar

StartChar: C
Encoding: 67 67 133
Width: 800
Flags: W
LayerCount: 2
Back
Fore
SplineSet
650 0 m 2,0,-1
 401 0 l 2,1,2
 284 0 284 0 192 87.5 c 128,-1,3
 100 175 100 175 100 300 c 2,4,-1
 100 1100 l 2,5,6
 100 1220 100 1220 187 1310 c 128,-1,7
 274 1400 274 1400 401 1400 c 2,8,-1
 650 1400 l 2,9,10
 668 1400 668 1400 684 1384 c 128,-1,11
 700 1368 700 1368 700 1350 c 256,12,13
 700 1332 700 1332 687 1316 c 128,-1,14
 674 1300 674 1300 650 1300 c 2,15,-1
 401 1300 l 2,16,17
 318 1300 318 1300 259 1242.5 c 128,-1,18
 200 1185 200 1185 200 1100 c 2,19,-1
 200 300 l 2,20,21
 200 218 200 218 259 159 c 128,-1,22
 318 100 318 100 401 100 c 2,23,-1
 650 100 l 2,24,25
 668 100 668 100 684 84 c 128,-1,26
 700 68 700 68 700 50 c 256,27,28
 700 32 700 32 687 16 c 128,-1,29
 674 0 674 0 650 0 c 2,0,-1
EndSplineSet
EndChar

StartChar: D
Encoding: 68 68 134
Width: 900
Flags: W
LayerCount: 2
Back
Fore
SplineSet
801 300 m 2,0,1
 801 177 801 177 713 88.5 c 128,-1,2
 625 0 625 0 500 0 c 2,3,-1
 150 0 l 2,4,5
 100 0 100 0 100 50 c 2,6,-1
 100 1350 l 2,7,8
 100 1400 100 1400 150 1400 c 2,9,-1
 500 1400 l 2,10,11
 623 1400 623 1400 712 1312.5 c 128,-1,12
 801 1225 801 1225 801 1100 c 2,13,-1
 801 300 l 2,0,1
701 300 m 2,14,-1
 701 1100 l 2,15,16
 701 1182 701 1182 642 1241 c 128,-1,17
 583 1300 583 1300 500 1300 c 2,18,-1
 200 1300 l 1,19,-1
 200 100 l 1,20,-1
 500 100 l 2,21,22
 581 100 581 100 641 157 c 128,-1,23
 701 214 701 214 701 300 c 2,14,-1
EndSplineSet
EndChar

StartChar: E
Encoding: 69 69 135
Width: 800
Flags: W
LayerCount: 2
Back
Fore
SplineSet
201 699 m 1,0,-1
 201 100 l 1,1,-1
 651 100 l 2,2,3
 669 100 669 100 685 84 c 128,-1,4
 701 68 701 68 701 50 c 256,5,6
 701 32 701 32 688 16 c 128,-1,7
 675 0 675 0 651 0 c 2,8,-1
 151 0 l 2,9,10
 101 0 101 0 101 50 c 2,11,-1
 101 1350 l 2,12,13
 101 1400 101 1400 151 1400 c 2,14,-1
 651 1400 l 2,15,16
 669 1400 669 1400 685 1384 c 128,-1,17
 701 1368 701 1368 701 1350 c 256,18,19
 701 1332 701 1332 688 1316 c 128,-1,20
 675 1300 675 1300 651 1300 c 2,21,-1
 201 1300 l 1,22,-1
 201 799 l 1,23,-1
 451 799 l 2,24,25
 469 799 469 799 485 783 c 128,-1,26
 501 767 501 767 501 749 c 256,27,28
 501 731 501 731 488 715 c 128,-1,29
 475 699 475 699 451 699 c 2,30,-1
 201 699 l 1,0,-1
EndSplineSet
EndChar

StartChar: F
Encoding: 70 70 136
Width: 800
Flags: W
LayerCount: 2
Back
Fore
SplineSet
200 799 m 1,0,-1
 650 799 l 2,1,2
 668 799 668 799 684 783 c 128,-1,3
 700 767 700 767 700 749 c 256,4,5
 700 731 700 731 687 715 c 128,-1,6
 674 699 674 699 650 699 c 2,7,-1
 200 699 l 1,8,-1
 200 50 l 2,9,10
 200 26 200 26 186 12 c 0,11,12
 172 0 172 0 150 0 c 0,13,14
 141 0 141 0 115 12 c 1,15,16
 100 24 100 24 100 50 c 2,17,-1
 100 1350 l 2,18,19
 100 1400 100 1400 150 1400 c 2,20,-1
 650 1400 l 2,21,22
 668 1400 668 1400 684 1384 c 128,-1,23
 700 1368 700 1368 700 1350 c 256,24,25
 700 1332 700 1332 687 1316 c 128,-1,26
 674 1300 674 1300 650 1300 c 2,27,-1
 200 1300 l 1,28,-1
 200 799 l 1,0,-1
EndSplineSet
EndChar

StartChar: G
Encoding: 71 71 137
Width: 900
Flags: W
LayerCount: 2
Back
Fore
SplineSet
800 50 m 2,0,1
 800 0 800 0 750 0 c 2,2,-1
 400 0 l 2,3,4
 285 0 285 0 192.5 87 c 128,-1,5
 100 174 100 174 100 300 c 2,6,-1
 100 1100 l 2,7,8
 100 1220 100 1220 187 1310 c 128,-1,9
 274 1400 274 1400 400 1400 c 2,10,-1
 750 1400 l 2,11,12
 768 1400 768 1400 784 1384 c 128,-1,13
 800 1368 800 1368 800 1350 c 256,14,15
 800 1332 800 1332 787 1316 c 128,-1,16
 774 1300 774 1300 750 1300 c 2,17,-1
 400 1300 l 2,18,19
 317 1300 317 1300 258.5 1241.5 c 128,-1,20
 200 1183 200 1183 200 1100 c 2,21,-1
 200 300 l 2,22,23
 200 219 200 219 260.5 159.5 c 128,-1,24
 321 100 321 100 400 100 c 2,25,-1
 700 100 l 1,26,-1
 700 699 l 1,27,-1
 551 699 l 2,28,29
 528 699 528 699 514 713 c 0,30,31
 501 729 501 729 501 749 c 0,32,33
 501 760 501 760 513.5 779.5 c 128,-1,34
 526 799 526 799 551 799 c 2,35,-1
 750 799 l 2,36,37
 800 799 800 799 800 749 c 2,38,-1
 800 50 l 2,0,1
EndSplineSet
EndChar

StartChar: H
Encoding: 72 72 138
Width: 900
Flags: W
LayerCount: 2
Back
Fore
SplineSet
701 799 m 1,0,-1
 701 1350 l 2,1,2
 701 1366 701 1366 716 1383 c 128,-1,3
 731 1400 731 1400 751 1400 c 0,4,5
 769 1400 769 1400 785 1387 c 128,-1,6
 801 1374 801 1374 801 1350 c 2,7,-1
 801 50 l 2,8,9
 801 26 801 26 787 12 c 0,10,11
 773 0 773 0 751 0 c 0,12,13
 742 0 742 0 716 12 c 1,14,15
 701 24 701 24 701 50 c 2,16,-1
 701 699 l 1,17,-1
 200 699 l 1,18,-1
 200 50 l 2,19,20
 200 26 200 26 186 12 c 0,21,22
 172 0 172 0 150 0 c 0,23,24
 141 0 141 0 115 12 c 1,25,26
 100 24 100 24 100 50 c 2,27,-1
 100 1350 l 2,28,29
 100 1366 100 1366 115 1383 c 128,-1,30
 130 1400 130 1400 150 1400 c 0,31,32
 168 1400 168 1400 184 1387 c 128,-1,33
 200 1374 200 1374 200 1350 c 2,34,-1
 200 799 l 1,35,-1
 701 799 l 1,0,-1
EndSplineSet
EndChar

StartChar: I
Encoding: 73 73 139
Width: 300
Flags: W
LayerCount: 2
Back
Fore
SplineSet
200 50 m 2,0,1
 200 26 200 26 186 12 c 0,2,3
 172 0 172 0 150 0 c 0,4,5
 141 0 141 0 115 12 c 1,6,7
 100 24 100 24 100 50 c 2,8,-1
 100 1350 l 2,9,10
 100 1366 100 1366 115 1383 c 128,-1,11
 130 1400 130 1400 150 1400 c 0,12,13
 168 1400 168 1400 184 1387 c 128,-1,14
 200 1374 200 1374 200 1350 c 2,15,-1
 200 50 l 2,0,1
EndSplineSet
EndChar

StartChar: J
Encoding: 74 74 140
Width: 700
Flags: W
LayerCount: 2
Back
Fore
SplineSet
600 300 m 2,0,1
 600 175 600 175 512.5 87.5 c 128,-1,2
 425 0 425 0 300 0 c 2,3,-1
 150 0 l 2,4,5
 127 0 127 0 113 14 c 0,6,7
 100 30 100 30 100 50 c 0,8,9
 100 61 100 61 112.5 80.5 c 128,-1,10
 125 100 125 100 150 100 c 2,11,-1
 300 100 l 2,12,13
 383 100 383 100 441.5 158.5 c 128,-1,14
 500 217 500 217 500 300 c 2,15,-1
 500 1350 l 2,16,17
 500 1366 500 1366 515 1383 c 128,-1,18
 530 1400 530 1400 550 1400 c 0,19,20
 568 1400 568 1400 584 1387 c 128,-1,21
 600 1374 600 1374 600 1350 c 2,22,-1
 600 300 l 2,0,1
EndSplineSet
EndChar

StartChar: K
Encoding: 75 75 141
Width: 900
Flags: W
LayerCount: 2
Back
Fore
SplineSet
200 534 m 1,0,-1
 200 50 l 2,1,2
 200 26 200 26 186 12 c 0,3,4
 172 0 172 0 150 0 c 0,5,6
 141 0 141 0 115 12 c 1,7,8
 100 24 100 24 100 50 c 2,9,-1
 100 1350 l 2,10,11
 100 1366 100 1366 115 1383 c 128,-1,12
 130 1400 130 1400 150 1400 c 0,13,14
 168 1400 168 1400 184 1387 c 128,-1,15
 200 1374 200 1374 200 1350 c 2,16,-1
 200 701 l 1,17,-1
 711 1380 l 2,18,19
 726 1401 726 1401 750 1401 c 0,20,21
 768 1401 768 1401 785 1385.5 c 128,-1,22
 802 1370 802 1370 802 1350 c 0,23,24
 802 1334 802 1334 791 1320 c 2,25,-1
 435 847 l 1,26,-1
 796 71 l 1,27,-1
 799 58 l 2,28,29
 799 51 799 51 801 48 c 0,30,31
 801 30 801 30 785 14 c 0,32,33
 769 0 769 0 749 0 c 1,34,-1
 726 6 l 1,35,-1
 706 29 l 1,36,-1
 367 757 l 1,37,-1
 200 534 l 1,0,-1
EndSplineSet
EndChar

StartChar: L
Encoding: 76 76 142
Width: 700
Flags: W
LayerCount: 2
Back
Fore
SplineSet
550 0 m 2,0,-1
 150 0 l 2,1,2
 100 0 100 0 100 50 c 2,3,-1
 100 1350 l 2,4,5
 100 1366 100 1366 115 1383 c 128,-1,6
 130 1400 130 1400 150 1400 c 0,7,8
 168 1400 168 1400 184 1387 c 128,-1,9
 200 1374 200 1374 200 1350 c 2,10,-1
 200 100 l 1,11,-1
 550 100 l 2,12,13
 568 100 568 100 584 84 c 128,-1,14
 600 68 600 68 600 50 c 256,15,16
 600 32 600 32 587 16 c 128,-1,17
 574 0 574 0 550 0 c 2,0,-1
EndSplineSet
EndChar

StartChar: M
Encoding: 77 77 143
Width: 1100
Flags: W
LayerCount: 2
Back
Fore
SplineSet
999 51 m 2,0,1
 999 27 999 27 985 13 c 0,2,3
 971 1 971 1 949 1 c 0,4,5
 940 1 940 1 914 13 c 1,6,7
 899 25 899 25 899 51 c 2,8,-1
 899 1172 l 1,9,-1
 592 674 l 2,10,11
 573 643 573 643 548 643 c 0,12,13
 524 643 524 643 506 674 c 2,14,-1
 200 1171 l 1,15,-1
 200 51 l 2,16,17
 200 27 200 27 186 13 c 0,18,19
 172 1 172 1 150 1 c 0,20,21
 141 1 141 1 115 13 c 1,22,23
 100 25 100 25 100 51 c 2,24,-1
 100 1349 l 2,25,26
 100 1376 100 1376 112.5 1391.5 c 128,-1,27
 125 1407 125 1407 145 1407 c 0,28,29
 159 1407 159 1407 170 1400 c 0,30,31
 174 1399 174 1399 193 1375 c 2,32,-1
 549 795 l 1,33,-1
 906 1375 l 2,34,35
 926 1407 926 1407 954 1407 c 0,36,37
 972 1407 972 1407 985.5 1391 c 128,-1,38
 999 1375 999 1375 999 1349 c 2,39,-1
 999 51 l 2,0,1
EndSplineSet
EndChar

StartChar: N
Encoding: 78 78 144
Width: 900
Flags: W
LayerCount: 2
Back
Fore
SplineSet
801 50 m 2,0,1
 801 37 801 37 786 13 c 1,2,3
 770 0 770 0 751 0 c 1,4,-1
 726 6 l 1,5,-1
 706 29 l 1,6,-1
 200 1123 l 1,7,-1
 200 50 l 2,8,9
 200 26 200 26 186 12 c 0,10,11
 172 0 172 0 150 0 c 0,12,13
 141 0 141 0 115 12 c 1,14,15
 100 24 100 24 100 50 c 2,16,-1
 100 1350 l 2,17,18
 100 1366 100 1366 115 1383 c 128,-1,19
 130 1400 130 1400 150 1400 c 0,20,21
 162 1400 162 1400 174.5 1394 c 128,-1,22
 187 1388 187 1388 195 1371 c 2,23,-1
 701 277 l 1,24,-1
 701 1350 l 2,25,26
 701 1366 701 1366 716 1383 c 128,-1,27
 731 1400 731 1400 751 1400 c 0,28,29
 769 1400 769 1400 785 1387 c 128,-1,30
 801 1374 801 1374 801 1350 c 2,31,-1
 801 50 l 2,0,1
EndSplineSet
EndChar

StartChar: O
Encoding: 79 79 145
Width: 900
Flags: W
LayerCount: 2
Back
Fore
SplineSet
801 300 m 2,0,1
 801 177 801 177 713 88.5 c 128,-1,2
 625 0 625 0 500 0 c 2,3,-1
 400 0 l 2,4,5
 285 0 285 0 192.5 87 c 128,-1,6
 100 174 100 174 100 300 c 2,7,-1
 100 1100 l 2,8,9
 100 1220 100 1220 187 1310 c 128,-1,10
 274 1400 274 1400 400 1400 c 2,11,-1
 500 1400 l 2,12,13
 623 1400 623 1400 712 1312.5 c 128,-1,14
 801 1225 801 1225 801 1100 c 2,15,-1
 801 300 l 2,0,1
701 300 m 2,16,-1
 701 1100 l 2,17,18
 701 1182 701 1182 642 1241 c 128,-1,19
 583 1300 583 1300 500 1300 c 2,20,-1
 400 1300 l 2,21,22
 317 1300 317 1300 258.5 1241.5 c 128,-1,23
 200 1183 200 1183 200 1100 c 2,24,-1
 200 300 l 2,25,26
 200 219 200 219 260.5 159.5 c 128,-1,27
 321 100 321 100 400 100 c 2,28,-1
 500 100 l 2,29,30
 581 100 581 100 641 157 c 128,-1,31
 701 214 701 214 701 300 c 2,16,-1
EndSplineSet
EndChar

StartChar: P
Encoding: 80 80 146
Width: 900
Flags: W
LayerCount: 2
Back
Fore
SplineSet
200 701 m 1,0,-1
 500 701 l 2,1,2
 581 701 581 701 641 758 c 128,-1,3
 701 815 701 815 701 899 c 2,4,-1
 701 1100 l 2,5,6
 701 1181 701 1181 642 1240 c 128,-1,7
 583 1299 583 1299 500 1299 c 2,8,-1
 200 1299 l 1,9,-1
 200 701 l 1,0,-1
200 601 m 1,10,-1
 200 51 l 2,11,12
 200 27 200 27 186 13 c 0,13,14
 172 1 172 1 150 1 c 0,15,16
 141 1 141 1 115 13 c 1,17,18
 100 25 100 25 100 51 c 2,19,-1
 100 1349 l 2,20,21
 100 1399 100 1399 150 1399 c 2,22,-1
 500 1399 l 2,23,24
 623 1399 623 1399 713 1312 c 0,25,26
 757 1270 757 1270 779 1216 c 1,27,-1
 794 1163 l 1,28,-1
 799 1131 l 1,29,-1
 801 1100 l 1,30,-1
 801 899 l 2,31,32
 801 776 801 776 713.5 688.5 c 128,-1,33
 626 601 626 601 500 601 c 2,34,-1
 200 601 l 1,10,-1
EndSplineSet
EndChar

StartChar: Q
Encoding: 81 81 147
Width: 1000
Flags: W
LayerCount: 2
Back
Fore
SplineSet
655 175 m 1,0,-1
 415 415 l 2,1,2
 400 430 400 430 400 449 c 0,3,4
 400 470 400 470 415 485 c 128,-1,5
 430 500 430 500 451 500 c 0,6,7
 459 500 459 500 485 485 c 1,8,-1
 697 273 l 1,9,-1
 699 300 l 1,10,-1
 699 1100 l 2,11,12
 699 1182 699 1182 641.5 1241 c 128,-1,13
 584 1300 584 1300 500 1300 c 2,14,-1
 400 1300 l 2,15,16
 317 1300 317 1300 258.5 1241.5 c 128,-1,17
 200 1183 200 1183 200 1100 c 2,18,-1
 200 300 l 2,19,20
 200 219 200 219 260.5 159.5 c 128,-1,21
 321 100 321 100 400 100 c 2,22,-1
 500 100 l 2,23,24
 549 100 549 100 586.5 117.5 c 128,-1,25
 624 135 624 135 655 175 c 1,0,-1
779 191 m 1,26,-1
 885 85 l 2,27,28
 900 70 900 70 900 51 c 0,29,30
 900 30 900 30 885 15 c 128,-1,31
 870 0 870 0 849 0 c 0,32,33
 841 0 841 0 815 15 c 1,34,-1
 726 103 l 1,35,36
 690 58 690 58 627 28 c 0,37,38
 592 14 592 14 565 7 c 2,39,-1
 534 2 l 1,40,-1
 500 0 l 1,41,-1
 400 0 l 2,42,43
 285 0 285 0 192.5 87 c 128,-1,44
 100 174 100 174 100 300 c 2,45,-1
 100 1100 l 2,46,47
 100 1220 100 1220 187 1310 c 128,-1,48
 274 1400 274 1400 400 1400 c 2,49,-1
 500 1400 l 2,50,51
 622 1400 622 1400 710.5 1312.5 c 128,-1,52
 799 1225 799 1225 799 1100 c 2,53,-1
 799 300 l 1,54,-1
 799 264 l 1,55,-1
 794 235 l 2,56,57
 794 227 794 227 779 191 c 1,26,-1
EndSplineSet
EndChar

StartChar: R
Encoding: 82 82 148
Width: 900
Flags: W
LayerCount: 2
Back
Fore
SplineSet
200 701 m 1,0,-1
 500 701 l 2,1,2
 581 701 581 701 641 758 c 128,-1,3
 701 815 701 815 701 900 c 2,4,-1
 701 1100 l 2,5,6
 701 1182 701 1182 642 1241 c 128,-1,7
 583 1300 583 1300 500 1300 c 2,8,-1
 200 1300 l 1,9,-1
 200 701 l 1,0,-1
487 601 m 1,10,-1
 794 75 l 2,11,12
 801 64 801 64 801 49 c 0,13,14
 801 31 801 31 785 14 c 0,15,16
 769 0 769 0 749 0 c 0,17,18
 736 0 736 0 726 5 c 0,19,20
 716 12 716 12 708 25 c 2,21,-1
 372 601 l 1,22,-1
 200 601 l 1,23,-1
 200 50 l 2,24,25
 200 26 200 26 186 12 c 0,26,27
 172 0 172 0 150 0 c 0,28,29
 141 0 141 0 115 12 c 1,30,31
 100 24 100 24 100 50 c 2,32,-1
 100 1350 l 2,33,34
 100 1400 100 1400 150 1400 c 2,35,-1
 500 1400 l 2,36,37
 623 1400 623 1400 712 1312.5 c 128,-1,38
 801 1225 801 1225 801 1100 c 2,39,-1
 801 900 l 2,40,41
 801 777 801 777 713 689 c 128,-1,42
 625 601 625 601 500 601 c 2,43,-1
 487 601 l 1,10,-1
EndSplineSet
EndChar

StartChar: S
Encoding: 83 83 149
Width: 900
Flags: W
LayerCount: 2
Back
Fore
SplineSet
779 1330 m 0,0,1
 785 1327 785 1327 791 1318 c 128,-1,2
 797 1309 797 1309 802 1289 c 1,3,4
 802 1270 802 1270 786 1253.5 c 128,-1,5
 770 1237 770 1237 751 1237 c 1,6,-1
 723 1246 l 1,7,8
 646 1300 646 1300 550 1300 c 2,9,-1
 403 1300 l 2,10,11
 316 1300 316 1300 259.5 1240.5 c 128,-1,12
 203 1181 203 1181 203 1100 c 1,13,-1
 206 1060 l 1,14,-1
 210 1041 l 1,15,-1
 217 1023 l 2,16,17
 230 997 230 997 263 958 c 1,18,-1
 708 511 l 2,19,20
 752 468 752 468 774 413 c 2,21,-1
 782 390 l 1,22,-1
 792 352 l 1,23,-1
 796 329 l 1,24,-1
 797 300 l 1,25,26
 797 179 797 179 715 93 c 0,27,28
 628 0 628 0 496 0 c 2,29,-1
 350 0 l 2,30,31
 223 0 223 0 122 71 c 1,32,-1
 105 89 l 1,33,-1
 100 111 l 2,34,35
 100 126 100 126 115 144 c 128,-1,36
 130 162 130 162 149 162 c 1,37,-1
 178 153 l 1,38,39
 257 100 257 100 350 100 c 2,40,-1
 496 100 l 2,41,42
 577 100 577 100 637 160 c 128,-1,43
 697 220 697 220 697 301 c 1,44,-1
 694 335 l 2,45,46
 693 343 693 343 690 352.5 c 128,-1,47
 687 362 687 362 683 371 c 0,48,49
 672 405 672 405 638 442 c 2,50,-1
 191 889 l 2,51,52
 156 924 156 924 123 987 c 1,53,54
 102 1041 102 1041 102 1100 c 0,55,56
 102 1221 102 1221 184 1307 c 0,57,58
 271 1400 271 1400 403 1400 c 2,59,-1
 550 1400 l 2,60,61
 601 1400 601 1400 665 1382 c 128,-1,62
 729 1364 729 1364 779 1330 c 0,0,1
EndSplineSet
EndChar

StartChar: T
Encoding: 84 84 150
Width: 900
Flags: W
LayerCount: 2
Back
Fore
SplineSet
400 1300 m 1,0,-1
 150 1300 l 2,1,2
 127 1300 127 1300 113 1314 c 0,3,4
 100 1330 100 1330 100 1350 c 0,5,6
 100 1361 100 1361 112.5 1380.5 c 128,-1,7
 125 1400 125 1400 150 1400 c 2,8,-1
 751 1400 l 2,9,10
 769 1400 769 1400 785 1384 c 128,-1,11
 801 1368 801 1368 801 1350 c 256,12,13
 801 1332 801 1332 788 1316 c 128,-1,14
 775 1300 775 1300 751 1300 c 2,15,-1
 500 1300 l 1,16,-1
 500 50 l 2,17,18
 500 26 500 26 486 12 c 0,19,20
 472 0 472 0 450 0 c 0,21,22
 441 0 441 0 415 12 c 1,23,24
 400 24 400 24 400 50 c 2,25,-1
 400 1300 l 1,0,-1
EndSplineSet
EndChar

StartChar: U
Encoding: 85 85 151
Width: 900
Flags: W
LayerCount: 2
Back
Fore
SplineSet
801 300 m 2,0,1
 801 177 801 177 713 88.5 c 128,-1,2
 625 0 625 0 500 0 c 2,3,-1
 400 0 l 2,4,5
 285 0 285 0 192.5 87 c 128,-1,6
 100 174 100 174 100 300 c 2,7,-1
 100 1350 l 2,8,9
 100 1366 100 1366 115 1383 c 128,-1,10
 130 1400 130 1400 150 1400 c 0,11,12
 168 1400 168 1400 184 1387 c 128,-1,13
 200 1374 200 1374 200 1350 c 2,14,-1
 200 300 l 2,15,16
 200 219 200 219 260.5 159.5 c 128,-1,17
 321 100 321 100 400 100 c 2,18,-1
 500 100 l 2,19,20
 581 100 581 100 641 157 c 128,-1,21
 701 214 701 214 701 300 c 2,22,-1
 701 1350 l 2,23,24
 701 1366 701 1366 716 1383 c 128,-1,25
 731 1400 731 1400 751 1400 c 0,26,27
 769 1400 769 1400 785 1387 c 128,-1,28
 801 1374 801 1374 801 1350 c 2,29,-1
 801 300 l 2,0,1
EndSplineSet
EndChar

StartChar: V
Encoding: 86 86 152
Width: 1000
Flags: W
LayerCount: 2
Back
Fore
SplineSet
896 1335 m 1,0,-1
 546 45 l 2,1,2
 534 0 534 0 498 0 c 256,3,4
 462 0 462 0 450 45 c 2,5,-1
 100 1335 l 1,6,-1
 98 1350 l 2,7,8
 98 1368 98 1368 113 1383 c 128,-1,9
 128 1398 128 1398 149 1398 c 0,10,11
 161 1398 161 1398 172 1390 c 0,12,13
 185 1384 185 1384 196 1361 c 1,14,-1
 498 249 l 1,15,-1
 800 1361 l 2,16,17
 803 1374 803 1374 815 1386 c 0,18,19
 827 1395 827 1395 847 1398 c 0,20,21
 867 1398 867 1398 882.5 1384.5 c 128,-1,22
 898 1371 898 1371 898 1349 c 2,23,-1
 896 1335 l 1,0,-1
EndSplineSet
EndChar

StartChar: W
Encoding: 87 87 153
Width: 1400
Flags: W
LayerCount: 2
Back
Fore
SplineSet
1297 1341 m 1,0,-1
 1048 49 l 2,1,2
 1045 28 1045 28 1032.5 15.5 c 128,-1,3
 1020 3 1020 3 1000 0 c 0,4,5
 967 0 967 0 952 42 c 2,6,-1
 699 801 l 1,7,-1
 447 42 l 2,8,9
 432 0 432 0 399 0 c 0,10,11
 393 0 393 0 370 12 c 1,12,-1
 351 49 l 1,13,-1
 100 1341 l 1,14,-1
 99 1353 l 2,15,16
 99 1367 99 1367 114.5 1383.5 c 128,-1,17
 130 1400 130 1400 149 1400 c 0,18,19
 188 1400 188 1400 198 1359 c 2,20,-1
 413 254 l 1,21,-1
 652 974 l 2,22,23
 667 1017 667 1017 699 1017 c 0,24,25
 722 1017 722 1017 746 974 c 1,26,-1
 986 254 l 1,27,-1
 1199 1359 l 2,28,29
 1202 1379 1202 1379 1216 1389.5 c 128,-1,30
 1230 1400 1230 1400 1247 1400 c 0,31,32
 1269 1400 1269 1400 1283.5 1387.5 c 128,-1,33
 1298 1375 1298 1375 1298 1352 c 2,34,-1
 1297 1341 l 1,0,-1
EndSplineSet
EndChar

StartChar: X
Encoding: 88 88 154
Width: 1000
Flags: W
LayerCount: 2
Back
Fore
SplineSet
501 807 m 1,0,-1
 807 1375 l 2,1,2
 821 1402 821 1402 850 1402 c 0,3,4
 872 1402 872 1402 887 1388 c 128,-1,5
 902 1374 902 1374 902 1353 c 0,6,7
 902 1341 902 1341 895 1327 c 2,8,-1
 558 701 l 1,9,-1
 895 75 l 2,10,11
 902 64 902 64 902 49 c 0,12,13
 902 31 902 31 886 14 c 0,14,15
 870 0 870 0 849 0 c 0,16,17
 822 0 822 0 807 27 c 2,18,-1
 501 595 l 1,19,-1
 195 27 l 2,20,21
 181 0 181 0 152 0 c 0,22,23
 130 0 130 0 115 14 c 128,-1,24
 100 28 100 28 100 49 c 0,25,26
 100 61 100 61 107 75 c 2,27,-1
 444 701 l 1,28,-1
 107 1327 l 1,29,-1
 100 1353 l 2,30,31
 100 1364 100 1364 115 1383 c 128,-1,32
 130 1402 130 1402 153 1402 c 0,33,34
 180 1402 180 1402 195 1375 c 2,35,-1
 501 807 l 1,0,-1
EndSplineSet
EndChar

StartChar: Y
Encoding: 89 89 155
Width: 1000
Flags: W
LayerCount: 2
Back
Fore
SplineSet
451 687 m 1,0,-1
 107 1326 l 1,1,-1
 100 1352 l 2,2,3
 100 1363 100 1363 115 1382 c 128,-1,4
 130 1401 130 1401 153 1401 c 0,5,6
 180 1401 180 1401 195 1374 c 2,7,-1
 501 806 l 1,8,-1
 807 1374 l 2,9,10
 821 1401 821 1401 850 1401 c 0,11,12
 872 1401 872 1401 887 1387 c 128,-1,13
 902 1373 902 1373 902 1352 c 0,14,15
 902 1340 902 1340 895 1326 c 2,16,-1
 551 687 l 1,17,-1
 551 50 l 2,18,19
 551 26 551 26 537 12 c 0,20,21
 523 0 523 0 501 0 c 0,22,23
 492 0 492 0 466 12 c 1,24,25
 451 24 451 24 451 50 c 2,26,-1
 451 687 l 1,0,-1
EndSplineSet
EndChar

StartChar: Z
Encoding: 90 90 156
Width: 900
Flags: W
LayerCount: 2
Back
Fore
SplineSet
798 1329 m 1,0,-1
 230 100 l 1,1,-1
 753 100 l 2,2,3
 771 100 771 100 787 84 c 128,-1,4
 803 68 803 68 803 50 c 256,5,6
 803 32 803 32 790 16 c 128,-1,7
 777 0 777 0 753 0 c 2,8,-1
 152 0 l 2,9,10
 99 0 99 0 99 40 c 2,11,-1
 100 56 l 1,12,-1
 101 62 l 1,13,-1
 107 71 l 1,14,-1
 675 1300 l 1,15,-1
 152 1300 l 2,16,17
 129 1300 129 1300 115 1314 c 0,18,19
 102 1330 102 1330 102 1350 c 0,20,21
 102 1361 102 1361 114.5 1380.5 c 128,-1,22
 127 1400 127 1400 152 1400 c 2,23,-1
 753 1400 l 2,24,25
 806 1400 806 1400 806 1360 c 2,26,-1
 805 1344 l 1,27,-1
 803 1338 l 1,28,-1
 798 1329 l 1,0,-1
EndSplineSet
EndChar

StartChar: bracketleft
Encoding: 91 91 157
Width: 400
Flags: W
LayerCount: 2
Back
Fore
SplineSet
300 -100 m 2,0,-1
 150 -100 l 2,1,2
 100 -100 100 -100 100 -50 c 2,3,-1
 100 1450 l 2,4,5
 100 1500 100 1500 150 1500 c 2,6,-1
 300 1500 l 2,7,8
 318 1500 318 1500 334 1484 c 128,-1,9
 350 1468 350 1468 350 1450 c 256,10,11
 350 1432 350 1432 337 1416 c 128,-1,12
 324 1400 324 1400 300 1400 c 2,13,-1
 200 1400 l 1,14,-1
 200 0 l 1,15,-1
 300 0 l 2,16,17
 318 0 318 0 334 -15 c 128,-1,18
 350 -30 350 -30 350 -50 c 0,19,20
 350 -68 350 -68 337 -84 c 128,-1,21
 324 -100 324 -100 300 -100 c 2,0,-1
EndSplineSet
EndChar

StartChar: backslash
Encoding: 92 92 158
Width: 1100
Flags: W
LayerCount: 2
Back
Fore
SplineSet
999 -140 m 1,0,-1
 1004 -162 l 1,1,2
 1004 -183 1004 -183 988 -196.5 c 128,-1,3
 972 -210 972 -210 952 -210 c 0,4,5
 938 -210 938 -210 926 -202 c 0,6,7
 914 -196 914 -196 907 -180 c 2,8,-1
 104 1520 l 1,9,-1
 99 1542 l 2,10,11
 99 1560 99 1560 114 1575 c 128,-1,12
 129 1590 129 1590 151 1590 c 0,13,14
 165 1590 165 1590 177 1582 c 0,15,16
 189 1576 189 1576 196 1560 c 2,17,-1
 999 -140 l 1,0,-1
EndSplineSet
EndChar

StartChar: bracketright
Encoding: 93 93 159
Width: 400
Flags: W
LayerCount: 2
Back
Fore
SplineSet
300 -50 m 2,0,1
 300 -100 300 -100 250 -100 c 2,2,-1
 100 -100 l 2,3,4
 87 -100 87 -100 63 -85 c 1,5,6
 50 -69 50 -69 50 -50 c 0,7,8
 50 -41 50 -41 62 -15 c 1,9,10
 74 0 74 0 100 0 c 2,11,-1
 200 0 l 1,12,-1
 200 1400 l 1,13,-1
 100 1400 l 2,14,15
 77 1400 77 1400 63 1414 c 0,16,17
 50 1430 50 1430 50 1450 c 0,18,19
 50 1461 50 1461 62.5 1480.5 c 128,-1,20
 75 1500 75 1500 100 1500 c 2,21,-1
 250 1500 l 2,22,23
 300 1500 300 1500 300 1450 c 2,24,-1
 300 -50 l 2,0,1
EndSplineSet
EndChar

StartChar: asciicircum
Encoding: 94 94 160
Width: 700
Flags: W
LayerCount: 2
Back
Fore
SplineSet
676 1318 m 1,0,1
 676 1318 676 1318 676 1301 c 0,2,3
 676 1283 676 1283 660 1267 c 128,-1,4
 644 1251 644 1251 600 1251 c 1,5,6
 600 1251 600 1251 349 1596 c 1,7,8
 99 1251 99 1251 99 1251 c 1,9,10
 57 1251 57 1251 39 1266 c 0,11,12
 23 1282 23 1282 23 1302 c 0,13,14
 23 1318 23 1318 23 1318 c 1,15,-1
 331 1731 l 1,16,17
 351 1743 351 1743 368 1731 c 1,18,-1
 676 1318 l 1,0,1
EndSplineSet
EndChar

StartChar: underscore
Encoding: 95 95 161
Width: 800
Flags: W
LayerCount: 2
Back
Fore
SplineSet
800 -200 m 1,0,-1
 0 -200 l 1,1,-1
 0 -100 l 1,2,-1
 800 -100 l 1,3,-1
 800 -200 l 1,0,-1
EndSplineSet
EndChar

StartChar: grave
Encoding: 96 96 162
Width: 422
Flags: W
LayerCount: 2
Back
Fore
SplineSet
159 1560 m 2,0,-1
 327 1376 l 2,1,2
 345 1357 345 1357 342 1336.5 c 128,-1,3
 339 1316 339 1316 325 1303.5 c 128,-1,4
 311 1291 311 1291 291 1290 c 128,-1,5
 271 1289 271 1289 253 1308 c 2,6,-1
 85 1492 l 2,7,8
 67 1511 67 1511 70 1531 c 128,-1,9
 73 1551 73 1551 87 1564 c 128,-1,10
 101 1577 101 1577 121 1578 c 128,-1,11
 141 1579 141 1579 159 1560 c 2,0,-1
EndSplineSet
EndChar

StartChar: a
Encoding: 97 97 163
Width: 920
Flags: W
LayerCount: 2
Back
Fore
SplineSet
589 200 m 2,0,-1
 589 900 l 1,1,-1
 289 900 l 2,2,3
 247 900 247 900 218 871 c 128,-1,4
 189 842 189 842 189 800 c 2,5,-1
 189 200 l 2,6,7
 189 158 189 158 218 129 c 128,-1,8
 247 100 247 100 289 100 c 2,9,-1
 489 100 l 2,10,11
 531 100 531 100 560 129 c 128,-1,12
 589 158 589 158 589 200 c 2,0,-1
757 96 m 1,13,14
 793 84 793 84 793 49 c 0,15,16
 793 27 793 27 779 12 c 0,17,18
 767 -3 767 -3 745 -3 c 2,19,-1
 727 0 l 2,20,21
 705 6 705 6 679 28 c 0,22,23
 670 33 670 33 639 67 c 1,24,25
 580 0 580 0 489 0 c 2,26,-1
 289 0 l 2,27,28
 205 0 205 0 147 58 c 128,-1,29
 89 116 89 116 89 200 c 2,30,-1
 89 800 l 2,31,32
 89 875 89 875 146 937.5 c 128,-1,33
 203 1000 203 1000 289 1000 c 2,34,-1
 639 1000 l 2,35,36
 689 1000 689 1000 689 950 c 2,37,-1
 689 200 l 2,38,39
 689 170 689 170 707 137 c 0,40,41
 722 114 722 114 757 96 c 1,13,14
EndSplineSet
EndChar

StartChar: b
Encoding: 98 98 164
Width: 800
Flags: W
LayerCount: 2
Back
Fore
SplineSet
200 900 m 1,0,-1
 200 100 l 1,1,-1
 499 100 l 2,2,3
 541 100 541 100 570.5 129.5 c 128,-1,4
 600 159 600 159 600 200 c 2,5,-1
 600 800 l 2,6,7
 600 842 600 842 571 871 c 128,-1,8
 542 900 542 900 499 900 c 2,9,-1
 200 900 l 1,0,-1
200 1000 m 1,10,-1
 499 1000 l 2,11,12
 583 1000 583 1000 641.5 942.5 c 128,-1,13
 700 885 700 885 700 800 c 2,14,-1
 700 200 l 2,15,16
 700 118 700 118 642.5 59 c 128,-1,17
 585 0 585 0 499 0 c 2,18,-1
 150 0 l 2,19,20
 100 0 100 0 100 50 c 2,21,-1
 100 1350 l 2,22,23
 100 1366 100 1366 115 1383 c 128,-1,24
 130 1400 130 1400 150 1400 c 0,25,26
 168 1400 168 1400 184 1387 c 128,-1,27
 200 1374 200 1374 200 1350 c 2,28,-1
 200 1000 l 1,10,-1
EndSplineSet
EndChar

StartChar: c
Encoding: 99 99 165
Width: 800
Flags: W
LayerCount: 2
Back
Fore
SplineSet
650 0 m 2,0,-1
 300 0 l 2,1,2
 216 0 216 0 158 58 c 128,-1,3
 100 116 100 116 100 200 c 2,4,-1
 100 800 l 2,5,6
 100 875 100 875 157 937.5 c 128,-1,7
 214 1000 214 1000 300 1000 c 2,8,-1
 650 1000 l 2,9,10
 668 1000 668 1000 684 984 c 128,-1,11
 700 968 700 968 700 950 c 256,12,13
 700 932 700 932 687 916 c 128,-1,14
 674 900 674 900 650 900 c 2,15,-1
 300 900 l 2,16,17
 258 900 258 900 229 871 c 128,-1,18
 200 842 200 842 200 800 c 2,19,-1
 200 200 l 2,20,21
 200 158 200 158 229 129 c 128,-1,22
 258 100 258 100 300 100 c 2,23,-1
 650 100 l 2,24,25
 668 100 668 100 684 84 c 128,-1,26
 700 68 700 68 700 50 c 256,27,28
 700 32 700 32 687 16 c 128,-1,29
 674 0 674 0 650 0 c 2,0,-1
EndSplineSet
EndChar

StartChar: d
Encoding: 100 100 166
Width: 800
Flags: W
LayerCount: 2
Back
Fore
SplineSet
600 900 m 1,0,-1
 301 900 l 2,1,2
 259 900 259 900 229.5 870.5 c 128,-1,3
 200 841 200 841 200 800 c 2,4,-1
 200 200 l 2,5,6
 200 158 200 158 229 129 c 128,-1,7
 258 100 258 100 301 100 c 2,8,-1
 600 100 l 1,9,-1
 600 900 l 1,0,-1
600 1000 m 1,10,-1
 600 1350 l 2,11,12
 600 1366 600 1366 615 1383 c 128,-1,13
 630 1400 630 1400 650 1400 c 0,14,15
 668 1400 668 1400 684 1387 c 128,-1,16
 700 1374 700 1374 700 1350 c 2,17,-1
 700 50 l 2,18,19
 700 0 700 0 650 0 c 2,20,-1
 301 0 l 2,21,22
 218 0 218 0 159 59 c 128,-1,23
 100 118 100 118 100 200 c 2,24,-1
 100 800 l 2,25,26
 100 884 100 884 158 942 c 128,-1,27
 216 1000 216 1000 301 1000 c 2,28,-1
 600 1000 l 1,10,-1
EndSplineSet
EndChar

StartChar: e
Encoding: 101 101 167
Width: 800
Flags: W
LayerCount: 2
Back
Fore
SplineSet
200 549 m 1,0,-1
 600 549 l 1,1,-1
 600 799 l 2,2,3
 600 841 600 841 571 870 c 128,-1,4
 542 899 542 899 500 899 c 2,5,-1
 299 899 l 2,6,7
 258 899 258 899 229 870 c 128,-1,8
 200 841 200 841 200 799 c 2,9,-1
 200 549 l 1,0,-1
200 450 m 1,10,-1
 200 200 l 2,11,12
 200 158 200 158 229 129 c 128,-1,13
 258 100 258 100 299 100 c 2,14,-1
 649 100 l 2,15,16
 667 100 667 100 683 84 c 128,-1,17
 699 68 699 68 699 50 c 256,18,19
 699 32 699 32 686 16 c 128,-1,20
 673 0 673 0 649 0 c 2,21,-1
 299 0 l 2,22,23
 216 0 216 0 158 58 c 128,-1,24
 100 116 100 116 100 200 c 2,25,-1
 100 799 l 2,26,27
 100 874 100 874 157 936.5 c 128,-1,28
 214 999 214 999 299 999 c 2,29,-1
 500 999 l 2,30,31
 584 999 584 999 642 941 c 128,-1,32
 700 883 700 883 700 799 c 2,33,-1
 700 500 l 2,34,35
 700 450 700 450 649 450 c 2,36,-1
 200 450 l 1,10,-1
EndSplineSet
EndChar

StartChar: f
Encoding: 102 102 168
Width: 600
Flags: W
LayerCount: 2
Back
Fore
SplineSet
298 1000 m 1,0,-1
 449 1000 l 2,1,2
 467 1000 467 1000 483 984 c 128,-1,3
 499 968 499 968 499 950 c 256,4,5
 499 932 499 932 486 916 c 128,-1,6
 473 900 473 900 449 900 c 2,7,-1
 298 900 l 1,8,-1
 298 50 l 2,9,10
 298 26 298 26 284 12 c 0,11,12
 270 0 270 0 248 0 c 0,13,14
 239 0 239 0 213 12 c 1,15,16
 198 24 198 24 198 50 c 2,17,-1
 198 900 l 1,18,-1
 150 900 l 2,19,20
 127 900 127 900 113 914 c 0,21,22
 100 930 100 930 100 950 c 0,23,24
 100 961 100 961 112.5 980.5 c 128,-1,25
 125 1000 125 1000 150 1000 c 2,26,-1
 198 1000 l 1,27,-1
 198 1201 l 2,28,29
 198 1282 198 1282 257 1341 c 128,-1,30
 316 1400 316 1400 399 1400 c 2,31,-1
 449 1400 l 2,32,33
 467 1400 467 1400 483 1384 c 128,-1,34
 499 1368 499 1368 499 1350 c 256,35,36
 499 1332 499 1332 486 1316 c 128,-1,37
 473 1300 473 1300 449 1300 c 2,38,-1
 399 1300 l 2,39,40
 358 1300 358 1300 328 1271 c 128,-1,41
 298 1242 298 1242 298 1201 c 2,42,-1
 298 1000 l 1,0,-1
EndSplineSet
EndChar

StartChar: g
Encoding: 103 103 169
Width: 800
Flags: W
LayerCount: 2
Back
Fore
SplineSet
600 100 m 1,0,-1
 600 901 l 1,1,-1
 301 901 l 2,2,3
 260 901 260 901 230 872 c 128,-1,4
 200 843 200 843 200 802 c 2,5,-1
 200 201 l 2,6,7
 200 159 200 159 230.5 129.5 c 128,-1,8
 261 100 261 100 301 100 c 2,9,-1
 600 100 l 1,0,-1
600 0 m 1,10,-1
 301 0 l 2,11,12
 218 0 218 0 159 59 c 128,-1,13
 100 118 100 118 100 201 c 2,14,-1
 100 802 l 2,15,16
 100 883 100 883 158.5 942 c 128,-1,17
 217 1001 217 1001 301 1001 c 2,18,-1
 650 1001 l 2,19,20
 700 1001 700 1001 700 951 c 2,21,-1
 700 -199 l 2,22,23
 700 -281 700 -281 642.5 -340 c 128,-1,24
 585 -399 585 -399 501 -399 c 2,25,-1
 150 -399 l 2,26,27
 137 -399 137 -399 113 -384 c 1,28,29
 100 -368 100 -368 100 -349 c 0,30,31
 100 -340 100 -340 112 -314 c 1,32,33
 124 -299 124 -299 150 -299 c 2,34,-1
 501 -299 l 2,35,36
 542 -299 542 -299 571 -270 c 128,-1,37
 600 -241 600 -241 600 -199 c 2,38,-1
 600 0 l 1,10,-1
EndSplineSet
EndChar

StartChar: h
Encoding: 104 104 170
Width: 800
Flags: W
LayerCount: 2
Back
Fore
SplineSet
200 1000 m 1,0,-1
 499 1000 l 2,1,2
 583 1000 583 1000 641.5 942.5 c 128,-1,3
 700 885 700 885 700 800 c 2,4,-1
 700 50 l 2,5,6
 700 26 700 26 686 12 c 0,7,8
 672 0 672 0 650 0 c 0,9,10
 641 0 641 0 615 12 c 1,11,12
 600 24 600 24 600 50 c 2,13,-1
 600 800 l 2,14,15
 600 842 600 842 571 871 c 128,-1,16
 542 900 542 900 499 900 c 2,17,-1
 200 900 l 1,18,-1
 200 50 l 2,19,20
 200 26 200 26 186 12 c 0,21,22
 172 0 172 0 150 0 c 0,23,24
 141 0 141 0 115 12 c 1,25,26
 100 24 100 24 100 50 c 2,27,-1
 100 1350 l 2,28,29
 100 1366 100 1366 115 1383 c 128,-1,30
 130 1400 130 1400 150 1400 c 0,31,32
 168 1400 168 1400 184 1387 c 128,-1,33
 200 1374 200 1374 200 1350 c 2,34,-1
 200 1000 l 1,0,-1
EndSplineSet
EndChar

StartChar: i
Encoding: 105 105 171
Width: 300
Flags: W
LayerCount: 2
Back
Fore
SplineSet
150 1400 m 0,0,1
 165 1400 165 1400 182.5 1385.5 c 128,-1,2
 200 1371 200 1371 200 1350 c 0,3,4
 200 1332 200 1332 187.5 1316.5 c 128,-1,5
 175 1301 175 1301 150 1301 c 0,6,7
 126 1301 126 1301 113.5 1315 c 128,-1,8
 101 1329 101 1329 101 1350 c 0,9,10
 101 1361 101 1361 113.5 1380.5 c 128,-1,11
 126 1400 126 1400 150 1400 c 0,0,1
200 951 m 2,12,-1
 200 50 l 2,13,14
 200 34 200 34 185 13 c 1,15,16
 169 0 169 0 151 0 c 0,17,18
 142 0 142 0 116 12 c 1,19,20
 101 24 101 24 101 50 c 2,21,-1
 101 951 l 2,22,23
 101 964 101 964 116 982 c 128,-1,24
 131 1000 131 1000 151 1000 c 0,25,26
 169 1000 169 1000 184.5 987.5 c 128,-1,27
 200 975 200 975 200 951 c 2,12,-1
EndSplineSet
EndChar

StartChar: j
Encoding: 106 106 172
Width: 392
Flags: W
LayerCount: 2
Back
Fore
SplineSet
242 1300 m 256,0,1
 217 1300 217 1300 203 1314 c 0,2,3
 190 1330 190 1330 190 1351 c 256,4,5
 190 1372 190 1372 202 1387 c 128,-1,6
 214 1402 214 1402 242 1402 c 0,7,8
 263 1402 263 1402 279 1386 c 128,-1,9
 295 1370 295 1370 295 1351 c 0,10,11
 295 1329 295 1329 281 1314.5 c 128,-1,12
 267 1300 267 1300 242 1300 c 256,0,1
292 -243 m 2,13,14
 292 -294 292 -294 279 -320.5 c 128,-1,15
 266 -347 266 -347 233 -388 c 1,16,17
 174 -448 174 -448 89 -448 c 2,18,-1
 37 -448 l 2,19,20
 22 -448 22 -448 4.5 -433.5 c 128,-1,21
 -13 -419 -13 -419 -13 -398 c 0,22,23
 -13 -380 -13 -380 0 -364 c 128,-1,24
 13 -348 13 -348 37 -348 c 2,25,-1
 89 -348 l 2,26,27
 131 -348 131 -348 161.5 -317 c 128,-1,28
 192 -286 192 -286 192 -243 c 2,29,-1
 192 940 l 2,30,31
 192 956 192 956 207 973 c 128,-1,32
 222 990 222 990 242 990 c 0,33,34
 260 990 260 990 276 977 c 128,-1,35
 292 964 292 964 292 940 c 2,36,-1
 292 -243 l 2,13,14
EndSplineSet
EndChar

StartChar: k
Encoding: 107 107 173
Width: 800
Flags: W
LayerCount: 2
Back
Fore
SplineSet
379 573 m 1,0,-1
 693 77 l 1,1,-1
 701 49 l 1,2,3
 701 31 701 31 685 14 c 0,4,5
 669 0 669 0 649 0 c 0,6,7
 636 0 636 0 627 5 c 128,-1,8
 618 10 618 10 609 23 c 2,9,-1
 310 496 l 1,10,-1
 201 375 l 1,11,-1
 201 50 l 2,12,13
 201 26 201 26 187 12 c 0,14,15
 173 0 173 0 151 0 c 0,16,17
 142 0 142 0 116 12 c 1,18,19
 101 24 101 24 101 50 c 2,20,-1
 101 1350 l 2,21,22
 101 1366 101 1366 116 1383 c 128,-1,23
 131 1400 131 1400 151 1400 c 0,24,25
 169 1400 169 1400 185 1387 c 128,-1,26
 201 1374 201 1374 201 1350 c 2,27,-1
 201 525 l 1,28,-1
 615 984 l 2,29,30
 632 1002 632 1002 652 1002 c 0,31,32
 670 1002 670 1002 686.5 986.5 c 128,-1,33
 703 971 703 971 703 950 c 0,34,35
 703 931 703 931 689 916 c 2,36,-1
 379 573 l 1,0,-1
EndSplineSet
EndChar

StartChar: l
Encoding: 108 108 174
Width: 500
Flags: W
LayerCount: 2
Back
Fore
SplineSet
351 0 m 2,0,-1
 300 0 l 2,1,2
 219 0 219 0 159.5 60.5 c 128,-1,3
 100 121 100 121 100 200 c 2,4,-1
 100 1350 l 2,5,6
 100 1366 100 1366 115 1383 c 128,-1,7
 130 1400 130 1400 150 1400 c 0,8,9
 168 1400 168 1400 184 1387 c 128,-1,10
 200 1374 200 1374 200 1350 c 2,11,-1
 200 200 l 2,12,13
 200 158 200 158 229 129 c 128,-1,14
 258 100 258 100 300 100 c 2,15,-1
 351 100 l 2,16,17
 369 100 369 100 385 84 c 128,-1,18
 401 68 401 68 401 50 c 256,19,20
 401 32 401 32 388 16 c 128,-1,21
 375 0 375 0 351 0 c 2,0,-1
EndSplineSet
EndChar

StartChar: m
Encoding: 109 109 175
Width: 1100
Flags: W
LayerCount: 2
Back
Fore
SplineSet
500 900 m 1,0,-1
 200 900 l 1,1,-1
 200 50 l 2,2,3
 200 26 200 26 186 12 c 0,4,5
 172 0 172 0 150 0 c 0,6,7
 141 0 141 0 115 12 c 1,8,9
 100 24 100 24 100 50 c 2,10,-1
 100 950 l 2,11,12
 100 1000 100 1000 150 1000 c 2,13,-1
 800 1000 l 2,14,15
 883 1000 883 1000 941.5 942.5 c 128,-1,16
 1000 885 1000 885 1000 800 c 2,17,-1
 1000 50 l 2,18,19
 1000 26 1000 26 986 12 c 0,20,21
 972 0 972 0 950 0 c 0,22,23
 941 0 941 0 915 12 c 1,24,25
 900 24 900 24 900 50 c 2,26,-1
 900 800 l 2,27,28
 900 842 900 842 871 871 c 128,-1,29
 842 900 842 900 800 900 c 2,30,-1
 600 900 l 1,31,-1
 600 50 l 2,32,33
 600 26 600 26 586 12 c 0,34,35
 572 0 572 0 550 0 c 0,36,37
 541 0 541 0 515 12 c 1,38,39
 500 24 500 24 500 50 c 2,40,-1
 500 900 l 1,0,-1
EndSplineSet
EndChar

StartChar: n
Encoding: 110 110 176
Width: 800
Flags: W
LayerCount: 2
Back
Fore
SplineSet
700 50 m 2,0,1
 700 26 700 26 686 12 c 0,2,3
 672 0 672 0 650 0 c 0,4,5
 641 0 641 0 615 12 c 1,6,7
 600 24 600 24 600 50 c 2,8,-1
 600 800 l 2,9,10
 600 842 600 842 571 871 c 128,-1,11
 542 900 542 900 500 900 c 2,12,-1
 200 900 l 1,13,-1
 200 50 l 2,14,15
 200 26 200 26 186 12 c 0,16,17
 172 0 172 0 150 0 c 0,18,19
 141 0 141 0 115 12 c 1,20,21
 100 24 100 24 100 50 c 2,22,-1
 100 950 l 2,23,24
 100 1000 100 1000 150 1000 c 2,25,-1
 500 1000 l 2,26,27
 583 1000 583 1000 641.5 942.5 c 128,-1,28
 700 885 700 885 700 800 c 2,29,-1
 700 50 l 2,0,1
EndSplineSet
EndChar

StartChar: o
Encoding: 111 111 177
Width: 800
Flags: W
LayerCount: 2
Back
Fore
SplineSet
700 200 m 2,0,1
 700 116 700 116 642 58 c 128,-1,2
 584 0 584 0 500 0 c 2,3,-1
 300 0 l 2,4,5
 216 0 216 0 158 58 c 128,-1,6
 100 116 100 116 100 200 c 2,7,-1
 100 800 l 2,8,9
 100 875 100 875 157 937.5 c 128,-1,10
 214 1000 214 1000 300 1000 c 2,11,-1
 500 1000 l 2,12,13
 583 1000 583 1000 641.5 942.5 c 128,-1,14
 700 885 700 885 700 800 c 2,15,-1
 700 200 l 2,0,1
600 200 m 2,16,-1
 600 800 l 2,17,18
 600 842 600 842 571 871 c 128,-1,19
 542 900 542 900 500 900 c 2,20,-1
 300 900 l 2,21,22
 258 900 258 900 229 871 c 128,-1,23
 200 842 200 842 200 800 c 2,24,-1
 200 200 l 2,25,26
 200 158 200 158 229 129 c 128,-1,27
 258 100 258 100 300 100 c 2,28,-1
 500 100 l 2,29,30
 542 100 542 100 571 129 c 128,-1,31
 600 158 600 158 600 200 c 2,16,-1
EndSplineSet
EndChar

StartChar: p
Encoding: 112 112 178
Width: 800
Flags: W
LayerCount: 2
Back
Fore
SplineSet
200 99 m 1,0,-1
 501 99 l 2,1,2
 540 99 540 99 570 129 c 128,-1,3
 600 159 600 159 600 200 c 2,4,-1
 600 801 l 2,5,6
 600 842 600 842 571 871 c 128,-1,7
 542 900 542 900 501 900 c 2,8,-1
 200 900 l 1,9,-1
 200 99 l 1,0,-1
200 -1 m 1,10,-1
 200 -350 l 2,11,12
 200 -368 200 -368 184 -384 c 128,-1,13
 168 -400 168 -400 150 -400 c 256,14,15
 132 -400 132 -400 116 -387 c 128,-1,16
 100 -374 100 -374 100 -350 c 2,17,-1
 100 950 l 2,18,19
 100 1000 100 1000 150 1000 c 2,20,-1
 501 1000 l 2,21,22
 582 1000 582 1000 641 942.5 c 128,-1,23
 700 885 700 885 700 801 c 2,24,-1
 700 200 l 2,25,26
 700 117 700 117 642.5 58 c 128,-1,27
 585 -1 585 -1 501 -1 c 2,28,-1
 200 -1 l 1,10,-1
EndSplineSet
EndChar

StartChar: q
Encoding: 113 113 179
Width: 800
Flags: W
LayerCount: 2
Back
Fore
SplineSet
600 99 m 1,0,-1
 600 900 l 1,1,-1
 301 900 l 2,2,3
 260 900 260 900 230 871 c 128,-1,4
 200 842 200 842 200 801 c 2,5,-1
 200 200 l 2,6,7
 200 158 200 158 230.5 128.5 c 128,-1,8
 261 99 261 99 301 99 c 2,9,-1
 600 99 l 1,0,-1
600 -1 m 1,10,-1
 301 -1 l 2,11,12
 218 -1 218 -1 159 58 c 128,-1,13
 100 117 100 117 100 200 c 2,14,-1
 100 801 l 2,15,16
 100 882 100 882 158.5 941 c 128,-1,17
 217 1000 217 1000 301 1000 c 2,18,-1
 650 1000 l 2,19,20
 700 1000 700 1000 700 950 c 2,21,-1
 700 -350 l 2,22,23
 700 -368 700 -368 684 -384 c 128,-1,24
 668 -400 668 -400 650 -400 c 256,25,26
 632 -400 632 -400 616 -387 c 128,-1,27
 600 -374 600 -374 600 -350 c 2,28,-1
 600 -1 l 1,10,-1
EndSplineSet
EndChar

StartChar: r
Encoding: 114 114 180
Width: 700
Flags: W
LayerCount: 2
Back
Fore
SplineSet
595 862 m 1,0,-1
 598 844 l 2,1,2
 598 826 598 826 582 809 c 0,3,4
 566 796 566 796 546 796 c 0,5,6
 521 796 521 796 500 829 c 1,7,8
 491 861 491 861 461.5 880.5 c 128,-1,9
 432 900 432 900 400 900 c 2,10,-1
 200 900 l 1,11,-1
 200 50 l 2,12,13
 200 26 200 26 186 12 c 0,14,15
 172 0 172 0 150 0 c 0,16,17
 141 0 141 0 115 12 c 1,18,19
 100 24 100 24 100 50 c 2,20,-1
 100 950 l 2,21,22
 100 1000 100 1000 150 1000 c 2,23,-1
 400 1000 l 2,24,25
 467 1000 467 1000 520.5 962 c 128,-1,26
 574 924 574 924 595 862 c 1,0,-1
EndSplineSet
EndChar

StartChar: s
Encoding: 115 115 181
Width: 800
Flags: W
LayerCount: 2
Back
Fore
SplineSet
698 880 m 1,0,-1
 706 865 l 1,1,-1
 709 848 l 2,2,3
 709 830 709 830 693 813 c 0,4,5
 677 799 677 799 658 799 c 2,6,-1
 635 802 l 2,7,8
 632 804 632 804 630 806 c 0,9,10
 625 811 625 811 618 820 c 0,11,12
 591 856 591 856 547 878 c 1,13,-1
 502 894 l 2,14,15
 479 900 479 900 455 900 c 2,16,-1
 318 900 l 2,17,18
 266 900 266 900 234 865.5 c 128,-1,19
 202 831 202 831 202 784 c 0,20,21
 202 733 202 733 245 696 c 2,22,-1
 630 382 l 2,23,24
 669 352 669 352 688 306 c 0,25,26
 708 263 708 263 708 217 c 0,27,28
 708 129 708 129 650 67 c 0,29,30
 588 0 588 0 493 0 c 2,31,-1
 356 0 l 2,32,33
 281 0 281 0 221 29.5 c 128,-1,34
 161 59 161 59 113 120 c 1,35,-1
 105 135 l 1,36,-1
 102 152 l 2,37,38
 102 163 102 163 117 182 c 128,-1,39
 132 201 132 201 153 201 c 0,40,41
 166 201 166 201 175 196 c 0,42,43
 184 193 184 193 193 180 c 0,44,45
 212 153 212 153 263 121 c 1,46,47
 305 100 305 100 356 100 c 2,48,-1
 493 100 l 2,49,50
 544 100 544 100 576 135 c 128,-1,51
 608 170 608 170 608 216 c 0,52,53
 608 259 608 259 566 304 c 1,54,-1
 181 618 l 2,55,56
 142 651 142 651 121 694 c 1,57,-1
 107 743 l 2,58,59
 102 766 102 766 102 783 c 0,60,61
 102 871 102 871 160 933 c 0,62,63
 222 1000 222 1000 318 1000 c 2,64,-1
 455 1000 l 2,65,66
 528 1000 528 1000 591 969.5 c 128,-1,67
 654 939 654 939 698 880 c 1,0,-1
EndSplineSet
EndChar

StartChar: t
Encoding: 116 116 182
Width: 600
Flags: W
LayerCount: 2
Back
Fore
SplineSet
300 1000 m 1,0,-1
 451 1000 l 2,1,2
 469 1000 469 1000 485 984 c 128,-1,3
 501 968 501 968 501 950 c 256,4,5
 501 932 501 932 488 916 c 128,-1,6
 475 900 475 900 451 900 c 2,7,-1
 300 900 l 1,8,-1
 300 50 l 2,9,10
 300 26 300 26 286 12 c 0,11,12
 272 0 272 0 250 0 c 0,13,14
 241 0 241 0 215 12 c 1,15,16
 200 24 200 24 200 50 c 2,17,-1
 200 900 l 1,18,-1
 152 900 l 2,19,20
 129 900 129 900 115 914 c 0,21,22
 102 930 102 930 102 950 c 0,23,24
 102 961 102 961 114.5 980.5 c 128,-1,25
 127 1000 127 1000 152 1000 c 2,26,-1
 200 1000 l 1,27,-1
 200 1350 l 2,28,29
 200 1366 200 1366 215 1383 c 128,-1,30
 230 1400 230 1400 250 1400 c 0,31,32
 268 1400 268 1400 284 1387 c 128,-1,33
 300 1374 300 1374 300 1350 c 2,34,-1
 300 1000 l 1,0,-1
EndSplineSet
EndChar

StartChar: u
Encoding: 117 117 183
Width: 800
Flags: W
LayerCount: 2
Back
Fore
SplineSet
700 50 m 2,0,1
 700 0 700 0 650 0 c 2,2,-1
 300 0 l 2,3,4
 216 0 216 0 158 58 c 128,-1,5
 100 116 100 116 100 200 c 2,6,-1
 100 950 l 2,7,8
 100 966 100 966 115 983 c 128,-1,9
 130 1000 130 1000 150 1000 c 0,10,11
 168 1000 168 1000 184 987 c 128,-1,12
 200 974 200 974 200 950 c 2,13,-1
 200 200 l 2,14,15
 200 158 200 158 229 129 c 128,-1,16
 258 100 258 100 300 100 c 2,17,-1
 600 100 l 1,18,-1
 600 950 l 2,19,20
 600 966 600 966 615 983 c 128,-1,21
 630 1000 630 1000 650 1000 c 0,22,23
 668 1000 668 1000 684 987 c 128,-1,24
 700 974 700 974 700 950 c 2,25,-1
 700 50 l 2,0,1
EndSplineSet
EndChar

StartChar: v
Encoding: 118 118 184
Width: 800
Flags: W
LayerCount: 2
Back
Fore
SplineSet
698 937 m 2,0,-1
 448 42 l 2,1,2
 436 -2 436 -2 400 -2 c 0,3,4
 385 -2 385 -2 373 7 c 128,-1,5
 361 16 361 16 352 42 c 2,6,-1
 102 937 l 1,7,-1
 100 953 l 2,8,9
 100 965 100 965 115 982.5 c 128,-1,10
 130 1000 130 1000 151 1000 c 0,11,12
 163 1000 163 1000 174 992 c 0,13,14
 187 986 187 986 198 963 c 1,15,-1
 400 241 l 1,16,-1
 602 963 l 2,17,18
 605 976 605 976 617 988 c 0,19,20
 629 997 629 997 649 1000 c 0,21,22
 671 1000 671 1000 685.5 987.5 c 128,-1,23
 700 975 700 975 700 952 c 0,24,25
 700 939 700 939 698 937 c 2,0,-1
EndSplineSet
EndChar

StartChar: w
Encoding: 119 119 185
Width: 1200
Flags: W
LayerCount: 2
Back
Fore
SplineSet
1098 939 m 1,0,-1
 898 47 l 2,1,2
 895 26 895 26 881.5 13 c 128,-1,3
 868 0 868 0 850 0 c 0,4,5
 817 0 817 0 802 41 c 2,6,-1
 599 609 l 1,7,-1
 396 41 l 1,8,-1
 375 10 l 1,9,-1
 347 0 l 2,10,11
 342 0 342 0 318 12 c 1,12,13
 306 24 306 24 300 47 c 2,14,-1
 100 939 l 1,15,-1
 99 952 l 2,16,17
 99 970 99 970 114 985 c 128,-1,18
 129 1000 129 1000 151 1000 c 0,19,20
 164 1000 164 1000 176 992 c 0,21,22
 188 986 188 986 198 961 c 1,23,-1
 360 238 l 1,24,-1
 552 775 l 2,25,26
 567 816 567 816 599 816 c 0,27,28
 623 816 623 816 646 775 c 1,29,-1
 838 238 l 1,30,-1
 1000 961 l 2,31,32
 1009 1000 1009 1000 1047 1000 c 0,33,34
 1069 1000 1069 1000 1083 986 c 0,35,36
 1099 973 1099 973 1099 951 c 2,37,-1
 1098 939 l 1,0,-1
EndSplineSet
EndChar

StartChar: x
Encoding: 120 120 186
Width: 800
Flags: W
LayerCount: 2
Back
Fore
SplineSet
457 501 m 1,0,-1
 694 74 l 2,1,2
 701 63 701 63 701 48 c 0,3,4
 701 30 701 30 685 14 c 0,5,6
 669 0 669 0 648 0 c 0,7,8
 620 0 620 0 606 26 c 2,9,-1
 400 397 l 1,10,-1
 194 26 l 1,11,-1
 176 7 l 1,12,-1
 151 0 l 1,13,14
 129 0 129 0 114 14 c 128,-1,15
 99 28 99 28 99 49 c 0,16,17
 99 61 99 61 106 74 c 2,18,-1
 343 500 l 1,19,-1
 106 928 l 1,20,-1
 99 954 l 1,21,22
 99 972 99 972 114 987 c 128,-1,23
 129 1002 129 1002 152 1002 c 0,24,25
 180 1002 180 1002 194 976 c 2,26,-1
 400 603 l 1,27,-1
 606 974 l 1,28,-1
 624 993 l 1,29,-1
 649 1000 l 1,30,31
 671 1000 671 1000 686 986 c 128,-1,32
 701 972 701 972 701 951 c 0,33,34
 701 939 701 939 694 926 c 2,35,-1
 457 501 l 1,0,-1
EndSplineSet
EndChar

StartChar: y
Encoding: 121 121 187
Width: 800
Flags: W
LayerCount: 2
Back
Fore
SplineSet
352 40 m 1,0,-1
 100 936 l 1,1,-1
 98 952 l 2,2,3
 98 970 98 970 113 985 c 128,-1,4
 128 1000 128 1000 150 1000 c 0,5,6
 176 1000 176 1000 196 964 c 1,7,-1
 402 229 l 1,8,-1
 600 963 l 2,9,10
 603 976 603 976 615 988 c 0,11,12
 627 997 627 997 647 1000 c 0,13,14
 667 1000 667 1000 682.5 986.5 c 128,-1,15
 698 973 698 973 698 951 c 2,16,-1
 696 937 l 1,17,-1
 376 -252 l 2,18,19
 361 -315 361 -315 306 -357.5 c 128,-1,20
 251 -400 251 -400 183 -400 c 2,21,-1
 148 -400 l 2,22,23
 135 -400 135 -400 111 -385 c 1,24,25
 98 -369 98 -369 98 -350 c 0,26,27
 98 -341 98 -341 110 -315 c 1,28,29
 122 -300 122 -300 148 -300 c 2,30,-1
 183 -300 l 2,31,32
 218 -300 218 -300 244 -280 c 0,33,34
 271 -262 271 -262 280 -226 c 2,35,-1
 352 40 l 1,0,-1
EndSplineSet
EndChar

StartChar: z
Encoding: 122 122 188
Width: 800
Flags: W
LayerCount: 2
Back
Fore
SplineSet
694 926 m 2,0,-1
 235 100 l 1,1,-1
 650 100 l 2,2,3
 668 100 668 100 684 84 c 128,-1,4
 700 68 700 68 700 50 c 256,5,6
 700 32 700 32 687 16 c 128,-1,7
 674 0 674 0 650 0 c 2,8,-1
 150 0 l 2,9,10
 96 0 96 0 96 40 c 0,11,12
 96 57 96 57 106 74 c 2,13,-1
 565 900 l 1,14,-1
 150 900 l 2,15,16
 127 900 127 900 113 914 c 0,17,18
 100 930 100 930 100 950 c 0,19,20
 100 961 100 961 112.5 980.5 c 128,-1,21
 125 1000 125 1000 150 1000 c 2,22,-1
 650 1000 l 2,23,24
 704 1000 704 1000 704 960 c 0,25,26
 704 943 704 943 694 926 c 2,0,-1
EndSplineSet
EndChar

StartChar: braceleft
Encoding: 123 123 189
Width: 460
Flags: W
LayerCount: 2
Back
Fore
SplineSet
152 650 m 0,0,1
 129 650 129 650 115 664 c 0,2,3
 102 680 102 680 102 700 c 0,4,5
 102 711 102 711 114.5 730.5 c 128,-1,6
 127 750 127 750 152 750 c 0,7,8
 163 750 163 750 193 765 c 1,9,10
 212 781 212 781 212 800 c 2,11,-1
 212 1350 l 2,12,13
 212 1412 212 1412 256 1456 c 128,-1,14
 300 1500 300 1500 362 1500 c 0,15,16
 380 1500 380 1500 396 1484 c 128,-1,17
 412 1468 412 1468 412 1450 c 256,18,19
 412 1432 412 1432 399 1416 c 128,-1,20
 386 1400 386 1400 362 1400 c 0,21,22
 345 1400 345 1400 328.5 1384 c 128,-1,23
 312 1368 312 1368 312 1350 c 2,24,-1
 312 800 l 2,25,26
 312 760 312 760 292 736 c 2,27,-1
 254 700 l 1,28,-1
 292 665 l 2,29,30
 312 642 312 642 312 600 c 2,31,-1
 312 51 l 2,32,33
 312 41 312 41 327 17 c 1,34,35
 343 1 343 1 362 1 c 0,36,37
 380 1 380 1 396 -14 c 128,-1,38
 412 -29 412 -29 412 -49 c 0,39,40
 412 -67 412 -67 399 -83 c 128,-1,41
 386 -99 386 -99 362 -99 c 0,42,43
 301 -99 301 -99 256.5 -56.5 c 128,-1,44
 212 -14 212 -14 212 50 c 2,45,-1
 212 600 l 2,46,47
 212 618 212 618 192.5 634 c 128,-1,48
 173 650 173 650 152 650 c 0,0,1
EndSplineSet
EndChar

StartChar: bar
Encoding: 124 124 190
Width: 295
Flags: W
LayerCount: 2
Back
Fore
SplineSet
200 50 m 2,0,1
 200 26 200 26 186 12 c 0,2,3
 172 0 172 0 150 0 c 0,4,5
 141 0 141 0 115 12 c 1,6,7
 100 24 100 24 100 50 c 2,8,-1
 100 1350 l 2,9,10
 100 1366 100 1366 115 1383 c 128,-1,11
 130 1400 130 1400 150 1400 c 0,12,13
 168 1400 168 1400 184 1387 c 128,-1,14
 200 1374 200 1374 200 1350 c 2,15,-1
 200 50 l 2,0,1
EndSplineSet
EndChar

StartChar: braceright
Encoding: 125 125 191
Width: 460
Flags: W
LayerCount: 2
Back
Fore
SplineSet
308 650 m 0,0,1
 287 650 287 650 267.5 634 c 128,-1,2
 248 618 248 618 248 600 c 2,3,-1
 248 50 l 2,4,5
 248 -4 248 -4 203.5 -51.5 c 128,-1,6
 159 -99 159 -99 98 -99 c 0,7,8
 85 -99 85 -99 61 -84 c 1,9,10
 48 -68 48 -68 48 -49 c 0,11,12
 48 -40 48 -40 60 -14 c 1,13,14
 72 1 72 1 98 1 c 0,15,16
 119 1 119 1 133.5 15.5 c 128,-1,17
 148 30 148 30 148 51 c 2,18,-1
 148 600 l 2,19,20
 148 642 148 642 168 665 c 2,21,-1
 206 700 l 1,22,-1
 168 735 l 2,23,24
 148 758 148 758 148 800 c 2,25,-1
 148 1350 l 2,26,27
 148 1367 148 1367 132.5 1383.5 c 128,-1,28
 117 1400 117 1400 98 1400 c 0,29,30
 75 1400 75 1400 61 1414 c 0,31,32
 48 1430 48 1430 48 1450 c 0,33,34
 48 1461 48 1461 60.5 1480.5 c 128,-1,35
 73 1500 73 1500 98 1500 c 0,36,37
 160 1500 160 1500 204 1456 c 128,-1,38
 248 1412 248 1412 248 1350 c 2,39,-1
 248 800 l 2,40,41
 248 791 248 791 266 765 c 1,42,43
 284 750 284 750 308 750 c 0,44,45
 326 750 326 750 342 734 c 128,-1,46
 358 718 358 718 358 700 c 256,47,48
 358 682 358 682 345 666 c 128,-1,49
 332 650 332 650 308 650 c 0,0,1
EndSplineSet
EndChar

StartChar: asciitilde
Encoding: 126 126 192
Width: 900
Flags: W
LayerCount: 2
Back
Fore
SplineSet
781 460 m 0,0,1
 701 400 701 400 601 400 c 0,2,3
 502 400 502 400 421 460 c 0,4,5
 369 500 369 500 301 500 c 0,6,7
 234 500 234 500 181 460 c 0,8,9
 167 449 167 449 150 449 c 0,10,11
 141 449 141 449 115 464 c 1,12,13
 100 479 100 479 100 501 c 0,14,15
 100 525 100 525 121 540 c 0,16,17
 202 600 202 600 301 600 c 256,18,19
 400 600 400 600 481 540 c 0,20,21
 536 499 536 499 601 499 c 0,22,23
 668 499 668 499 721 540 c 0,24,25
 735 551 735 551 752 551 c 0,26,27
 770 551 770 551 786 535 c 128,-1,28
 802 519 802 519 802 499 c 0,29,30
 802 475 802 475 781 460 c 0,0,1
EndSplineSet
EndChar

StartChar: Aring 
Encoding: 197 197 194
Width: 1000
Flags: W
LayerCount: 2
Back
Fore
SplineSet
294 401 m 1,0,-1
 196 38 l 2,1,2
 193 21 193 21 179.5 11 c 128,-1,3
 166 1 166 1 149 1 c 0,4,5
 129 1 129 1 113.5 14.5 c 128,-1,6
 98 28 98 28 98 50 c 2,7,-1
 100 64 l 1,8,-1
 450 1354 l 2,9,10
 462 1399 462 1399 498 1399 c 256,11,12
 534 1399 534 1399 546 1354 c 2,13,-1
 896 64 l 1,14,-1
 898 49 l 2,15,16
 898 31 898 31 882 14 c 0,17,18
 866 1 866 1 847 1 c 0,19,20
 831 1 831 1 818.5 9.5 c 128,-1,21
 806 18 806 18 800 38 c 2,22,-1
 702 401 l 1,23,-1
 698 401 l 1,24,-1
 298 401 l 1,25,-1
 294 401 l 1,0,-1
675 501 m 1,26,-1
 498 1160 l 1,27,-1
 321 501 l 1,28,-1
 675 501 l 1,26,-1
325 1628 m 256,29,30
 325 1664 325 1664 338.5 1695 c 128,-1,31
 352 1726 352 1726 375 1749 c 128,-1,32
 398 1772 398 1772 429.5 1785.5 c 128,-1,33
 461 1799 461 1799 497 1799 c 256,34,35
 533 1799 533 1799 564.5 1785.5 c 128,-1,36
 596 1772 596 1772 619.5 1749 c 128,-1,37
 643 1726 643 1726 656.5 1695 c 128,-1,38
 670 1664 670 1664 670 1628 c 256,39,40
 670 1592 670 1592 656.5 1561 c 128,-1,41
 643 1530 643 1530 619.5 1507 c 128,-1,42
 596 1484 596 1484 564.5 1471 c 128,-1,43
 533 1458 533 1458 497 1458 c 256,44,45
 461 1458 461 1458 429.5 1471 c 128,-1,46
 398 1484 398 1484 375 1507 c 128,-1,47
 352 1530 352 1530 338.5 1561 c 128,-1,48
 325 1592 325 1592 325 1628 c 256,29,30
425 1632 m 256,49,50
 425 1601 425 1601 447.5 1580 c 128,-1,51
 470 1559 470 1559 502 1559 c 256,52,53
 534 1559 534 1559 557 1580 c 128,-1,54
 580 1601 580 1601 580 1632 c 256,55,56
 580 1663 580 1663 557 1685 c 128,-1,57
 534 1707 534 1707 502 1707 c 256,58,59
 470 1707 470 1707 447.5 1685 c 128,-1,60
 425 1663 425 1663 425 1632 c 256,49,50
EndSplineSet
EndChar

StartChar: dagger
Encoding: 8224 8224 195
Width: 1134
Flags: W
LayerCount: 2
Back
Fore
SplineSet
131 1032 m 1,0,1
 105 1032 105 1032 92 1047.5 c 128,-1,2
 79 1063 79 1063 79 1082 c 256,3,4
 79 1101 79 1101 92 1116.5 c 128,-1,5
 105 1132 105 1132 131 1132 c 2,6,-1
 490 1132 l 1,7,-1
 490 1348 l 2,8,9
 490 1374 490 1374 505.5 1387 c 128,-1,10
 521 1400 521 1400 540 1400 c 256,11,12
 559 1400 559 1400 574.5 1387 c 128,-1,13
 590 1374 590 1374 590 1348 c 2,14,-1
 590 1132 l 1,15,-1
 956 1132 l 2,16,17
 982 1132 982 1132 995 1116.5 c 128,-1,18
 1008 1101 1008 1101 1008 1082 c 256,19,20
 1008 1063 1008 1063 995 1047.5 c 128,-1,21
 982 1032 982 1032 956 1032 c 2,22,-1
 590 1032 l 1,23,-1
 590 -222 l 2,24,25
 590 -248 590 -248 574.5 -261 c 128,-1,26
 559 -274 559 -274 540 -274 c 256,27,28
 521 -274 521 -274 505.5 -261 c 128,-1,29
 490 -248 490 -248 490 -222 c 2,30,-1
 490 1032 l 1,31,-1
 131 1032 l 1,32,-1
 131 1032 l 1,0,1
EndSplineSet
EndChar

StartChar: degree
Encoding: 176 176 196
Width: 800
Flags: W
LayerCount: 2
Back
Fore
SplineSet
100 1100 m 256,0,1
 100 1162 100 1162 123.5 1217 c 128,-1,2
 147 1272 147 1272 187.5 1312.5 c 128,-1,3
 228 1353 228 1353 283 1376.5 c 128,-1,4
 338 1400 338 1400 400 1400 c 256,5,6
 462 1400 462 1400 517 1376.5 c 128,-1,7
 572 1353 572 1353 612.5 1312.5 c 128,-1,8
 653 1272 653 1272 676.5 1217 c 128,-1,9
 700 1162 700 1162 700 1100 c 256,10,11
 700 1038 700 1038 676.5 983 c 128,-1,12
 653 928 653 928 612.5 887.5 c 128,-1,13
 572 847 572 847 517 823.5 c 128,-1,14
 462 800 462 800 400 800 c 256,15,16
 338 800 338 800 283 823.5 c 128,-1,17
 228 847 228 847 187.5 887.5 c 128,-1,18
 147 928 147 928 123.5 983 c 128,-1,19
 100 1038 100 1038 100 1100 c 256,0,1
200 1100 m 256,20,21
 200 1059 200 1059 216 1022.5 c 128,-1,22
 232 986 232 986 259 959 c 128,-1,23
 286 932 286 932 322.5 916 c 128,-1,24
 359 900 359 900 400 900 c 256,25,26
 441 900 441 900 477.5 916 c 128,-1,27
 514 932 514 932 541 959 c 128,-1,28
 568 986 568 986 584 1022.5 c 128,-1,29
 600 1059 600 1059 600 1100 c 256,30,31
 600 1141 600 1141 584 1177.5 c 128,-1,32
 568 1214 568 1214 541 1241 c 128,-1,33
 514 1268 514 1268 477.5 1284 c 128,-1,34
 441 1300 441 1300 400 1300 c 256,35,36
 359 1300 359 1300 322.5 1284 c 128,-1,37
 286 1268 286 1268 259 1241 c 128,-1,38
 232 1214 232 1214 216 1177.5 c 128,-1,39
 200 1141 200 1141 200 1100 c 256,20,21
EndSplineSet
EndChar

StartChar: cent
Encoding: 162 162 197
Width: 1800
Flags: W
LayerCount: 2
Back
Fore
SplineSet
996 1161 m 1,0,-1
 646 239 l 2,1,2
 634 207 634 207 598 207 c 256,3,4
 562 207 562 207 550 239 c 2,5,-1
 200 1161 l 1,6,-1
 198 1171 l 2,7,8
 198 1184 198 1184 213 1195 c 128,-1,9
 228 1206 228 1206 249 1206 c 0,10,11
 261 1206 261 1206 272 1200 c 0,12,13
 285 1196 285 1196 296 1179 c 1,14,-1
 598 385 l 1,15,-1
 900 1179 l 2,16,17
 903 1189 903 1189 915 1197 c 0,18,19
 927 1204 927 1204 947 1206 c 0,20,21
 967 1206 967 1206 982.5 1196 c 128,-1,22
 998 1186 998 1186 998 1171 c 2,23,-1
 996 1161 l 1,0,-1
1273 200 m 1,24,-1
 1171 200 l 1,25,-1
 1171 1206 l 1,26,-1
 1273 1206 l 1,27,-1
 1273 200 l 1,24,-1
1639 117 m 1,28,-1
 128 117 l 1,29,-1
 128 6 l 1,30,-1
 1639 6 l 1,31,-1
 1639 117 l 1,28,-1
1625 1406 m 1,32,-1
 120 1406 l 1,33,-1
 120 1295 l 1,34,-1
 1625 1295 l 1,35,-1
 1625 1406 l 1,32,-1
1561 200 m 1,36,-1
 1459 200 l 1,37,-1
 1459 1206 l 1,38,-1
 1561 1206 l 1,39,-1
 1561 200 l 1,36,-1
EndSplineSet
EndChar

StartChar: sterling
Encoding: 163 163 198
Width: 2134
Flags: W
LayerCount: 2
Back
Fore
SplineSet
996 1161 m 1,0,-1
 646 239 l 2,1,2
 634 207 634 207 598 207 c 256,3,4
 562 207 562 207 550 239 c 2,5,-1
 200 1161 l 1,6,-1
 198 1171 l 2,7,8
 198 1184 198 1184 213 1195 c 128,-1,9
 228 1206 228 1206 249 1206 c 0,10,11
 261 1206 261 1206 272 1200 c 0,12,13
 285 1196 285 1196 296 1179 c 1,14,-1
 598 385 l 1,15,-1
 900 1179 l 2,16,17
 903 1189 903 1189 915 1197 c 0,18,19
 927 1204 927 1204 947 1206 c 0,20,21
 967 1206 967 1206 982.5 1196 c 128,-1,22
 998 1186 998 1186 998 1171 c 2,23,-1
 996 1161 l 1,0,-1
1273 200 m 1,24,-1
 1171 200 l 1,25,-1
 1171 1206 l 1,26,-1
 1273 1206 l 1,27,-1
 1273 200 l 1,24,-1
1923 117 m 1,28,-1
 128 117 l 1,29,-1
 128 6 l 1,30,-1
 1923 6 l 1,31,-1
 1923 117 l 1,28,-1
1916 1406 m 1,32,-1
 120 1406 l 1,33,-1
 120 1295 l 1,34,-1
 1916 1295 l 1,35,-1
 1916 1406 l 1,32,-1
1561 200 m 1,36,-1
 1459 200 l 1,37,-1
 1459 1206 l 1,38,-1
 1561 1206 l 1,39,-1
 1561 200 l 1,36,-1
1842 200 m 1,40,-1
 1740 200 l 1,41,-1
 1740 1206 l 1,42,-1
 1842 1206 l 1,43,-1
 1842 200 l 1,40,-1
EndSplineSet
EndChar

StartChar: section
Encoding: 167 167 199
Width: 800
Flags: W
LayerCount: 2
Back
Fore
SplineSet
475 382 m 1,0,1
 534 415 534 415 568 476.5 c 128,-1,2
 602 538 602 538 602 601 c 0,3,4
 602 690 602 690 544 761 c 2,5,-1
 329 1017 l 1,6,7
 271 983 271 983 236 925 c 128,-1,8
 201 867 201 867 201 799 c 0,9,10
 201 753 201 753 214.5 715 c 128,-1,11
 228 677 228 677 260 639 c 2,12,-1
 475 382 l 1,0,1
263 1095 m 1,13,-1
 199 1172 l 2,14,15
 175 1199 175 1199 163 1232 c 128,-1,16
 151 1265 151 1265 151 1301 c 0,17,18
 151 1381 151 1381 207.5 1440.5 c 128,-1,19
 264 1500 264 1500 351 1500 c 2,20,-1
 452 1500 l 2,21,22
 516 1500 516 1500 566.5 1463.5 c 128,-1,23
 617 1427 617 1427 641 1363 c 1,24,-1
 644 1344 l 2,25,26
 644 1326 644 1326 628 1310 c 0,27,28
 612 1297 612 1297 593 1297 c 0,29,30
 579 1297 579 1297 567.5 1301.5 c 128,-1,31
 556 1306 556 1306 546.5 1333 c 128,-1,32
 537 1360 537 1360 510 1381 c 1,33,34
 477 1400 477 1400 452 1400 c 2,35,-1
 351 1400 l 2,36,37
 319 1400 319 1400 280 1370 c 1,38,39
 268 1355 268 1355 259 1337 c 1,40,-1
 252 1300 l 1,41,-1
 252 1277 l 1,42,-1
 257 1261 l 1,43,-1
 275 1236 l 1,44,-1
 620 825 l 2,45,46
 658 780 658 780 680 720 c 1,47,-1
 696 661 l 2,48,49
 702 631 702 631 702 601 c 0,50,51
 702 513 702 513 659 433.5 c 128,-1,52
 616 354 616 354 540 304 c 1,53,-1
 605 227 l 2,54,55
 652 169 652 169 652 99 c 256,56,57
 652 29 652 29 595.5 -35.5 c 128,-1,58
 539 -100 539 -100 452 -100 c 2,59,-1
 351 -100 l 2,60,61
 289 -100 289 -100 240.5 -65.5 c 128,-1,62
 192 -31 192 -31 162 36 c 1,63,-1
 159 54 l 2,64,65
 159 65 159 65 174 84 c 128,-1,66
 189 103 189 103 212 103 c 0,67,68
 239 103 239 103 253 73 c 0,69,70
 265 44 265 44 293 19 c 1,71,72
 329 0 329 0 351 0 c 2,73,-1
 452 0 l 2,74,75
 494 0 494 0 523 29 c 0,76,77
 537 44 537 44 544 63 c 2,78,-1
 548 81 l 1,79,-1
 551 99 l 1,80,81
 551 124 551 124 546 132 c 2,82,-1
 528 163 l 1,83,-1
 184 575 l 2,84,85
 148 617 148 617 124.5 681 c 128,-1,86
 101 745 101 745 101 800 c 0,87,88
 101 887 101 887 141 963.5 c 128,-1,89
 181 1040 181 1040 263 1095 c 1,13,-1
EndSplineSet
EndChar

StartChar: bullet
Encoding: 8226 8226 200
Width: 655
Flags: W
LayerCount: 2
Back
Fore
SplineSet
133 659 m 256,0,1
 133 698 133 698 149 731.5 c 128,-1,2
 165 765 165 765 192 790.5 c 128,-1,3
 219 816 219 816 255.5 830.5 c 128,-1,4
 292 845 292 845 333 845 c 256,5,6
 374 845 374 845 410.5 830.5 c 128,-1,7
 447 816 447 816 474 790.5 c 128,-1,8
 501 765 501 765 517 731.5 c 128,-1,9
 533 698 533 698 533 659 c 256,10,11
 533 620 533 620 517 586.5 c 128,-1,12
 501 553 501 553 474 528 c 128,-1,13
 447 503 447 503 410.5 488.5 c 128,-1,14
 374 474 374 474 333 474 c 256,15,16
 292 474 292 474 255.5 488.5 c 128,-1,17
 219 503 219 503 192 528 c 128,-1,18
 165 553 165 553 149 586.5 c 128,-1,19
 133 620 133 620 133 659 c 256,0,1
EndSplineSet
EndChar

StartChar: paragraph
Encoding: 182 182 201
Width: 1100
Flags: W
LayerCount: 2
Back
Fore
SplineSet
457 588 m 1,0,1
 303 603 303 603 201.5 719 c 128,-1,2
 100 835 100 835 100 993 c 0,3,4
 100 1170 100 1170 199 1281 c 0,5,6
 307 1401 307 1401 507 1401 c 2,7,-1
 954 1401 l 2,8,9
 972 1401 972 1401 988 1385 c 128,-1,10
 1004 1369 1004 1369 1004 1351 c 256,11,12
 1004 1333 1004 1333 991 1317 c 128,-1,13
 978 1301 978 1301 954 1301 c 2,14,-1
 865 1301 l 1,15,-1
 866 -350 l 2,16,17
 866 -368 866 -368 850 -384 c 128,-1,18
 834 -400 834 -400 816 -400 c 256,19,20
 798 -400 798 -400 782 -387 c 128,-1,21
 766 -374 766 -374 766 -350 c 2,22,-1
 766 1301 l 1,23,-1
 557 1301 l 1,24,-1
 557 -350 l 2,25,26
 557 -368 557 -368 541 -384 c 128,-1,27
 525 -400 525 -400 507 -400 c 256,28,29
 489 -400 489 -400 473 -387 c 128,-1,30
 457 -374 457 -374 457 -350 c 2,31,-1
 457 588 l 1,0,1
EndSplineSet
EndChar

StartChar: uni00DF
Encoding: 223 223 202
Width: 900
Flags: W
LayerCount: 2
Back
Fore
SplineSet
100 1350 m 2,0,1
 100 1400 100 1400 150 1400 c 2,2,-1
 450 1400 l 2,3,4
 573 1400 573 1400 662 1312 c 0,5,6
 706 1270 706 1270 728 1216 c 1,7,-1
 743 1163 l 1,8,-1
 748 1131 l 1,9,-1
 750 1100 l 1,10,-1
 750 1000 l 2,11,12
 750 927 750 927 723 871 c 128,-1,13
 696 815 696 815 638 766 c 1,14,15
 709 730 709 730 755 655 c 128,-1,16
 801 580 801 580 801 500 c 2,17,-1
 801 300 l 2,18,19
 801 180 801 180 707.5 90 c 128,-1,20
 614 0 614 0 473 -1 c 0,21,22
 438 -3 438 -3 423 14.5 c 128,-1,23
 408 32 408 32 410 52.5 c 128,-1,24
 412 73 412 73 429 88.5 c 128,-1,25
 446 104 446 104 473 99 c 1,26,27
 581 100 581 100 641 157 c 128,-1,28
 701 214 701 214 701 300 c 2,29,-1
 701 500 l 2,30,31
 701 578 701 578 640 638.5 c 128,-1,32
 579 699 579 699 500 699 c 1,33,-1
 423 704 l 2,34,35
 411 708 411 708 404.5 719.5 c 128,-1,36
 398 731 398 731 398 743 c 0,37,38
 398 756 398 756 404 767 c 128,-1,39
 410 778 410 778 423 782 c 2,40,-1
 486 797 l 2,41,42
 529 805 529 805 589.5 861 c 128,-1,43
 650 917 650 917 650 1000 c 2,44,-1
 650 1100 l 2,45,46
 650 1183 650 1183 592.5 1241.5 c 128,-1,47
 535 1300 535 1300 450 1300 c 2,48,-1
 200 1300 l 1,49,50
 200 982 200 982 200.5 668 c 128,-1,51
 201 354 201 354 201 36 c 1,52,53
 192 13 192 13 176 5.5 c 128,-1,54
 160 -2 160 -2 144.5 0.5 c 128,-1,55
 129 3 129 3 116.5 13 c 128,-1,56
 104 23 104 23 102 36 c 2,57,-1
 100 1350 l 2,0,1
EndSplineSet
EndChar

StartChar: registered
Encoding: 174 174 203
Width: 1660
Flags: W
LayerCount: 2
Back
Fore
SplineSet
231 700 m 256,0,1
 231 576 231 576 278 466.5 c 128,-1,2
 325 357 325 357 406.5 275.5 c 128,-1,3
 488 194 488 194 597.5 147 c 128,-1,4
 707 100 707 100 831 100 c 256,5,6
 955 100 955 100 1064.5 147 c 128,-1,7
 1174 194 1174 194 1255.5 275.5 c 128,-1,8
 1337 357 1337 357 1384 466.5 c 128,-1,9
 1431 576 1431 576 1431 700 c 256,10,11
 1431 824 1431 824 1384 933.5 c 128,-1,12
 1337 1043 1337 1043 1255.5 1124.5 c 128,-1,13
 1174 1206 1174 1206 1064.5 1253 c 128,-1,14
 955 1300 955 1300 831 1300 c 256,15,16
 707 1300 707 1300 597.5 1253 c 128,-1,17
 488 1206 488 1206 406.5 1124.5 c 128,-1,18
 325 1043 325 1043 278 933.5 c 128,-1,19
 231 824 231 824 231 700 c 256,0,1
131 700 m 256,20,21
 131 796 131 796 156 885.5 c 128,-1,22
 181 975 181 975 226.5 1053 c 128,-1,23
 272 1131 272 1131 336 1195 c 128,-1,24
 400 1259 400 1259 478 1304.5 c 128,-1,25
 556 1350 556 1350 645.5 1375 c 128,-1,26
 735 1400 735 1400 831 1400 c 256,27,28
 927 1400 927 1400 1016.5 1375 c 128,-1,29
 1106 1350 1106 1350 1184 1304.5 c 128,-1,30
 1262 1259 1262 1259 1326 1195 c 128,-1,31
 1390 1131 1390 1131 1435.5 1053 c 128,-1,32
 1481 975 1481 975 1506 885.5 c 128,-1,33
 1531 796 1531 796 1531 700 c 0,34,35
 1531 603 1531 603 1506 514 c 128,-1,36
 1481 425 1481 425 1435.5 347 c 128,-1,37
 1390 269 1390 269 1326 205 c 128,-1,38
 1262 141 1262 141 1184 95.5 c 128,-1,39
 1106 50 1106 50 1016.5 25 c 128,-1,40
 927 0 927 0 831 0 c 0,41,42
 734 0 734 0 645 25 c 128,-1,43
 556 50 556 50 478 95.5 c 128,-1,44
 400 141 400 141 336 205 c 128,-1,45
 272 269 272 269 226.5 347 c 128,-1,46
 181 425 181 425 156 514.5 c 128,-1,47
 131 604 131 604 131 700 c 256,20,21
657 721 m 1,48,-1
 892 721 l 2,49,50
 956 721 956 721 1003 755.5 c 128,-1,51
 1050 790 1050 790 1050 842 c 2,52,-1
 1050 965 l 2,53,54
 1050 1015 1050 1015 1003.5 1051.5 c 128,-1,55
 957 1088 957 1088 892 1088 c 2,56,-1
 657 1088 l 1,57,-1
 657 721 l 1,48,-1
882 659 m 1,58,-1
 1123 337 l 2,59,60
 1129 330 1129 330 1129 321 c 0,61,62
 1129 310 1129 310 1116 300 c 0,63,64
 1104 291 1104 291 1088 291 c 0,65,66
 1078 291 1078 291 1070 294 c 0,67,68
 1062 298 1062 298 1056 306 c 2,69,-1
 792 659 l 1,70,-1
 657 659 l 1,71,-1
 657 322 l 2,72,73
 657 307 657 307 646 298 c 0,74,75
 635 291 635 291 617 291 c 0,76,77
 610 291 610 291 590 298 c 0,78,79
 578 306 578 306 578 322 c 2,80,-1
 578 1118 l 2,81,82
 578 1149 578 1149 617 1149 c 2,83,-1
 892 1149 l 2,84,85
 989 1149 989 1149 1059 1095.5 c 128,-1,86
 1129 1042 1129 1042 1129 965 c 2,87,-1
 1129 842 l 2,88,89
 1129 767 1129 767 1059.5 713 c 128,-1,90
 990 659 990 659 892 659 c 2,91,-1
 882 659 l 1,58,-1
EndSplineSet
EndChar

StartChar: copyright
Encoding: 169 169 204
Width: 1660
Flags: W
LayerCount: 2
Back
Fore
SplineSet
231 700 m 256,0,1
 231 576 231 576 278 466.5 c 128,-1,2
 325 357 325 357 406.5 275.5 c 128,-1,3
 488 194 488 194 597.5 147 c 128,-1,4
 707 100 707 100 831 100 c 256,5,6
 955 100 955 100 1064.5 147 c 128,-1,7
 1174 194 1174 194 1255.5 275.5 c 128,-1,8
 1337 357 1337 357 1384 466.5 c 128,-1,9
 1431 576 1431 576 1431 700 c 256,10,11
 1431 824 1431 824 1384 933.5 c 128,-1,12
 1337 1043 1337 1043 1255.5 1124.5 c 128,-1,13
 1174 1206 1174 1206 1064.5 1253 c 128,-1,14
 955 1300 955 1300 831 1300 c 256,15,16
 707 1300 707 1300 597.5 1253 c 128,-1,17
 488 1206 488 1206 406.5 1124.5 c 128,-1,18
 325 1043 325 1043 278 933.5 c 128,-1,19
 231 824 231 824 231 700 c 256,0,1
131 700 m 256,20,21
 131 796 131 796 156 885.5 c 128,-1,22
 181 975 181 975 226.5 1053 c 128,-1,23
 272 1131 272 1131 336 1195 c 128,-1,24
 400 1259 400 1259 478 1304.5 c 128,-1,25
 556 1350 556 1350 645.5 1375 c 128,-1,26
 735 1400 735 1400 831 1400 c 256,27,28
 927 1400 927 1400 1016.5 1375 c 128,-1,29
 1106 1350 1106 1350 1184 1304.5 c 128,-1,30
 1262 1259 1262 1259 1326 1195 c 128,-1,31
 1390 1131 1390 1131 1435.5 1053 c 128,-1,32
 1481 975 1481 975 1506 885.5 c 128,-1,33
 1531 796 1531 796 1531 700 c 0,34,35
 1531 603 1531 603 1506 514 c 128,-1,36
 1481 425 1481 425 1435.5 347 c 128,-1,37
 1390 269 1390 269 1326 205 c 128,-1,38
 1262 141 1262 141 1184 95.5 c 128,-1,39
 1106 50 1106 50 1016.5 25 c 128,-1,40
 927 0 927 0 831 0 c 0,41,42
 734 0 734 0 645 25 c 128,-1,43
 556 50 556 50 478 95.5 c 128,-1,44
 400 141 400 141 336 205 c 128,-1,45
 272 269 272 269 226.5 347 c 128,-1,46
 181 425 181 425 156 514.5 c 128,-1,47
 131 604 131 604 131 700 c 256,20,21
1063 278 m 2,48,-1
 717 278 l 2,49,50
 634 278 634 278 576.5 326.5 c 128,-1,51
 519 375 519 375 519 446 c 2,52,-1
 519 949 l 2,53,54
 519 1012 519 1012 575.5 1064.5 c 128,-1,55
 632 1117 632 1117 717 1117 c 2,56,-1
 1063 1117 l 2,57,58
 1081 1117 1081 1117 1097 1103.5 c 128,-1,59
 1113 1090 1113 1090 1113 1075 c 256,60,61
 1113 1060 1113 1060 1100 1046.5 c 128,-1,62
 1087 1033 1087 1033 1063 1033 c 2,63,-1
 717 1033 l 2,64,65
 675 1033 675 1033 646.5 1008.5 c 128,-1,66
 618 984 618 984 618 949 c 2,67,-1
 618 446 l 2,68,69
 618 410 618 410 646.5 386 c 128,-1,70
 675 362 675 362 717 362 c 2,71,-1
 1063 362 l 2,72,73
 1081 362 1081 362 1097 348.5 c 128,-1,74
 1113 335 1113 335 1113 320 c 256,75,76
 1113 305 1113 305 1100 291.5 c 128,-1,77
 1087 278 1087 278 1063 278 c 2,48,-1
EndSplineSet
EndChar

StartChar: trademark
Encoding: 8482 8482 205
Width: 1405
Flags: W
LayerCount: 2
Back
Fore
SplineSet
1311 796 m 2,0,1
 1311 772 1311 772 1297 758 c 0,2,3
 1283 746 1283 746 1261 746 c 0,4,5
 1252 746 1252 746 1226 758 c 1,6,7
 1211 770 1211 770 1211 796 c 2,8,-1
 1210 1203 l 1,9,-1
 1053 1033 l 1,10,11
 1034 1002 1034 1002 1009 1002 c 0,12,13
 985 1002 985 1002 967 1033 c 1,14,-1
 808 1209 l 1,15,-1
 808 795 l 2,16,17
 808 771 808 771 794 757 c 0,18,19
 780 745 780 745 758 745 c 0,20,21
 749 745 749 745 723 757 c 1,22,23
 708 769 708 769 708 795 c 2,24,-1
 708 1351 l 2,25,26
 708 1378 708 1378 720.5 1393.5 c 128,-1,27
 733 1409 733 1409 753 1409 c 0,28,29
 767 1409 767 1409 778 1402 c 0,30,31
 782 1401 782 1401 801 1377 c 2,32,-1
 1010 1154 l 1,33,-1
 1215 1378 l 1,34,35
 1235 1410 1235 1410 1263 1410 c 0,36,37
 1281 1410 1281 1410 1294.5 1394 c 128,-1,38
 1308 1378 1308 1378 1308 1352 c 2,39,-1
 1311 796 l 2,0,1
344 1301 m 1,40,-1
 151 1300 l 2,41,42
 128 1300 128 1300 114 1314 c 0,43,44
 101 1330 101 1330 101 1350 c 0,45,46
 101 1361 101 1361 113.5 1380.5 c 128,-1,47
 126 1400 126 1400 151 1400 c 2,48,-1
 634 1397 l 2,49,50
 652 1397 652 1397 668 1381 c 128,-1,51
 684 1365 684 1365 684 1347 c 256,52,53
 684 1329 684 1329 671 1313 c 128,-1,54
 658 1297 658 1297 634 1297 c 2,55,-1
 444 1301 l 1,56,-1
 444 794 l 2,57,58
 444 770 444 770 430 756 c 0,59,60
 416 744 416 744 394 744 c 0,61,62
 385 744 385 744 359 756 c 1,63,64
 344 768 344 768 344 794 c 2,65,-1
 344 1301 l 1,40,-1
EndSplineSet
EndChar

StartChar: acute
Encoding: 180 180 206
Width: 449
Flags: W
LayerCount: 2
Back
Fore
SplineSet
95 1403 m 2,0,-1
 279 1571 l 2,1,2
 298 1589 298 1589 318 1586 c 128,-1,3
 338 1583 338 1583 351 1569 c 128,-1,4
 364 1555 364 1555 365 1535 c 128,-1,5
 366 1515 366 1515 347 1497 c 2,6,-1
 163 1329 l 2,7,8
 144 1311 144 1311 123.5 1314 c 128,-1,9
 103 1317 103 1317 90.5 1331 c 128,-1,10
 78 1345 78 1345 77 1365 c 128,-1,11
 76 1385 76 1385 95 1403 c 2,0,-1
EndSplineSet
EndChar

StartChar: plusminus
Encoding: 177 177 207
Width: 800
Flags: W
LayerCount: 2
Back
Fore
SplineSet
647 139 m 2,0,-1
 147 139 l 2,1,2
 124 139 124 139 110 153 c 0,3,4
 97 169 97 169 97 189 c 0,5,6
 97 200 97 200 109.5 219.5 c 128,-1,7
 122 239 122 239 147 239 c 2,8,-1
 647 239 l 2,9,10
 665 239 665 239 681 223 c 128,-1,11
 697 207 697 207 697 189 c 256,12,13
 697 171 697 171 684 155 c 128,-1,14
 671 139 671 139 647 139 c 2,0,-1
447 739 m 1,15,-1
 647 739 l 2,16,17
 665 739 665 739 681 723 c 128,-1,18
 697 707 697 707 697 689 c 256,19,20
 697 671 697 671 684 655 c 128,-1,21
 671 639 671 639 647 639 c 2,22,-1
 447 639 l 1,23,-1
 447 439 l 2,24,25
 447 415 447 415 433 401 c 0,26,27
 419 389 419 389 397 389 c 0,28,29
 388 389 388 389 362 401 c 1,30,31
 347 413 347 413 347 439 c 2,32,-1
 347 639 l 1,33,-1
 147 639 l 2,34,35
 124 639 124 639 110 653 c 0,36,37
 97 669 97 669 97 689 c 0,38,39
 97 700 97 700 109.5 719.5 c 128,-1,40
 122 739 122 739 147 739 c 2,41,-1
 347 739 l 1,42,-1
 347 939 l 2,43,44
 347 955 347 955 362 972 c 128,-1,45
 377 989 377 989 397 989 c 0,46,47
 415 989 415 989 431 976 c 128,-1,48
 447 963 447 963 447 939 c 2,49,-1
 447 739 l 1,15,-1
EndSplineSet
EndChar

StartChar: yen
Encoding: 165 165 208
Width: 1322
Flags: W
LayerCount: 2
Back
Fore
SplineSet
1104 117 m 1,0,-1
 128 117 l 1,1,-1
 128 6 l 1,2,-1
 1104 6 l 1,3,-1
 1104 117 l 1,0,-1
1125 1406 m 1,4,-1
 120 1406 l 1,5,-1
 120 1295 l 1,6,-1
 1125 1295 l 1,7,-1
 1125 1406 l 1,4,-1
616 786 m 1,8,-1
 929 1207 l 2,9,10
 943 1227 943 1227 973 1227 c 0,11,12
 995 1227 995 1227 1010.5 1217 c 128,-1,13
 1026 1207 1026 1207 1026 1191 c 0,14,15
 1026 1182 1026 1182 1019 1172 c 2,16,-1
 674 707 l 1,17,-1
 1019 242 l 2,18,19
 1026 234 1026 234 1026 223 c 0,20,21
 1026 209 1026 209 1010 197 c 0,22,23
 993 186 993 186 972 186 c 0,24,25
 944 186 944 186 929 206 c 2,26,-1
 616 628 l 1,27,-1
 302 206 l 2,28,29
 288 186 288 186 258 186 c 0,30,31
 236 186 236 186 220.5 196.5 c 128,-1,32
 205 207 205 207 205 223 c 0,33,34
 205 232 205 232 212 242 c 2,35,-1
 557 707 l 1,36,-1
 212 1172 l 1,37,-1
 205 1191 l 2,38,39
 205 1199 205 1199 220.5 1213 c 128,-1,40
 236 1227 236 1227 259 1227 c 0,41,42
 287 1227 287 1227 302 1207 c 2,43,-1
 616 786 l 1,8,-1
EndSplineSet
EndChar

StartChar: pi
Encoding: 960 960 209
Width: 1000
Flags: W
LayerCount: 2
Back
Fore
SplineSet
650 900 m 1,0,-1
 350 900 l 1,1,-1
 350 150 l 2,2,3
 350 88 350 88 306 44 c 128,-1,4
 262 0 262 0 200 0 c 0,5,6
 178 0 178 0 164 14 c 128,-1,7
 150 28 150 28 150 50 c 256,8,9
 150 72 150 72 164 86 c 128,-1,10
 178 100 178 100 200 100 c 256,11,12
 222 100 222 100 236 114 c 128,-1,13
 250 128 250 128 250 150 c 2,14,-1
 250 900 l 1,15,-1
 150 900 l 2,16,17
 128 900 128 900 114 914 c 128,-1,18
 100 928 100 928 100 950 c 256,19,20
 100 972 100 972 114 986 c 128,-1,21
 128 1000 128 1000 150 1000 c 2,22,-1
 722 1000 l 2,23,24
 750 1000 750 1000 774 1009.5 c 128,-1,25
 798 1019 798 1019 813 1034 c 0,26,27
 828 1050 828 1050 850 1050 c 256,28,29
 872 1050 872 1050 886 1036 c 128,-1,30
 900 1022 900 1022 900 1000 c 0,31,32
 900 980 900 980 884 963.5 c 128,-1,33
 868 947 868 947 824 921 c 0,34,35
 784 900 784 900 750 900 c 1,36,-1
 750 150 l 2,37,38
 750 128 750 128 764 114 c 128,-1,39
 778 100 778 100 800 100 c 256,40,41
 822 100 822 100 836 86 c 128,-1,42
 850 72 850 72 850 50 c 256,43,44
 850 28 850 28 836 14 c 128,-1,45
 822 0 822 0 800 0 c 0,46,47
 738 0 738 0 694 44 c 128,-1,48
 650 88 650 88 650 150 c 2,49,-1
 650 900 l 1,0,-1
EndSplineSet
EndChar

StartChar: ordmasculine 
Encoding: 186 186 211
Width: 633
Flags: W
LayerCount: 2
Back
Fore
SplineSet
511 1052 m 1,0,1
 511 1017 511 1017 499 986 c 128,-1,2
 487 955 487 955 465 931 c 128,-1,3
 443 907 443 907 413.5 892 c 128,-1,4
 384 877 384 877 349 874 c 0,5,6
 333 872 333 872 318 873 c 128,-1,7
 303 874 303 874 287 874 c 0,8,9
 245 874 245 874 208 893.5 c 128,-1,10
 171 913 171 913 145 945 c 0,11,12
 127 968 127 968 119 995 c 128,-1,13
 111 1022 111 1022 111 1050 c 2,14,-1
 111 1450 l 1,15,-1
 111 1462 l 1,16,17
 115 1497 115 1497 130 1526.5 c 128,-1,18
 145 1556 145 1556 168.5 1578 c 128,-1,19
 192 1600 192 1600 223 1612 c 128,-1,20
 254 1624 254 1624 289 1624 c 0,21,22
 322 1624 322 1624 350 1621.5 c 128,-1,23
 378 1619 378 1619 402 1610.5 c 128,-1,24
 426 1602 426 1602 446.5 1585 c 128,-1,25
 467 1568 467 1568 486 1538 c 0,26,27
 498 1519 498 1519 504.5 1496.5 c 128,-1,28
 511 1474 511 1474 511 1452 c 2,29,-1
 511 1052 l 1,30,-1
 511 1052 l 1,0,1
411 1450 m 2,31,32
 411 1452 411 1452 410.5 1456 c 128,-1,33
 410 1460 410 1460 409.5 1463 c 128,-1,34
 409 1466 409 1466 409 1467 c 0,35,36
 409 1469 409 1469 410 1467 c 0,37,38
 411 1464 411 1464 412.5 1458.5 c 128,-1,39
 414 1453 414 1453 412 1455 c 0,40,41
 404 1471 404 1471 400 1485 c 128,-1,42
 396 1499 396 1499 379 1510 c 0,43,44
 377 1511 377 1511 368.5 1514.5 c 128,-1,45
 360 1518 360 1518 353 1521 c 128,-1,46
 346 1524 346 1524 344 1525 c 128,-1,47
 342 1526 342 1526 354 1523 c 0,48,49
 356 1522 356 1522 354 1522 c 0,50,51
 353 1522 353 1522 350 1522.5 c 128,-1,52
 347 1523 347 1523 343 1523.5 c 128,-1,53
 339 1524 339 1524 337 1524 c 2,54,-1
 287 1524 l 2,55,56
 275 1524 275 1524 262.5 1520.5 c 128,-1,57
 250 1517 250 1517 239.5 1510.5 c 128,-1,58
 229 1504 229 1504 221.5 1494.5 c 128,-1,59
 214 1485 214 1485 214 1473 c 0,60,61
 211 1402 211 1402 211 1346 c 0,62,63
 211 1291 211 1291 212 1241 c 128,-1,64
 213 1191 213 1191 214 1140.5 c 128,-1,65
 215 1090 215 1090 214 1028 c 1,66,67
 225 1003 225 1003 243 988.5 c 128,-1,68
 261 974 261 974 289 974 c 0,69,70
 310 974 310 974 332 975.5 c 128,-1,71
 354 977 354 977 371.5 984 c 128,-1,72
 389 991 389 991 400 1006.5 c 128,-1,73
 411 1022 411 1022 411 1050 c 2,74,-1
 411 1450 l 2,31,32
EndSplineSet
EndChar

StartChar: questiondown
Encoding: 191 191 212
Width: 850
Flags: W
LayerCount: 2
Back
Fore
SplineSet
95 350 m 2,0,1
 95 452 95 452 159 533 c 128,-1,2
 223 614 223 614 333 647 c 0,3,4
 352 653 352 653 379 680 c 1,5,-1
 391 708 l 1,6,-1
 395 736 l 1,7,-1
 395 1050 l 2,8,9
 395 1074 395 1074 409 1088 c 0,10,11
 423 1100 423 1100 445 1100 c 0,12,13
 454 1100 454 1100 480 1088 c 1,14,15
 495 1076 495 1076 495 1050 c 2,16,-1
 495 739 l 2,17,18
 495 674 495 674 457.5 621.5 c 128,-1,19
 420 569 420 569 358 550 c 1,20,21
 293 535 293 535 244 477.5 c 128,-1,22
 195 420 195 420 195 349 c 2,23,-1
 195 300 l 2,24,25
 195 217 195 217 252.5 158.5 c 128,-1,26
 310 100 310 100 395 100 c 2,27,-1
 495 100 l 2,28,29
 541 100 541 100 584 120 c 0,30,31
 626 138 626 138 656 180 c 0,32,33
 671 201 671 201 696 201 c 0,34,35
 704 201 704 201 731 186 c 1,36,37
 747 170 747 170 747 150 c 0,38,39
 747 134 747 134 736 120 c 0,40,41
 697 66 697 66 631 33 c 128,-1,42
 565 0 565 0 495 0 c 2,43,-1
 395 0 l 2,44,45
 272 0 272 0 183 88 c 0,46,47
 139 130 139 130 117 184 c 1,48,-1
 102 237 l 1,49,-1
 97 269 l 1,50,-1
 95 300 l 1,51,-1
 95 350 l 2,0,1
445 1400 m 256,52,53
 469 1400 469 1400 481.5 1385.5 c 128,-1,54
 494 1371 494 1371 494 1350 c 0,55,56
 494 1339 494 1339 481.5 1319.5 c 128,-1,57
 469 1300 469 1300 445 1300 c 0,58,59
 430 1300 430 1300 412.5 1314.5 c 128,-1,60
 395 1329 395 1329 395 1350 c 0,61,62
 395 1368 395 1368 408 1384 c 128,-1,63
 421 1400 421 1400 445 1400 c 256,52,53
EndSplineSet
EndChar

StartChar: exclamdown
Encoding: 161 161 213
Width: 1606
Flags: W
LayerCount: 2
Back
Fore
SplineSet
996 1161 m 1,0,-1
 646 239 l 2,1,2
 634 207 634 207 598 207 c 256,3,4
 562 207 562 207 550 239 c 2,5,-1
 200 1161 l 1,6,-1
 198 1171 l 2,7,8
 198 1184 198 1184 213 1195 c 128,-1,9
 228 1206 228 1206 249 1206 c 0,10,11
 261 1206 261 1206 272 1200 c 0,12,13
 285 1196 285 1196 296 1179 c 1,14,-1
 598 385 l 1,15,-1
 900 1179 l 2,16,17
 903 1189 903 1189 915 1197 c 0,18,19
 927 1204 927 1204 947 1206 c 0,20,21
 967 1206 967 1206 982.5 1196 c 128,-1,22
 998 1186 998 1186 998 1171 c 2,23,-1
 996 1161 l 1,0,-1
1273 200 m 1,24,-1
 1171 200 l 1,25,-1
 1171 1206 l 1,26,-1
 1273 1206 l 1,27,-1
 1273 200 l 1,24,-1
1411 117 m 1,28,-1
 128 117 l 1,29,-1
 128 6 l 1,30,-1
 1411 6 l 1,31,-1
 1411 117 l 1,28,-1
1403 1406 m 1,32,-1
 120 1406 l 1,33,-1
 120 1295 l 1,34,-1
 1403 1295 l 1,35,-1
 1403 1406 l 1,32,-1
EndSplineSet
EndChar

StartChar: logicalnot
Encoding: 172 172 214
Width: 805
Flags: W
LayerCount: 2
Back
Fore
SplineSet
732 355 m 2,0,1
 732 318 732 318 696 318 c 0,2,3
 659 318 659 318 659 355 c 2,4,-1
 659 557 l 1,5,-1
 110 557 l 2,6,7
 98 557 98 557 87 565 c 0,8,9
 82 570 82 570 73 593 c 0,10,11
 73 602 73 602 82 617 c 0,12,13
 86 622 86 622 93 626 c 2,14,-1
 110 630 l 1,15,-1
 696 630 l 2,16,17
 732 630 732 630 732 594 c 2,18,-1
 732 355 l 2,0,1
EndSplineSet
EndChar

StartChar: uni0192
Encoding: 402 402 215
Width: 1537
Flags: W
LayerCount: 2
Back
Fore
SplineSet
461 954 m 1,0,1
 439 954 439 954 427.5 969 c 128,-1,2
 416 984 416 984 415 1002 c 128,-1,3
 414 1020 414 1020 425.5 1035 c 128,-1,4
 437 1050 437 1050 461 1052 c 2,5,-1
 784 1052 l 1,6,-1
 879 1400 l 2,7,8
 910 1520 910 1520 952.5 1597.5 c 128,-1,9
 995 1675 995 1675 1043.5 1719.5 c 128,-1,10
 1092 1764 1092 1764 1145 1780.5 c 128,-1,11
 1198 1797 1198 1797 1252 1794 c 128,-1,12
 1306 1791 1306 1791 1358.5 1773.5 c 128,-1,13
 1411 1756 1411 1756 1458 1733 c 0,14,15
 1474 1722 1474 1722 1477.5 1704.5 c 128,-1,16
 1481 1687 1481 1687 1474.5 1672.5 c 128,-1,17
 1468 1658 1468 1658 1453 1651 c 128,-1,18
 1438 1644 1438 1644 1417 1655 c 0,19,20
 1333 1700 1333 1700 1264.5 1704 c 128,-1,21
 1196 1708 1196 1708 1142 1674.5 c 128,-1,22
 1088 1641 1088 1641 1048 1571.5 c 128,-1,23
 1008 1502 1008 1502 980 1400 c 2,24,-1
 886 1052 l 1,25,-1
 1200 1052 l 2,26,27
 1223 1053 1223 1053 1234.5 1038 c 128,-1,28
 1246 1023 1246 1023 1246 1004 c 256,29,30
 1246 985 1246 985 1234.5 969.5 c 128,-1,31
 1223 954 1223 954 1200 954 c 2,32,-1
 860 954 l 1,33,-1
 604 0 l 2,34,35
 573 -119 573 -119 532.5 -197 c 128,-1,36
 492 -275 492 -275 447 -320.5 c 128,-1,37
 402 -366 402 -366 354 -382.5 c 128,-1,38
 306 -399 306 -399 258 -395.5 c 128,-1,39
 210 -392 210 -392 164.5 -373 c 128,-1,40
 119 -354 119 -354 80 -327 c 0,41,42
 63 -317 63 -317 60.5 -299.5 c 128,-1,43
 58 -282 58 -282 66 -268.5 c 128,-1,44
 74 -255 74 -255 91.5 -249.5 c 128,-1,45
 109 -244 109 -244 132 -258 c 0,46,47
 191 -302 191 -302 245.5 -307 c 128,-1,48
 300 -312 300 -312 347.5 -279 c 128,-1,49
 395 -246 395 -246 433.5 -176 c 128,-1,50
 472 -106 472 -106 499 0 c 2,51,-1
 758 954 l 1,52,-1
 461 954 l 1,53,-1
 461 954 l 1,0,1
EndSplineSet
EndChar

StartChar: guillemotleft
Encoding: 171 171 216
Width: 850
Flags: W
LayerCount: 2
Back
Fore
SplineSet
746 173 m 2,0,1
 757 159 757 159 757 142 c 0,2,3
 757 124 757 124 741 108 c 128,-1,4
 725 92 725 92 705 92 c 0,5,6
 681 92 681 92 666 113 c 2,7,-1
 399 470 l 2,8,9
 389 483 389 483 389 500 c 0,10,11
 389 516 389 516 399 530 c 2,12,-1
 666 886 l 2,13,14
 681 907 681 907 705 907 c 0,15,16
 723 907 723 907 740 891.5 c 128,-1,17
 757 876 757 876 757 856 c 0,18,19
 757 840 757 840 746 826 c 2,20,-1
 501 500 l 1,21,-1
 746 173 l 2,0,1
466 173 m 2,22,23
 477 159 477 159 477 142 c 0,24,25
 477 124 477 124 461 108 c 128,-1,26
 445 92 445 92 425 92 c 0,27,28
 401 92 401 92 386 113 c 2,29,-1
 119 470 l 2,30,31
 109 483 109 483 109 500 c 0,32,33
 109 516 109 516 119 530 c 2,34,-1
 386 886 l 2,35,36
 401 907 401 907 425 907 c 0,37,38
 443 907 443 907 460 891.5 c 128,-1,39
 477 876 477 876 477 856 c 0,40,41
 477 840 477 840 466 826 c 2,42,-1
 221 500 l 1,43,-1
 466 173 l 2,22,23
EndSplineSet
EndChar

StartChar: guillemotright
Encoding: 187 187 217
Width: 850
Flags: W
LayerCount: 2
Back
Fore
SplineSet
737 470 m 2,0,-1
 470 113 l 2,1,2
 455 92 455 92 431 92 c 0,3,4
 413 92 413 92 395 107 c 0,5,6
 379 123 379 123 379 143 c 0,7,8
 379 159 379 159 390 173 c 2,9,-1
 635 500 l 1,10,-1
 390 826 l 2,11,12
 379 840 379 840 379 857 c 0,13,14
 379 868 379 868 394.5 887.5 c 128,-1,15
 410 907 410 907 431 907 c 0,16,17
 455 907 455 907 470 886 c 2,18,-1
 737 530 l 1,19,-1
 748 500 l 1,20,21
 748 484 748 484 737 470 c 2,0,-1
457 470 m 2,22,-1
 190 113 l 2,23,24
 175 92 175 92 151 92 c 0,25,26
 133 92 133 92 115 107 c 0,27,28
 99 123 99 123 99 143 c 0,29,30
 99 159 99 159 110 173 c 2,31,-1
 355 500 l 1,32,-1
 110 826 l 2,33,34
 99 840 99 840 99 857 c 0,35,36
 99 868 99 868 114.5 887.5 c 128,-1,37
 130 907 130 907 151 907 c 0,38,39
 175 907 175 907 190 886 c 2,40,-1
 457 530 l 1,41,-1
 468 500 l 1,42,43
 468 484 468 484 457 470 c 2,22,-1
EndSplineSet
EndChar

StartChar: uni00A0
Encoding: 160 160 219
Width: 1606
Flags: W
LayerCount: 2
Back
Fore
SplineSet
1299 1161 m 1,0,-1
 949 239 l 2,1,2
 937 207 937 207 901 207 c 256,3,4
 865 207 865 207 853 239 c 2,5,-1
 503 1161 l 1,6,-1
 501 1172 l 2,7,8
 501 1185 501 1185 516 1195.5 c 128,-1,9
 531 1206 531 1206 552 1206 c 0,10,11
 564 1206 564 1206 575 1200 c 0,12,13
 588 1196 588 1196 599 1180 c 1,14,-1
 901 385 l 1,15,-1
 1203 1180 l 2,16,17
 1206 1189 1206 1189 1218 1198 c 0,18,19
 1230 1204 1230 1204 1250 1206 c 0,20,21
 1270 1206 1270 1206 1285.5 1196.5 c 128,-1,22
 1301 1187 1301 1187 1301 1171 c 2,23,-1
 1299 1161 l 1,0,-1
1411 117 m 1,24,-1
 394 117 l 1,25,-1
 394 6 l 1,26,-1
 1411 6 l 1,27,-1
 1411 117 l 1,24,-1
1403 1406 m 1,28,-1
 394 1406 l 1,29,-1
 394 1295 l 1,30,-1
 1403 1295 l 1,31,-1
 1403 1406 l 1,28,-1
EndSplineSet
EndChar

StartChar: OE
Encoding: 338 338 221
Width: 1445
Flags: W
LayerCount: 2
Back
Fore
SplineSet
857 699 m 1,0,-1
 857 100 l 1,1,-1
 1307 100 l 2,2,3
 1325 100 1325 100 1341 84 c 128,-1,4
 1357 68 1357 68 1357 50 c 256,5,6
 1357 32 1357 32 1344 16 c 128,-1,7
 1331 0 1331 0 1307 0 c 2,8,-1
 807 0 l 2,9,10
 757 0 757 0 757 50 c 2,11,-1
 757 143 l 1,12,13
 738 114 738 114 713 88 c 0,14,15
 625 0 625 0 500 0 c 2,16,-1
 400 0 l 2,17,18
 285 0 285 0 192.5 87 c 128,-1,19
 100 174 100 174 100 300 c 2,20,-1
 100 1100 l 2,21,22
 100 1220 100 1220 187 1310 c 128,-1,23
 274 1400 274 1400 400 1400 c 2,24,-1
 500 1400 l 2,25,26
 623 1400 623 1400 712 1312 c 0,27,28
 738 1286 738 1286 757 1257 c 1,29,-1
 757 1350 l 2,30,31
 757 1400 757 1400 807 1400 c 2,32,-1
 1307 1400 l 2,33,34
 1325 1400 1325 1400 1341 1384 c 128,-1,35
 1357 1368 1357 1368 1357 1350 c 256,36,37
 1357 1332 1357 1332 1344 1316 c 128,-1,38
 1331 1300 1331 1300 1307 1300 c 2,39,-1
 857 1300 l 1,40,-1
 857 799 l 1,41,-1
 1107 799 l 2,42,43
 1125 799 1125 799 1141 783 c 128,-1,44
 1157 767 1157 767 1157 749 c 256,45,46
 1157 731 1157 731 1144 715 c 128,-1,47
 1131 699 1131 699 1107 699 c 2,48,-1
 857 699 l 1,0,-1
701 300 m 2,49,-1
 701 1100 l 2,50,51
 701 1182 701 1182 642 1241 c 128,-1,52
 583 1300 583 1300 500 1300 c 2,53,-1
 400 1300 l 2,54,55
 317 1300 317 1300 258.5 1241.5 c 128,-1,56
 200 1183 200 1183 200 1100 c 2,57,-1
 200 300 l 2,58,59
 200 219 200 219 260.5 159.5 c 128,-1,60
 321 100 321 100 400 100 c 2,61,-1
 500 100 l 2,62,63
 581 100 581 100 641 157 c 128,-1,64
 701 214 701 214 701 300 c 2,49,-1
EndSplineSet
EndChar

StartChar: oe
Encoding: 339 339 222
Width: 1294
Flags: W
LayerCount: 2
Back
Fore
SplineSet
701 451 m 1,0,-1
 701 201 l 2,1,2
 701 159 701 159 730 130 c 128,-1,3
 759 101 759 101 800 101 c 2,4,-1
 1150 101 l 2,5,6
 1168 101 1168 101 1184 85 c 128,-1,7
 1200 69 1200 69 1200 51 c 256,8,9
 1200 33 1200 33 1187 17 c 128,-1,10
 1174 1 1174 1 1150 1 c 2,11,-1
 800 1 l 2,12,13
 717 1 717 1 659 59 c 0,14,15
 648 69 648 69 640 81 c 1,16,17
 630 68 630 68 619 57 c 0,18,19
 561 -1 561 -1 477 -1 c 2,20,-1
 277 -1 l 2,21,22
 193 -1 193 -1 135 57 c 128,-1,23
 77 115 77 115 77 199 c 2,24,-1
 77 799 l 2,25,26
 77 874 77 874 134 936.5 c 128,-1,27
 191 999 191 999 277 999 c 2,28,-1
 477 999 l 2,29,30
 560 999 560 999 618 941 c 0,31,32
 631 929 631 929 640 916 c 1,33,34
 648 927 648 927 658 937 c 0,35,36
 715 1000 715 1000 800 1000 c 2,37,-1
 1001 1000 l 2,38,39
 1085 1000 1085 1000 1143 942 c 128,-1,40
 1201 884 1201 884 1201 800 c 2,41,-1
 1201 501 l 2,42,43
 1201 451 1201 451 1150 451 c 2,44,-1
 701 451 l 1,0,-1
577 199 m 2,45,-1
 577 799 l 2,46,47
 577 841 577 841 548 870 c 128,-1,48
 519 899 519 899 477 899 c 2,49,-1
 277 899 l 2,50,51
 235 899 235 899 206 870 c 128,-1,52
 177 841 177 841 177 799 c 2,53,-1
 177 199 l 2,54,55
 177 157 177 157 206 128 c 128,-1,56
 235 99 235 99 277 99 c 2,57,-1
 477 99 l 2,58,59
 519 99 519 99 548 128 c 128,-1,60
 577 157 577 157 577 199 c 2,45,-1
701 550 m 1,61,-1
 1101 550 l 1,62,-1
 1101 800 l 2,63,64
 1101 842 1101 842 1072 871 c 128,-1,65
 1043 900 1043 900 1001 900 c 2,66,-1
 800 900 l 2,67,68
 759 900 759 900 730 871 c 128,-1,69
 701 842 701 842 701 800 c 2,70,-1
 701 550 l 1,61,-1
EndSplineSet
EndChar

StartChar: endash
Encoding: 8211 8211 223
Width: 926
Flags: W
LayerCount: 2
Back
Fore
SplineSet
817 636 m 2,0,-1
 102 642 l 2,1,2
 79 642 79 642 65 656 c 0,3,4
 52 672 52 672 52 692 c 0,5,6
 52 703 52 703 64.5 722.5 c 128,-1,7
 77 742 77 742 102 742 c 2,8,-1
 817 736 l 2,9,10
 835 736 835 736 851 720 c 128,-1,11
 867 704 867 704 867 686 c 256,12,13
 867 668 867 668 854 652 c 128,-1,14
 841 636 841 636 817 636 c 2,0,-1
EndSplineSet
EndChar

StartChar: emdash
Encoding: 8212 8212 224
Width: 1422
Flags: W
LayerCount: 2
Back
Fore
SplineSet
1244 638 m 2,0,-1
 176 639 l 2,1,2
 153 639 153 639 139 653 c 0,3,4
 126 669 126 669 126 689 c 0,5,6
 126 700 126 700 138.5 719.5 c 128,-1,7
 151 739 151 739 176 739 c 2,8,-1
 1244 738 l 2,9,10
 1262 738 1262 738 1278 722 c 128,-1,11
 1294 706 1294 706 1294 688 c 256,12,13
 1294 670 1294 670 1281 654 c 128,-1,14
 1268 638 1268 638 1244 638 c 2,0,-1
EndSplineSet
EndChar

StartChar: quotedblright
Encoding: 8221 8221 226
Width: 559
Flags: W
LayerCount: 2
Back
Fore
SplineSet
160 1102 m 2,0,1
 151 1081 151 1081 139 1072 c 128,-1,2
 127 1063 127 1063 112 1063 c 0,3,4
 90 1063 90 1063 75 1078 c 128,-1,5
 60 1093 60 1093 60 1111 c 2,6,-1
 62 1126 l 1,7,-1
 112 1324 l 2,8,9
 118 1344 118 1344 130.5 1353.5 c 128,-1,10
 143 1363 143 1363 160 1363 c 0,11,12
 180 1363 180 1363 196 1349.5 c 128,-1,13
 212 1336 212 1336 212 1315 c 2,14,-1
 210 1300 l 1,15,-1
 160 1102 l 2,0,1
430 1100 m 2,16,17
 421 1079 421 1079 409 1070 c 128,-1,18
 397 1061 397 1061 382 1061 c 0,19,20
 360 1061 360 1061 345 1076 c 128,-1,21
 330 1091 330 1091 330 1109 c 2,22,-1
 332 1124 l 1,23,-1
 382 1322 l 2,24,25
 388 1342 388 1342 400.5 1351.5 c 128,-1,26
 413 1361 413 1361 430 1361 c 0,27,28
 450 1361 450 1361 466 1347.5 c 128,-1,29
 482 1334 482 1334 482 1313 c 2,30,-1
 480 1298 l 1,31,-1
 430 1100 l 2,16,17
EndSplineSet
EndChar

StartChar: quoteleft
Encoding: 8216 8216 227
Width: 367
Flags: W
LayerCount: 2
Back
Fore
SplineSet
242 1128 m 1,0,-1
 244 1113 l 2,1,2
 244 1092 244 1092 228 1078.5 c 128,-1,3
 212 1065 212 1065 192 1065 c 0,4,5
 175 1065 175 1065 162.5 1074.5 c 128,-1,6
 150 1084 150 1084 144 1104 c 2,7,-1
 94 1302 l 1,8,-1
 92 1317 l 2,9,10
 92 1335 92 1335 107 1350 c 128,-1,11
 122 1365 122 1365 144 1365 c 0,12,13
 159 1365 159 1365 171 1356 c 128,-1,14
 183 1347 183 1347 192 1326 c 2,15,-1
 242 1128 l 1,0,-1
EndSplineSet
EndChar

StartChar: quoteright
Encoding: 8217 8217 228
Width: 319
Flags: W
LayerCount: 2
Back
Fore
SplineSet
178 1096 m 2,0,1
 169 1075 169 1075 157 1066 c 128,-1,2
 145 1057 145 1057 130 1057 c 0,3,4
 108 1057 108 1057 93 1072 c 128,-1,5
 78 1087 78 1087 78 1105 c 2,6,-1
 80 1120 l 1,7,-1
 130 1318 l 2,8,9
 136 1338 136 1338 148.5 1347.5 c 128,-1,10
 161 1357 161 1357 178 1357 c 0,11,12
 198 1357 198 1357 214 1343.5 c 128,-1,13
 230 1330 230 1330 230 1309 c 2,14,-1
 228 1294 l 1,15,-1
 178 1096 l 2,0,1
EndSplineSet
EndChar

StartChar: currency
Encoding: 164 164 230
Width: 1688
Flags: W
LayerCount: 2
Back
Fore
SplineSet
1484 117 m 1,0,-1
 128 117 l 1,1,-1
 128 6 l 1,2,-1
 1484 6 l 1,3,-1
 1484 117 l 1,0,-1
1491 1406 m 1,4,-1
 120 1406 l 1,5,-1
 120 1295 l 1,6,-1
 1491 1295 l 1,7,-1
 1491 1406 l 1,4,-1
351 200 m 1,8,-1
 249 200 l 1,9,-1
 249 1206 l 1,10,-1
 351 1206 l 1,11,-1
 351 200 l 1,8,-1
967 785 m 1,12,-1
 1281 1207 l 2,13,14
 1295 1227 1295 1227 1325 1227 c 0,15,16
 1347 1227 1347 1227 1362.5 1216.5 c 128,-1,17
 1378 1206 1378 1206 1378 1191 c 0,18,19
 1378 1182 1378 1182 1371 1171 c 2,20,-1
 1026 707 l 1,21,-1
 1371 242 l 2,22,23
 1378 234 1378 234 1378 222 c 0,24,25
 1378 209 1378 209 1362 196 c 0,26,27
 1345 186 1345 186 1324 186 c 0,28,29
 1296 186 1296 186 1281 206 c 2,30,-1
 967 628 l 1,31,-1
 654 206 l 2,32,33
 640 186 640 186 610 186 c 0,34,35
 588 186 588 186 572.5 196.5 c 128,-1,36
 557 207 557 207 557 222 c 0,37,38
 557 231 557 231 564 242 c 2,39,-1
 909 707 l 1,40,-1
 564 1171 l 1,41,-1
 557 1191 l 2,42,43
 557 1199 557 1199 572.5 1213 c 128,-1,44
 588 1227 588 1227 611 1227 c 0,45,46
 639 1227 639 1227 654 1207 c 2,47,-1
 967 785 l 1,12,-1
EndSplineSet
EndChar

StartChar: guilsinglleft
Encoding: 8249 8249 231
Width: 800
Flags: W
LayerCount: 2
Back
Fore
SplineSet
682 237 m 1,0,1
 711 222 711 222 711 193 c 0,2,3
 711 171 711 171 697 156 c 128,-1,4
 683 141 683 141 662 141 c 0,5,6
 650 141 650 141 638 147 c 2,7,-1
 138 488 l 2,8,9
 126 494 126 494 117 506 c 1,10,-1
 110 533 l 1,11,12
 110 563 110 563 138 578 c 2,13,-1
 638 918 l 2,14,15
 652 924 652 924 662 924 c 0,16,17
 680 924 680 924 695 908.5 c 128,-1,18
 710 893 710 893 710 872 c 0,19,20
 710 852 710 852 682 828 c 2,21,-1
 272 533 l 1,22,-1
 682 237 l 1,0,1
EndSplineSet
EndChar

StartChar: guilsinglright
Encoding: 8250 8250 232
Width: 800
Flags: W
LayerCount: 2
Back
Fore
SplineSet
559 533 m 1,0,-1
 149 828 l 2,1,2
 121 852 121 852 121 872 c 0,3,4
 121 893 121 893 136 908.5 c 128,-1,5
 151 924 151 924 169 924 c 0,6,7
 179 924 179 924 193 918 c 2,8,-1
 693 578 l 2,9,10
 721 563 721 563 721 533 c 1,11,-1
 714 506 l 1,12,13
 705 494 705 494 693 488 c 2,14,-1
 193 147 l 2,15,16
 181 141 181 141 169 141 c 0,17,18
 148 141 148 141 134 156 c 128,-1,19
 120 171 120 171 120 193 c 0,20,21
 120 222 120 222 149 237 c 1,22,-1
 559 533 l 1,0,-1
EndSplineSet
EndChar

StartChar: daggerdbl
Encoding: 8225 8225 233
Width: 1118
Flags: W
LayerCount: 2
Back
Fore
SplineSet
115 1032 m 1,0,1
 89 1032 89 1032 76 1047.5 c 128,-1,2
 63 1063 63 1063 63 1082 c 256,3,4
 63 1101 63 1101 76 1116.5 c 128,-1,5
 89 1132 89 1132 115 1132 c 2,6,-1
 474 1132 l 1,7,-1
 474 1348 l 2,8,9
 474 1374 474 1374 489.5 1387 c 128,-1,10
 505 1400 505 1400 524 1400 c 256,11,12
 543 1400 543 1400 558.5 1387 c 128,-1,13
 574 1374 574 1374 574 1348 c 2,14,-1
 574 1132 l 1,15,-1
 955 1132 l 2,16,17
 981 1132 981 1132 994 1116.5 c 128,-1,18
 1007 1101 1007 1101 1007 1082 c 256,19,20
 1007 1063 1007 1063 994 1047.5 c 128,-1,21
 981 1032 981 1032 955 1032 c 2,22,-1
 574 1032 l 1,23,-1
 574 144 l 1,24,-1
 955 144 l 2,25,26
 981 144 981 144 994 128.5 c 128,-1,27
 1007 113 1007 113 1007 94 c 256,28,29
 1007 75 1007 75 994 59.5 c 128,-1,30
 981 44 981 44 955 44 c 2,31,-1
 574 44 l 1,32,-1
 574 -222 l 2,33,34
 574 -248 574 -248 558.5 -261 c 128,-1,35
 543 -274 543 -274 524 -274 c 256,36,37
 505 -274 505 -274 489.5 -261 c 128,-1,38
 474 -248 474 -248 474 -222 c 2,39,-1
 474 44 l 1,40,-1
 115 44 l 2,41,42
 89 44 89 44 76 59.5 c 128,-1,43
 63 75 63 75 63 94 c 256,44,45
 63 113 63 113 76 128.5 c 128,-1,46
 89 144 89 144 115 144 c 2,47,-1
 474 144 l 1,48,-1
 474 1032 l 1,49,-1
 115 1032 l 1,50,-1
 115 1032 l 1,0,1
EndSplineSet
EndChar

StartChar: periodcentered
Encoding: 183 183 234
AltUni2: 002219.ffffffff.0
Width: 300
Flags: W
LayerCount: 2
Back
Fore
SplineSet
150 612 m 0,0,1
 168 612 168 612 184 596 c 128,-1,2
 200 580 200 580 200 562 c 256,3,4
 200 544 200 544 187 528 c 128,-1,5
 174 512 174 512 150 512 c 0,6,7
 127 512 127 512 113 526 c 0,8,9
 100 542 100 542 100 562 c 0,10,11
 100 573 100 573 112.5 592.5 c 128,-1,12
 125 612 125 612 150 612 c 0,0,1
EndSplineSet
EndChar

StartChar: quotesinglbase
Encoding: 8218 8218 235
Width: 354
Flags: W
LayerCount: 2
Back
Fore
SplineSet
202 -171 m 2,0,1
 193 -192 193 -192 181 -201 c 128,-1,2
 169 -210 169 -210 154 -210 c 0,3,4
 132 -210 132 -210 117 -195 c 128,-1,5
 102 -180 102 -180 102 -162 c 2,6,-1
 104 -147 l 1,7,-1
 154 51 l 2,8,9
 160 71 160 71 172.5 80.5 c 128,-1,10
 185 90 185 90 202 90 c 0,11,12
 222 90 222 90 238 76.5 c 128,-1,13
 254 63 254 63 254 42 c 2,14,-1
 252 27 l 1,15,-1
 202 -171 l 2,0,1
EndSplineSet
EndChar

StartChar: perthousand
Encoding: 8240 8240 237
Width: 2450
Flags: W
LayerCount: 2
Back
Fore
SplineSet
1600 300 m 0,0,1
 1600 167 1600 167 1507 74 c 1,2,3
 1423 -1 1423 -1 1300 -1 c 0,4,5
 1190 -1 1190 -1 1094 74 c 1,6,7
 1000 157 1000 157 1000 300 c 0,8,9
 1000 441 1000 441 1093 525 c 0,10,11
 1178 601 1178 601 1300 601 c 0,12,13
 1411 601 1411 601 1506 526 c 1,14,15
 1600 441 1600 441 1600 300 c 0,0,1
1293 1324 m 2,16,-1
 494 24 l 2,17,18
 478 -1 478 -1 452 -1 c 0,19,20
 430 -1 430 -1 415 13.5 c 128,-1,21
 400 28 400 28 400 49 c 0,22,23
 400 65 400 65 408 76 c 2,24,-1
 1207 1376 l 2,25,26
 1223 1401 1223 1401 1249 1401 c 0,27,28
 1270 1401 1270 1401 1285.5 1386.5 c 128,-1,29
 1301 1372 1301 1372 1301 1351 c 0,30,31
 1301 1335 1301 1335 1293 1324 c 2,16,-1
699 1100 m 0,32,33
 699 959 699 959 606 875 c 0,34,35
 522 800 522 800 400 800 c 0,36,37
 290 800 290 800 194 875 c 1,38,39
 100 958 100 958 100 1100 c 0,40,41
 100 1241 100 1241 193 1325 c 0,42,43
 277 1400 277 1400 400 1400 c 0,44,45
 510 1400 510 1400 605 1325 c 1,46,47
 699 1240 699 1240 699 1100 c 0,32,33
1500 300 m 0,48,49
 1500 393 1500 393 1438 449 c 0,50,51
 1380 499 1380 499 1300 499 c 0,52,53
 1219 499 1219 499 1163 450 c 0,54,55
 1100 396 1100 396 1100 300 c 0,56,57
 1100 205 1100 205 1162 150 c 0,58,59
 1218 100 1218 100 1300 100 c 0,60,61
 1381 100 1381 100 1437 150 c 0,62,63
 1500 206 1500 206 1500 300 c 0,48,49
599 1100 m 0,64,65
 599 1194 599 1194 537 1250 c 0,66,67
 481 1300 481 1300 400 1300 c 256,68,69
 319 1300 319 1300 263 1250 c 0,70,71
 200 1194 200 1194 200 1100 c 0,72,73
 200 1005 200 1005 262 950 c 0,74,75
 318 900 318 900 400 900 c 0,76,77
 481 900 481 900 537 949 c 0,78,79
 599 1003 599 1003 599 1100 c 0,64,65
2350 300 m 0,80,81
 2350 167 2350 167 2257 74 c 1,82,83
 2173 -1 2173 -1 2050 -1 c 0,84,85
 1940 -1 1940 -1 1844 74 c 1,86,87
 1750 157 1750 157 1750 300 c 0,88,89
 1750 441 1750 441 1843 525 c 0,90,91
 1928 601 1928 601 2050 601 c 0,92,93
 2161 601 2161 601 2256 526 c 1,94,95
 2350 441 2350 441 2350 300 c 0,80,81
2250 300 m 0,96,97
 2250 393 2250 393 2188 449 c 0,98,99
 2130 499 2130 499 2050 499 c 0,100,101
 1969 499 1969 499 1913 450 c 0,102,103
 1850 396 1850 396 1850 300 c 0,104,105
 1850 205 1850 205 1912 150 c 0,106,107
 1968 100 1968 100 2050 100 c 0,108,109
 2131 100 2131 100 2187 150 c 0,110,111
 2250 206 2250 206 2250 300 c 0,96,97
EndSplineSet
EndChar

StartChar: circumflex
Encoding: 710 710 239
Width: 700
Flags: W
LayerCount: 2
Back
Fore
SplineSet
583 1398 m 1,0,1
 594 1384 594 1384 594 1367 c 0,2,3
 594 1349 594 1349 578 1333 c 128,-1,4
 562 1317 562 1317 542 1317 c 0,5,6
 518 1317 518 1317 346 1439 c 1,7,8
 168 1317 168 1317 144 1317 c 0,9,10
 126 1317 126 1317 108 1332 c 0,11,12
 92 1348 92 1348 92 1368 c 0,13,14
 92 1384 92 1384 103 1398 c 1,15,-1
 324 1549 l 2,16,17
 344 1561 344 1561 361 1549 c 2,18,-1
 583 1398 l 1,0,1
EndSplineSet
EndChar

StartChar: uni02DC
Encoding: 732 732 240
AltUni2: 00223c.ffffffff.0
Width: 741
Flags: W
LayerCount: 2
Back
Fore
SplineSet
635 1424 m 1,0,1
 590 1371 590 1371 532.5 1354 c 128,-1,2
 475 1337 475 1337 409 1366 c 0,3,4
 392 1373 392 1373 376.5 1384 c 128,-1,5
 361 1395 361 1395 345.5 1405.5 c 128,-1,6
 330 1416 330 1416 313 1423.5 c 128,-1,7
 296 1431 296 1431 277 1432 c 0,8,9
 251 1434 251 1434 229.5 1421 c 128,-1,10
 208 1408 208 1408 193 1386 c 0,11,12
 188 1378 188 1378 183.5 1371 c 128,-1,13
 179 1364 179 1364 174 1359 c 128,-1,14
 169 1354 169 1354 162.5 1351 c 128,-1,15
 156 1348 156 1348 146 1348 c 0,16,17
 139 1348 139 1348 132.5 1352.5 c 128,-1,18
 126 1357 126 1357 121 1361 c 0,19,20
 110 1370 110 1370 107 1380.5 c 128,-1,21
 104 1391 104 1391 106.5 1402.5 c 128,-1,22
 109 1414 109 1414 115 1424.5 c 128,-1,23
 121 1435 121 1435 127 1444 c 0,24,25
 172 1505 172 1505 235 1521 c 128,-1,26
 298 1537 298 1537 367 1499 c 0,27,28
 382 1491 382 1491 396 1481.5 c 128,-1,29
 410 1472 410 1472 424 1463 c 128,-1,30
 438 1454 438 1454 453.5 1448 c 128,-1,31
 469 1442 469 1442 487 1441 c 0,32,33
 516 1440 516 1440 541 1458 c 0,34,35
 549 1464 549 1464 555.5 1473.5 c 128,-1,36
 562 1483 562 1483 568 1492 c 128,-1,37
 574 1501 574 1501 580.5 1509 c 128,-1,38
 587 1517 587 1517 595 1521 c 0,39,40
 605 1525 605 1525 615 1523.5 c 128,-1,41
 625 1522 625 1522 633 1516 c 128,-1,42
 641 1510 641 1510 647 1501 c 128,-1,43
 653 1492 653 1492 654 1483 c 0,44,45
 656 1467 656 1467 650 1452.5 c 128,-1,46
 644 1438 644 1438 636 1425 c 2,47,-1
 635 1424 l 1,0,1
EndSplineSet
EndChar

StartChar: uni00AF
Encoding: 175 175 241
Width: 1214
Flags: W
LayerCount: 2
Back
Fore
SplineSet
1064 1294 m 2,0,-1
 151 1294 l 2,1,2
 128 1294 128 1294 114 1308 c 0,3,4
 101 1324 101 1324 101 1344 c 0,5,6
 101 1355 101 1355 113.5 1374.5 c 128,-1,7
 126 1394 126 1394 151 1394 c 2,8,-1
 1064 1394 l 2,9,10
 1082 1394 1082 1394 1098 1378 c 128,-1,11
 1114 1362 1114 1362 1114 1344 c 256,12,13
 1114 1326 1114 1326 1101 1310 c 128,-1,14
 1088 1294 1088 1294 1064 1294 c 2,0,-1
EndSplineSet
EndChar

StartChar: uni02D8
Encoding: 728 728 242
Width: 698
Flags: W
LayerCount: 2
Back
Fore
SplineSet
195 1397 m 1,0,1
 197 1322 197 1322 236 1279.5 c 128,-1,2
 275 1237 275 1237 351 1235 c 0,3,4
 384 1235 384 1235 412.5 1248.5 c 128,-1,5
 441 1262 441 1262 461.5 1285 c 128,-1,6
 482 1308 482 1308 493.5 1337.5 c 128,-1,7
 505 1367 505 1367 505 1399 c 1,8,-1
 604 1398 l 1,9,10
 605 1348 605 1348 589 1300.5 c 128,-1,11
 573 1253 573 1253 541 1216 c 128,-1,12
 509 1179 509 1179 461.5 1156.5 c 128,-1,13
 414 1134 414 1134 352 1135 c 0,14,15
 288 1136 288 1136 239.5 1155 c 128,-1,16
 191 1174 191 1174 159 1208 c 128,-1,17
 127 1242 127 1242 110.5 1290 c 128,-1,18
 94 1338 94 1338 93 1397 c 1,19,-1
 195 1397 l 1,0,1
EndSplineSet
EndChar

StartChar: uni02DA
Encoding: 730 730 243
Width: 1024
Flags: W
LayerCount: 2
Back
Fore
SplineSet
374 1222 m 256,0,1
 374 1258 374 1258 387.5 1289 c 128,-1,2
 401 1320 401 1320 424 1343 c 128,-1,3
 447 1366 447 1366 478.5 1379.5 c 128,-1,4
 510 1393 510 1393 546 1393 c 256,5,6
 582 1393 582 1393 613.5 1379.5 c 128,-1,7
 645 1366 645 1366 668.5 1343 c 128,-1,8
 692 1320 692 1320 705.5 1289 c 128,-1,9
 719 1258 719 1258 719 1222 c 256,10,11
 719 1186 719 1186 705.5 1155 c 128,-1,12
 692 1124 692 1124 668.5 1101 c 128,-1,13
 645 1078 645 1078 613.5 1065 c 128,-1,14
 582 1052 582 1052 546 1052 c 256,15,16
 510 1052 510 1052 478.5 1065 c 128,-1,17
 447 1078 447 1078 424 1101 c 128,-1,18
 401 1124 401 1124 387.5 1155 c 128,-1,19
 374 1186 374 1186 374 1222 c 256,0,1
474 1226 m 256,20,21
 474 1195 474 1195 496.5 1174 c 128,-1,22
 519 1153 519 1153 551 1153 c 256,23,24
 583 1153 583 1153 606 1174 c 128,-1,25
 629 1195 629 1195 629 1226 c 256,26,27
 629 1257 629 1257 606 1279 c 128,-1,28
 583 1301 583 1301 551 1301 c 256,29,30
 519 1301 519 1301 496.5 1279 c 128,-1,31
 474 1257 474 1257 474 1226 c 256,20,21
EndSplineSet
EndChar

StartChar: Scaron
Encoding: 352 352 244
Width: 900
Flags: W
LayerCount: 2
Back
Fore
SplineSet
489 1518 m 2,0,1
 472 1506 472 1506 452 1518 c 2,2,-1
 231 1669 l 1,3,4
 220 1683 220 1683 220 1699 c 0,5,6
 220 1719 220 1719 236 1735 c 0,7,8
 254 1750 254 1750 272 1750 c 0,9,10
 296 1750 296 1750 471 1630 c 1,11,12
 646 1750 646 1750 670 1750 c 0,13,14
 690 1750 690 1750 706 1734 c 128,-1,15
 722 1718 722 1718 722 1700 c 0,16,17
 722 1683 722 1683 711 1669 c 1,18,-1
 489 1518 l 2,0,1
779 1330 m 0,19,20
 785 1327 785 1327 791 1318 c 128,-1,21
 797 1309 797 1309 802 1289 c 1,22,23
 802 1270 802 1270 786 1253.5 c 128,-1,24
 770 1237 770 1237 751 1237 c 1,25,-1
 723 1246 l 1,26,27
 646 1300 646 1300 550 1300 c 2,28,-1
 403 1300 l 2,29,30
 316 1300 316 1300 259.5 1240.5 c 128,-1,31
 203 1181 203 1181 203 1100 c 1,32,-1
 206 1060 l 1,33,-1
 210 1041 l 1,34,-1
 217 1023 l 2,35,36
 230 997 230 997 263 958 c 1,37,-1
 708 511 l 2,38,39
 752 468 752 468 774 413 c 2,40,-1
 782 390 l 1,41,-1
 792 352 l 1,42,-1
 796 329 l 1,43,-1
 797 300 l 1,44,45
 797 179 797 179 715 93 c 0,46,47
 628 0 628 0 496 0 c 2,48,-1
 350 0 l 2,49,50
 223 0 223 0 122 71 c 1,51,-1
 105 89 l 1,52,-1
 100 111 l 2,53,54
 100 126 100 126 115 144 c 128,-1,55
 130 162 130 162 149 162 c 1,56,-1
 178 153 l 1,57,58
 257 100 257 100 350 100 c 2,59,-1
 496 100 l 2,60,61
 577 100 577 100 637 160 c 128,-1,62
 697 220 697 220 697 301 c 1,63,-1
 694 335 l 2,64,65
 693 343 693 343 690 352.5 c 128,-1,66
 687 362 687 362 683 371 c 0,67,68
 672 405 672 405 638 442 c 2,69,-1
 191 889 l 2,70,71
 156 924 156 924 123 987 c 1,72,73
 102 1041 102 1041 102 1100 c 0,74,75
 102 1221 102 1221 184 1307 c 0,76,77
 271 1400 271 1400 403 1400 c 2,78,-1
 550 1400 l 2,79,80
 601 1400 601 1400 665 1382 c 128,-1,81
 729 1364 729 1364 779 1330 c 0,19,20
EndSplineSet
EndChar

StartChar: scaron
Encoding: 353 353 245
Width: 800
Flags: W
LayerCount: 2
Back
Fore
SplineSet
438 1160 m 2,0,1
 421 1148 421 1148 401 1160 c 2,2,-1
 180 1311 l 1,3,4
 169 1325 169 1325 169 1341 c 0,5,6
 169 1361 169 1361 185 1377 c 0,7,8
 203 1392 203 1392 221 1392 c 0,9,10
 245 1392 245 1392 422 1266 c 1,11,12
 595 1392 595 1392 619 1392 c 0,13,14
 639 1392 639 1392 655 1376 c 128,-1,15
 671 1360 671 1360 671 1342 c 0,16,17
 671 1325 671 1325 660 1311 c 1,18,-1
 438 1160 l 2,0,1
698 880 m 1,19,-1
 706 865 l 1,20,-1
 709 848 l 2,21,22
 709 830 709 830 693 813 c 0,23,24
 677 799 677 799 658 799 c 2,25,-1
 635 802 l 2,26,27
 632 804 632 804 630 806 c 0,28,29
 625 811 625 811 618 820 c 0,30,31
 591 856 591 856 547 878 c 1,32,-1
 502 894 l 2,33,34
 479 900 479 900 455 900 c 2,35,-1
 318 900 l 2,36,37
 266 900 266 900 234 865.5 c 128,-1,38
 202 831 202 831 202 784 c 0,39,40
 202 733 202 733 245 696 c 2,41,-1
 630 382 l 2,42,43
 669 352 669 352 688 306 c 0,44,45
 708 263 708 263 708 217 c 0,46,47
 708 129 708 129 650 67 c 0,48,49
 588 0 588 0 493 0 c 2,50,-1
 356 0 l 2,51,52
 281 0 281 0 221 29.5 c 128,-1,53
 161 59 161 59 113 120 c 1,54,-1
 105 135 l 1,55,-1
 102 152 l 2,56,57
 102 163 102 163 117 182 c 128,-1,58
 132 201 132 201 153 201 c 0,59,60
 166 201 166 201 175 196 c 0,61,62
 184 193 184 193 193 180 c 0,63,64
 212 153 212 153 263 121 c 1,65,66
 305 100 305 100 356 100 c 2,67,-1
 493 100 l 2,68,69
 544 100 544 100 576 135 c 128,-1,70
 608 170 608 170 608 216 c 0,71,72
 608 259 608 259 566 304 c 1,73,-1
 181 618 l 2,74,75
 142 651 142 651 121 694 c 1,76,-1
 107 743 l 2,77,78
 102 766 102 766 102 783 c 0,79,80
 102 871 102 871 160 933 c 0,81,82
 222 1000 222 1000 318 1000 c 2,83,-1
 455 1000 l 2,84,85
 528 1000 528 1000 591 969.5 c 128,-1,86
 654 939 654 939 698 880 c 1,19,-1
EndSplineSet
EndChar

StartChar: Zcaron
Encoding: 381 381 246
Width: 900
Flags: W
LayerCount: 2
Back
Fore
SplineSet
490 1547 m 2,0,1
 473 1535 473 1535 453 1547 c 2,2,-1
 232 1698 l 1,3,4
 221 1712 221 1712 221 1728 c 0,5,6
 221 1748 221 1748 237 1764 c 0,7,8
 255 1779 255 1779 273 1779 c 0,9,10
 297 1779 297 1779 476 1655 c 1,11,12
 647 1779 647 1779 671 1779 c 0,13,14
 691 1779 691 1779 707 1763 c 128,-1,15
 723 1747 723 1747 723 1729 c 0,16,17
 723 1712 723 1712 712 1698 c 1,18,-1
 490 1547 l 2,0,1
798 1329 m 1,19,-1
 230 100 l 1,20,-1
 753 100 l 2,21,22
 771 100 771 100 787 84 c 128,-1,23
 803 68 803 68 803 50 c 256,24,25
 803 32 803 32 790 16 c 128,-1,26
 777 0 777 0 753 0 c 2,27,-1
 152 0 l 2,28,29
 99 0 99 0 99 40 c 2,30,-1
 100 56 l 1,31,-1
 101 62 l 1,32,-1
 107 71 l 1,33,-1
 675 1300 l 1,34,-1
 152 1300 l 2,35,36
 129 1300 129 1300 115 1314 c 0,37,38
 102 1330 102 1330 102 1350 c 0,39,40
 102 1361 102 1361 114.5 1380.5 c 128,-1,41
 127 1400 127 1400 152 1400 c 2,42,-1
 753 1400 l 2,43,44
 806 1400 806 1400 806 1360 c 2,45,-1
 805 1344 l 1,46,-1
 803 1338 l 1,47,-1
 798 1329 l 1,19,-1
EndSplineSet
EndChar

StartChar: zcaron
Encoding: 382 382 247
Width: 800
Flags: W
LayerCount: 2
Back
Fore
SplineSet
427 1162 m 2,0,1
 410 1150 410 1150 390 1162 c 2,2,-1
 169 1313 l 1,3,4
 158 1327 158 1327 158 1343 c 0,5,6
 158 1363 158 1363 174 1379 c 0,7,8
 192 1394 192 1394 210 1394 c 0,9,10
 234 1394 234 1394 411 1277 c 1,11,12
 584 1394 584 1394 608 1394 c 0,13,14
 628 1394 628 1394 644 1378 c 128,-1,15
 660 1362 660 1362 660 1344 c 0,16,17
 660 1327 660 1327 649 1313 c 1,18,-1
 427 1162 l 2,0,1
694 926 m 2,19,-1
 235 100 l 1,20,-1
 650 100 l 2,21,22
 668 100 668 100 684 84 c 128,-1,23
 700 68 700 68 700 50 c 256,24,25
 700 32 700 32 687 16 c 128,-1,26
 674 0 674 0 650 0 c 2,27,-1
 150 0 l 2,28,29
 96 0 96 0 96 40 c 0,30,31
 96 57 96 57 106 74 c 2,32,-1
 565 900 l 1,33,-1
 150 900 l 2,34,35
 127 900 127 900 113 914 c 0,36,37
 100 930 100 930 100 950 c 0,38,39
 100 961 100 961 112.5 980.5 c 128,-1,40
 125 1000 125 1000 150 1000 c 2,41,-1
 650 1000 l 2,42,43
 704 1000 704 1000 704 960 c 0,44,45
 704 943 704 943 694 926 c 2,19,-1
EndSplineSet
EndChar

StartChar: brokenbar
Encoding: 166 166 248
Width: 300
Flags: W
LayerCount: 2
Back
Fore
SplineSet
100 1400 m 1,0,-1
 200 1400 l 1,1,-1
 200 650 l 1,2,-1
 100 650 l 1,3,-1
 100 1400 l 1,0,-1
100 350 m 1,4,-1
 200 350 l 1,5,-1
 200 -400 l 1,6,-1
 100 -400 l 1,7,-1
 100 350 l 1,4,-1
EndSplineSet
EndChar

StartChar: onesuperior
Encoding: 185 185 249
Width: 536
Flags: W
LayerCount: 2
Back
Fore
SplineSet
395 931 m 2,0,1
 395 907 395 907 381 893 c 0,2,3
 367 881 367 881 364 884 c 0,4,5
 355 884 355 884 329 896 c 1,6,7
 314 908 314 908 314 934 c 2,8,-1
 314 1477 l 1,9,-1
 173 1336 l 2,10,11
 158 1321 158 1321 139 1321 c 0,12,13
 118 1321 118 1321 109 1328 c 128,-1,14
 100 1335 100 1335 100 1356 c 0,15,16
 100 1364 100 1364 115 1390 c 1,17,-1
 341 1616 l 2,18,19
 355 1630 355 1630 375 1630 c 0,20,21
 376 1627 376 1627 385.5 1621.5 c 128,-1,22
 395 1616 395 1616 395 1594 c 2,23,-1
 395 931 l 2,0,1
EndSplineSet
EndChar

StartChar: twosuperior
Encoding: 178 178 250
Width: 603
Flags: W
LayerCount: 2
Back
Fore
SplineSet
442 938 m 1,0,-1
 143 938 l 2,1,2
 134 938 134 938 125 946 c 0,3,4
 118 954 118 954 118 965 c 0,5,6
 118 972 118 972 122 977 c 2,7,-1
 396 1392 l 1,8,-1
 407 1412 l 1,9,-1
 414 1429 l 2,10,11
 420 1447 420 1447 420 1466 c 0,12,13
 420 1517 420 1517 379 1552 c 0,14,15
 361 1568 361 1568 336.5 1577.5 c 128,-1,16
 312 1587 312 1587 287 1587 c 0,17,18
 253 1587 253 1587 223 1568 c 128,-1,19
 193 1549 193 1549 175 1502 c 0,20,21
 172 1494 172 1494 166 1490 c 0,22,23
 161 1487 161 1487 152 1486 c 0,24,25
 142 1486 142 1486 134 1492.5 c 128,-1,26
 126 1499 126 1499 126 1510 c 2,27,-1
 128 1519 l 1,28,29
 149 1580 149 1580 193 1611 c 0,30,31
 233 1638 233 1638 285 1638 c 0,32,33
 356 1638 356 1638 413 1589 c 0,34,35
 472 1538 472 1538 472 1466 c 0,36,37
 472 1442 472 1442 464.5 1418.5 c 128,-1,38
 457 1395 457 1395 438 1364 c 2,39,-1
 190 988 l 1,40,-1
 442 988 l 2,41,42
 451 988 451 988 459 980 c 128,-1,43
 467 972 467 972 467 963 c 256,44,45
 467 954 467 954 460.5 946 c 128,-1,46
 454 938 454 938 442 938 c 1,47,-1
 442 938 l 1,0,-1
EndSplineSet
EndChar

